<svg width="383" height="393" viewBox="0 0 383 393" fill="none" xmlns="http://www.w3.org/2000/svg">
<path d="M365.859 92.1366C368.212 107.192 377.257 160.29 376.995 190.635C376.687 226.354 328.395 238.953 322.073 193.263C319.685 176.006 327.37 177.243 326.044 93.4557C325.687 70.9163 361.942 67.0738 365.859 92.1366Z" fill="#A96556"/>
<path d="M321.609 141.706C328.189 141.999 377.281 135.577 379.733 139.492C382.185 143.408 383.301 182.393 382.93 195.681C381.811 235.834 314.684 245.734 316.747 196.693C317.712 173.759 315.458 141.431 321.609 141.706Z" fill="#9293C2"/>
<path d="M326.044 93.456C324.838 91.2882 319.548 89.5278 312.359 84.9782C305.17 80.4286 302.948 76.6599 287.328 68.8754C283.845 67.1392 284.059 57.8675 296.053 59.8211C298.911 60.2868 306.901 63.0965 308.423 62.3243C316.656 58.1471 312.347 46.8058 311.38 44.0429C310.411 41.2803 302.143 25.5484 299.701 17.7939C297.26 10.0393 307.188 6.57977 310.076 13.0017C312.964 19.4237 322.397 39.4412 322.397 39.4412L325.713 38.9801C325.713 38.9801 322.24 10.8202 321.124 5.14235C320.009 -0.535446 330.181 -3.19916 332.993 6.1901C335.805 15.5794 338.625 37.1882 338.625 37.1882L342.972 37.0133C342.972 37.0133 343.087 11.5703 345.54 4.94358C347.261 0.293313 356.394 -0.459461 356.525 6.61982C356.695 15.8227 355.087 38.0151 355.087 38.0151L360.221 39.5393C360.221 39.5393 368.197 25.6686 371.551 20.0896C374.905 14.511 382.117 18.8828 378.946 26.3046C375.775 33.726 370.393 46.3225 370.393 46.3225C370.393 46.3225 373.695 69.5585 371.86 76.5588C370.025 83.5591 366.107 88.9614 365.858 92.1368C364.938 103.906 334.5 108.656 326.044 93.456Z" fill="#A96556"/>
<path d="M341.122 83.6872C340.995 83.6872 340.878 83.6115 340.841 83.4951C337.575 73.2412 328.089 64.8944 316.675 62.2311C316.518 62.1948 316.424 62.0499 316.464 61.908C316.504 61.7658 316.666 61.6801 316.821 61.7171C328.432 64.4261 338.082 72.917 341.404 83.348C341.449 83.4884 341.359 83.6355 341.203 83.6763C341.176 83.6838 341.149 83.6872 341.122 83.6872Z" fill="#2F0808"/>
<path d="M361.787 55.1752C361.756 55.1752 361.724 55.1704 361.693 55.1614C361.139 54.9926 360.549 54.905 359.979 54.82C355.458 54.1466 351.378 53.5649 347.226 53.2729C343.418 53.0056 339.528 52.9877 335.765 52.9708C330.498 52.9472 325.073 52.9233 319.841 53.8423C319.682 53.8662 319.529 53.776 319.498 53.6319C319.467 53.4882 319.571 53.3493 319.729 53.3208C325.018 52.3929 330.471 52.4179 335.745 52.44C339.541 52.4572 343.442 52.4748 347.271 52.744C351.446 53.0378 355.54 53.621 360.074 54.2967C360.667 54.385 361.281 54.476 361.88 54.6579C362.033 54.7047 362.116 54.8552 362.064 54.9937C362.023 55.1053 361.909 55.1752 361.787 55.1752Z" fill="#2F0808"/>
<path d="M242.186 227.827C242.186 227.827 301.773 192.204 321.609 183.991C341.444 175.778 389.409 189.559 379.43 209.764C369.554 229.759 301.352 283.074 284.869 300.442C273.119 312.824 220.761 233.875 242.186 227.827Z" fill="#9293C2"/>
<path d="M266.563 277.407C263.692 278.571 260.857 279.874 258.102 281.308C268.612 295.421 280.095 305.474 284.869 300.442C293.269 291.591 315.098 273.404 335.796 255.05C328.056 258.406 320.092 261.338 311.958 263.818C296.844 268.427 281.117 271.502 266.563 277.407Z" fill="#7F80B8"/>
<path d="M87.669 246.302C46.19 274.98 3.72523 354.571 0 392.595H64.8149C64.8149 392.595 88.0031 348.922 105.51 324.977C123.018 301.033 120.284 223.753 87.669 246.302Z" fill="#9293C2"/>
<path d="M52.2407 392.595H64.8155C64.8155 392.595 88.0038 348.922 105.511 324.977C110.64 317.962 114.029 306.368 115.441 294.048C95.3678 327.478 64.2206 356.208 52.2407 392.595Z" fill="#7F80B8"/>
<path d="M123.018 233.498C155.8 239.296 190.141 237.986 225.801 230.657L244.696 256.094C198.82 270.393 155.132 272.832 114.358 259.466L123.018 233.498Z" fill="#6364A8"/>
<path d="M116.482 236.197H221.079L237.697 232.793C250.452 287.915 252.582 341.047 240.845 391.584H117.664C104.31 339.414 103.728 287.613 116.482 236.197Z" fill="#EEDED4"/>
<mask id="mask0_1122_3801" style="mask-type:luminance" maskUnits="userSpaceOnUse" x="107" y="232" width="142" height="160">
<path d="M116.482 236.197H221.079L237.697 232.793C250.452 287.915 252.582 341.047 240.845 391.584H117.664C104.31 339.414 103.728 287.613 116.482 236.197Z" fill="white"/>
</mask>
<g mask="url(#mask0_1122_3801)">
<path d="M220.986 293.991C225.296 293.991 228.791 290.827 228.791 286.925C228.791 283.022 225.296 279.858 220.986 279.858C216.676 279.858 213.181 283.022 213.181 286.925C213.181 290.827 216.676 293.991 220.986 293.991Z" fill="white"/>
</g>
<mask id="mask1_1122_3801" style="mask-type:luminance" maskUnits="userSpaceOnUse" x="107" y="232" width="142" height="160">
<path d="M116.482 236.197H221.079L237.697 232.793C250.452 287.915 252.582 341.047 240.845 391.584H117.664C104.31 339.414 103.728 287.613 116.482 236.197Z" fill="white"/>
</mask>
<g mask="url(#mask1_1122_3801)">
<path d="M136.242 293.991C140.553 293.991 144.047 290.827 144.047 286.925C144.047 283.022 140.553 279.858 136.242 279.858C131.932 279.858 128.438 283.022 128.438 286.925C128.438 290.827 131.932 293.991 136.242 293.991Z" fill="white"/>
</g>
<mask id="mask2_1122_3801" style="mask-type:luminance" maskUnits="userSpaceOnUse" x="107" y="232" width="142" height="160">
<path d="M116.482 236.197H221.079L237.697 232.793C250.452 287.915 252.582 341.047 240.845 391.584H117.664C104.31 339.414 103.728 287.613 116.482 236.197Z" fill="white"/>
</mask>
<g mask="url(#mask2_1122_3801)">
<path d="M220.986 242.842C225.296 242.842 228.791 239.678 228.791 235.776C228.791 231.873 225.296 228.709 220.986 228.709C216.676 228.709 213.181 231.873 213.181 235.776C213.181 239.678 216.676 242.842 220.986 242.842Z" fill="white"/>
</g>
<mask id="mask3_1122_3801" style="mask-type:luminance" maskUnits="userSpaceOnUse" x="107" y="232" width="142" height="160">
<path d="M116.482 236.197H221.079L237.697 232.793C250.452 287.915 252.582 341.047 240.845 391.584H117.664C104.31 339.414 103.728 287.613 116.482 236.197Z" fill="white"/>
</mask>
<g mask="url(#mask3_1122_3801)">
<path d="M178.614 268.416C182.924 268.416 186.419 265.252 186.419 261.35C186.419 257.447 182.924 254.284 178.614 254.284C174.303 254.284 170.809 257.447 170.809 261.35C170.809 265.252 174.303 268.416 178.614 268.416Z" fill="white"/>
</g>
<mask id="mask4_1122_3801" style="mask-type:luminance" maskUnits="userSpaceOnUse" x="107" y="232" width="142" height="160">
<path d="M116.482 236.197H221.079L237.697 232.793C250.452 287.915 252.582 341.047 240.845 391.584H117.664C104.31 339.414 103.728 287.613 116.482 236.197Z" fill="white"/>
</mask>
<g mask="url(#mask4_1122_3801)">
<path d="M136.242 242.842C140.553 242.842 144.047 239.678 144.047 235.776C144.047 231.873 140.553 228.709 136.242 228.709C131.932 228.709 128.438 231.873 128.438 235.776C128.438 239.678 131.932 242.842 136.242 242.842Z" fill="white"/>
</g>
<mask id="mask5_1122_3801" style="mask-type:luminance" maskUnits="userSpaceOnUse" x="107" y="232" width="142" height="160">
<path d="M116.482 236.197H221.079L237.697 232.793C250.452 287.915 252.582 341.047 240.845 391.584H117.664C104.31 339.414 103.728 287.613 116.482 236.197Z" fill="white"/>
</mask>
<g mask="url(#mask5_1122_3801)">
<path d="M220.986 345.141C225.296 345.141 228.791 341.978 228.791 338.075C228.791 334.172 225.296 331.009 220.986 331.009C216.676 331.009 213.181 334.172 213.181 338.075C213.181 341.978 216.676 345.141 220.986 345.141Z" fill="white"/>
</g>
<mask id="mask6_1122_3801" style="mask-type:luminance" maskUnits="userSpaceOnUse" x="107" y="232" width="142" height="160">
<path d="M116.482 236.197H221.079L237.697 232.793C250.452 287.915 252.582 341.047 240.845 391.584H117.664C104.31 339.414 103.728 287.613 116.482 236.197Z" fill="white"/>
</mask>
<g mask="url(#mask6_1122_3801)">
<path d="M136.242 345.141C140.553 345.141 144.047 341.978 144.047 338.075C144.047 334.172 140.553 331.009 136.242 331.009C131.932 331.009 128.438 334.172 128.438 338.075C128.438 341.978 131.932 345.141 136.242 345.141Z" fill="white"/>
</g>
<mask id="mask7_1122_3801" style="mask-type:luminance" maskUnits="userSpaceOnUse" x="107" y="232" width="142" height="160">
<path d="M116.482 236.197H221.079L237.697 232.793C250.452 287.915 252.582 341.047 240.845 391.584H117.664C104.31 339.414 103.728 287.613 116.482 236.197Z" fill="white"/>
</mask>
<g mask="url(#mask7_1122_3801)">
<path d="M178.614 319.566C182.924 319.566 186.419 316.402 186.419 312.5C186.419 308.597 182.924 305.434 178.614 305.434C174.303 305.434 170.809 308.597 170.809 312.5C170.809 316.402 174.303 319.566 178.614 319.566Z" fill="white"/>
</g>
<mask id="mask8_1122_3801" style="mask-type:luminance" maskUnits="userSpaceOnUse" x="107" y="232" width="142" height="160">
<path d="M116.482 236.197H221.079L237.697 232.793C250.452 287.915 252.582 341.047 240.845 391.584H117.664C104.31 339.414 103.728 287.613 116.482 236.197Z" fill="white"/>
</mask>
<g mask="url(#mask8_1122_3801)">
<path d="M220.986 396.29C225.296 396.29 228.791 393.126 228.791 389.224C228.791 385.321 225.296 382.158 220.986 382.158C216.676 382.158 213.181 385.321 213.181 389.224C213.181 393.126 216.676 396.29 220.986 396.29Z" fill="white"/>
</g>
<mask id="mask9_1122_3801" style="mask-type:luminance" maskUnits="userSpaceOnUse" x="107" y="232" width="142" height="160">
<path d="M116.482 236.197H221.079L237.697 232.793C250.452 287.915 252.582 341.047 240.845 391.584H117.664C104.31 339.414 103.728 287.613 116.482 236.197Z" fill="white"/>
</mask>
<g mask="url(#mask9_1122_3801)">
<path d="M136.242 396.29C140.553 396.29 144.047 393.126 144.047 389.224C144.047 385.321 140.553 382.158 136.242 382.158C131.932 382.158 128.438 385.321 128.438 389.224C128.438 393.126 131.932 396.29 136.242 396.29Z" fill="white"/>
</g>
<mask id="mask10_1122_3801" style="mask-type:luminance" maskUnits="userSpaceOnUse" x="107" y="232" width="142" height="160">
<path d="M116.482 236.197H221.079L237.697 232.793C250.452 287.915 252.582 341.047 240.845 391.584H117.664C104.31 339.414 103.728 287.613 116.482 236.197Z" fill="white"/>
</mask>
<g mask="url(#mask10_1122_3801)">
<path d="M178.614 370.715C182.924 370.715 186.419 367.551 186.419 363.649C186.419 359.746 182.924 356.583 178.614 356.583C174.303 356.583 170.809 359.746 170.809 363.649C170.809 367.551 174.303 370.715 178.614 370.715Z" fill="white"/>
</g>
<path d="M150.722 187.568C150.722 187.568 150.722 220.684 150.722 227.429C150.722 234.174 125.532 238.558 125.532 238.558C141.863 268.235 205.992 266.549 221.869 238.558C221.869 238.558 198.402 237.209 196.166 226.754C193.931 216.299 196.166 186.735 196.166 186.735L150.722 187.568Z" fill="#A96556"/>
<path d="M195.781 224.437C194.219 212.512 196.167 186.735 196.167 186.735L150.722 187.568C150.722 187.568 150.722 212.668 150.722 223.613C164.309 235.626 182.078 235.796 195.781 224.437Z" fill="#824836"/>
<path d="M86.8979 163.864C75.8021 172.945 65.2772 182.41 53.8985 191.199C53.0653 191.842 52.159 192.682 52.3422 193.66C52.4518 194.244 52.938 194.708 53.4449 195.082C57.0275 197.729 62.5248 197.739 65.6488 200.826C68.1788 203.325 68.5546 207.326 71.5278 209.387C74.6555 211.555 79.089 210.597 83.0053 210.98C88.8536 211.552 94.1653 215.315 100.015 214.754C100.936 214.666 101.891 214.447 102.558 213.864C103.049 213.435 103.333 212.852 103.605 212.285C105.831 207.651 108.078 202.951 108.914 197.954C109.811 192.597 109.047 187.127 109.446 181.721C109.775 177.265 110.891 172.882 111.245 168.428C111.599 163.974 111.116 159.283 108.518 155.487C106.384 152.369 100.137 148.079 95.7835 150.181C95.7835 150.181 93.7444 158.261 86.8979 163.864Z" fill="#3E2423"/>
<path d="M68.0857 193.573C67.9696 193.573 67.8534 193.532 67.7657 193.451C67.5937 193.291 67.5975 193.035 67.7744 192.88C69.1231 191.69 70.9009 191.127 72.6201 190.583C73.8795 190.185 75.1823 189.772 76.2713 189.119C78.0657 188.042 79.2474 186.384 80.4985 184.628C81.8021 182.798 83.1496 180.907 85.2516 179.758C85.4637 179.643 85.7382 179.705 85.8647 179.895C85.9925 180.086 85.9247 180.335 85.7134 180.45C83.7884 181.502 82.555 183.233 81.2493 185.066C80.0036 186.814 78.7153 188.622 76.765 189.793C75.5829 190.502 74.2264 190.932 72.9153 191.347C71.2131 191.886 69.6052 192.395 68.3979 193.459C68.3107 193.535 68.1982 193.573 68.0857 193.573Z" fill="#2C100F"/>
<path d="M87.6689 204.345C87.6457 204.345 87.6222 204.344 87.5982 204.34C87.3547 204.305 87.1885 204.098 87.2273 203.877C88.1758 198.48 89.9264 193.221 92.4307 188.249C92.5332 188.046 92.7974 187.957 93.0223 188.048C93.2468 188.141 93.3456 188.381 93.2431 188.584C90.7723 193.491 89.0449 198.679 88.1092 204.004C88.0745 204.204 87.8847 204.345 87.6689 204.345Z" fill="#2C100F"/>
<path d="M239.344 144.727C252.782 150.674 265.789 157.133 279.409 162.728C280.406 163.138 281.534 163.718 281.657 164.703C281.73 165.292 281.404 165.86 281.032 166.347C278.398 169.788 273.118 171.174 271.059 174.923C269.392 177.958 270.253 181.898 268.026 184.623C265.683 187.489 261.13 187.679 257.483 189.028C252.038 191.043 248.084 195.99 242.291 196.916C241.379 197.062 240.394 197.091 239.575 196.698C238.972 196.408 238.521 195.919 238.086 195.443C234.531 191.547 230.936 187.593 228.605 183.001C226.106 178.078 225.169 172.63 223.133 167.534C221.455 163.335 219.043 159.403 217.342 155.211C215.641 151.02 214.671 146.391 216.008 142.092C217.106 138.561 221.799 132.875 226.624 133.804C226.624 133.804 231.053 141.058 239.344 144.727Z" fill="#3E2423"/>
<path d="M263.601 171.848C263.538 171.848 263.474 171.836 263.414 171.81C258.082 169.575 252.987 166.831 248.273 163.654C246.441 162.419 244.031 160.49 244.265 158.011C244.286 157.789 244.505 157.625 244.748 157.642C244.994 157.661 245.176 157.857 245.155 158.08C244.959 160.157 247.145 161.886 248.807 163.005C253.472 166.149 258.513 168.864 263.789 171.077C264.013 171.171 264.11 171.411 264.007 171.613C263.931 171.761 263.77 171.848 263.601 171.848Z" fill="#2C100F"/>
<path d="M253.759 184.395C253.657 184.395 253.554 184.364 253.471 184.299C250.831 182.273 247.957 180.476 244.927 178.959L244.405 178.7C242.646 177.829 240.827 176.929 239.662 175.4C239.283 174.904 238.993 174.362 238.711 173.837C238.32 173.107 237.951 172.418 237.374 171.875C237.203 171.714 237.209 171.458 237.386 171.303C237.564 171.149 237.847 171.153 238.018 171.314C238.692 171.949 239.11 172.729 239.515 173.484C239.793 174.004 240.056 174.495 240.396 174.941C241.441 176.311 243.166 177.164 244.833 177.99L245.359 178.252C248.44 179.794 251.364 181.621 254.048 183.682C254.236 183.826 254.259 184.081 254.1 184.252C254.011 184.347 253.886 184.395 253.759 184.395Z" fill="#2C100F"/>
<path d="M228.054 161.254C228.054 161.254 234.434 101.433 214.905 75.1423C188.935 40.1801 100.121 46.814 90.1382 95.2149C82.1473 133.957 103.033 177.397 103.033 177.397L228.054 161.254Z" fill="#3E2423"/>
<path fill-rule="evenodd" clip-rule="evenodd" d="M104.135 163.159C78.5021 160.465 88.4878 195.532 109.689 184.739L104.135 163.159Z" fill="#A96556"/>
<path fill-rule="evenodd" clip-rule="evenodd" d="M222.461 148.349C246.325 139.46 247.223 175.664 223.583 170.483L222.461 148.349Z" fill="#A96556"/>
<path fill-rule="evenodd" clip-rule="evenodd" d="M210.928 95.6295C216.739 107.46 224.59 151.25 225.755 172.382C226.919 193.514 205.96 217.691 173.385 221.769C140.81 225.846 113.391 207.724 108.179 187.099C102.967 166.474 97.0096 122.299 99.451 109.583C101.893 96.8666 205.117 83.7985 210.928 95.6295Z" fill="#A96556"/>
<path d="M101.22 157.325C102.048 165.649 91.134 150.202 81.3414 136.117C71.5487 122.031 79.1629 77.9216 86.646 68.1314C92.0416 61.0723 98.1884 59.7925 104.105 60.5838C115.082 36.2289 145.633 35.6158 162.391 41.4954C179.149 47.3749 194.611 46.8868 203.113 49.196C226.324 55.4997 235.063 90.3634 240.117 102.324C248.98 123.298 226.65 150.918 224.448 144.881C215.553 120.493 188.383 114.605 168.572 114.177C148.76 113.75 125.447 104.013 121.913 106.458C118.38 108.902 98.4729 129.698 101.22 157.325Z" fill="#3E2423"/>
<path d="M213.406 107.626C213.23 107.626 213.062 107.53 212.992 107.373C210.894 102.648 205.848 98.8159 199.148 96.8581C193.469 95.1984 187.332 94.964 181.396 94.7376L180.425 94.7001C173.822 94.4426 167.412 94.0365 161.562 91.9166C159.462 91.1556 157.446 90.1738 155.497 89.2237C153.85 88.4215 152.148 87.5924 150.415 86.9074C139.202 82.4757 125.65 83.93 115.892 90.6099C115.695 90.7439 115.416 90.7094 115.267 90.5312C115.118 90.3531 115.157 90.0993 115.354 89.9649C125.366 83.1109 139.268 81.62 150.773 86.1666C152.538 86.8643 154.258 87.7017 155.92 88.5114C157.847 89.4506 159.84 90.4216 161.894 91.1657C167.613 93.238 173.941 93.6378 180.463 93.8916L181.433 93.929C187.428 94.1581 193.628 94.3947 199.422 96.0881C206.375 98.1196 211.622 102.123 213.82 107.071C213.912 107.278 213.801 107.513 213.572 107.597C213.519 107.617 213.462 107.626 213.406 107.626Z" fill="#2C100F"/>
<path d="M91.9341 121.826C91.7571 121.826 91.5896 121.73 91.5198 121.572C90.267 118.751 91.4991 115.658 92.7531 113.559C93.2811 112.677 93.8827 111.817 94.4644 110.987C95.4311 109.606 96.4312 108.178 97.0779 106.648C97.9982 104.469 98.2173 102.058 98.429 99.727C98.6415 97.3863 98.8611 94.9662 99.779 92.7169C101.77 87.8387 107.169 84.2766 112.908 84.0542C113.157 84.052 113.363 84.2182 113.373 84.4409C113.384 84.6636 113.193 84.8527 112.946 84.862C107.556 85.0705 102.486 88.4155 100.617 92.9965C99.7409 95.1422 99.5263 97.5061 99.3188 99.7928C99.1017 102.181 98.8776 104.65 97.9114 106.936C97.2325 108.542 96.2084 110.005 95.2177 111.419C94.6443 112.238 94.051 113.086 93.5379 113.944C92.3748 115.89 91.2242 118.74 92.3475 121.27C92.4397 121.477 92.3289 121.713 92.0999 121.796C92.0457 121.816 91.9891 121.826 91.9341 121.826Z" fill="#2C100F"/>
<path d="M111.076 74.863C111.035 74.863 110.994 74.8577 110.953 74.8473C110.716 74.7855 110.579 74.5616 110.647 74.3468C111.639 71.2163 112.763 67.6684 115.039 64.807C120.229 58.2799 129.959 56.8631 135.297 56.5995C138.529 56.4393 141.814 56.5393 144.991 56.6343C149.21 56.7624 153.573 56.893 157.81 56.4135C161.233 56.0264 164.725 55.2325 168.101 54.4647C175.062 52.8832 182.262 51.2478 189.2 53.1007C192.568 54.0002 195.586 55.6607 198.505 57.2666C202.885 59.6758 207.849 62.4065 211.018 66.5364C211.159 66.7195 211.108 66.9718 210.906 67.099C210.702 67.2267 210.425 67.1806 210.284 66.9976C207.223 63.0084 202.345 60.3252 198.041 57.9576C195.171 56.3783 192.203 54.7459 188.946 53.8759C182.241 52.0851 175.478 53.621 168.318 55.249C164.915 56.0219 161.397 56.8219 157.92 57.2153C153.613 57.703 149.215 57.5705 144.961 57.4421C141.803 57.3467 138.536 57.2494 135.344 57.4062C130.166 57.6622 120.736 59.0252 115.763 65.2791C113.578 68.0263 112.524 71.3525 111.505 74.5695C111.449 74.7477 111.271 74.863 111.076 74.863Z" fill="#2C100F"/>
<path d="M82.4189 94.5622C82.3577 94.5622 82.2948 94.5506 82.2353 94.5263C82.0108 94.4342 81.9107 94.1946 82.0124 93.9914C82.9059 92.201 83.5203 90.2605 84.1145 88.3843C84.769 86.3177 85.4454 84.181 86.503 82.2016C90.2266 75.2308 98.7805 70.7595 107.312 71.3296C107.558 71.3461 107.743 71.5396 107.724 71.7623C107.706 71.985 107.492 72.1554 107.246 72.1355C99.0708 71.5916 90.8749 75.8747 87.3072 82.5534C86.283 84.4704 85.6174 86.5737 84.9732 88.607C84.3704 90.5113 83.7469 92.4798 82.8261 94.3238C82.7517 94.4735 82.5892 94.5622 82.4189 94.5622Z" fill="#2C100F"/>
<path d="M228.772 122.469C228.699 122.469 228.625 122.452 228.556 122.418C228.341 122.31 228.263 122.063 228.382 121.868C230.725 118.043 230.19 113.32 229.44 108.811C228.844 105.222 228.172 101.588 227.443 98.009C226.936 95.5246 226.419 93.3104 225.217 91.3751C223.494 88.6021 220.528 86.6691 217.639 84.9266C213.842 82.6365 209.707 80.3916 205.203 79.4816C202.62 78.9606 199.913 78.8748 197.295 78.7921L176.735 78.1423C176.488 78.1344 176.295 77.9473 176.304 77.7245C176.313 77.5011 176.531 77.3438 176.766 77.3345L197.326 77.9843C199.985 78.0685 202.733 78.1554 205.397 78.6933C210.044 79.6317 214.265 81.9204 218.134 84.2543C221.114 86.0514 224.175 88.0507 225.995 90.9791C227.265 93.0229 227.8 95.3063 228.321 97.863C229.052 101.451 229.726 105.094 230.323 108.692C231.096 113.338 231.642 118.214 229.163 122.261C229.082 122.393 228.929 122.469 228.772 122.469Z" fill="#2C100F"/>
<path d="M123.887 181.185C130.866 180.312 135.864 175.282 135.05 169.951C134.237 164.62 127.919 161.006 120.94 161.879C113.961 162.752 108.963 167.782 109.777 173.113C110.591 178.445 116.908 182.059 123.887 181.185Z" fill="#A05045"/>
<path d="M133.797 166.826C139.786 166.178 143.795 160.856 142.75 154.939C141.705 149.022 136.003 144.751 130.014 145.399C124.025 146.047 120.016 151.368 121.061 157.285C122.106 163.202 127.808 167.474 133.797 166.826Z" fill="#2F0808"/>
<path d="M117.665 138.045C117.543 138.045 117.418 138.029 117.294 137.997C116.58 137.812 116.167 137.138 116.372 136.492C118.374 130.174 125.196 126.524 130.689 125.806C135.369 125.194 139.382 126.562 141.421 129.467C141.819 130.034 141.634 130.786 141.008 131.146C140.38 131.506 139.55 131.338 139.153 130.772C137.676 128.667 134.731 127.735 131.073 128.214C126.409 128.824 120.629 131.884 118.957 137.162C118.787 137.697 118.25 138.045 117.665 138.045Z" fill="#2F0808"/>
<path d="M208.836 170.556C215.815 169.683 220.813 164.653 220 159.322C219.186 153.99 212.868 150.376 205.889 151.249C198.91 152.123 193.912 157.152 194.726 162.484C195.54 167.815 201.857 171.429 208.836 170.556Z" fill="#A05045"/>
<path d="M195.499 159.105C201.488 158.457 205.496 153.135 204.452 147.218C203.407 141.301 197.705 137.03 191.716 137.678C185.726 138.326 181.718 143.648 182.763 149.565C183.807 155.482 189.509 159.753 195.499 159.105Z" fill="#2F0808"/>
<path d="M201.55 127.544C201.1 127.544 200.66 127.34 200.406 126.968C197.215 122.298 190.735 120.774 186.062 121.331C182.398 121.769 179.842 123.39 179.051 125.778C178.838 126.421 178.09 126.788 177.378 126.594C176.667 126.401 176.263 125.722 176.476 125.079C177.568 121.782 181.02 119.479 185.709 118.918C191.211 118.261 198.872 120.097 202.691 125.687C203.082 126.259 202.887 127.009 202.255 127.362C202.035 127.486 201.791 127.544 201.55 127.544Z" fill="#2F0808"/>
<path d="M164.368 179.545C164.363 179.545 164.359 179.545 164.354 179.545C164.27 179.541 155.956 179.14 155.947 173.288C155.945 172.06 156.793 169.951 157.692 167.719C158.32 166.157 158.97 164.541 159.4 163.078C159.441 162.936 159.601 162.85 159.758 162.889C159.914 162.927 160.008 163.072 159.966 163.214C159.53 164.7 158.875 166.327 158.242 167.9C157.362 170.088 156.531 172.154 156.533 173.287C156.536 175.517 157.84 177.157 160.409 178.16C162.368 178.925 164.36 179.014 164.38 179.015C164.542 179.022 164.667 179.145 164.66 179.292C164.653 179.434 164.523 179.545 164.368 179.545Z" fill="#2F0808"/>
<path d="M186.789 184.52C187.268 187.66 184.723 197.629 170.359 199.831C155.994 202.034 148.862 193.309 148.328 189.812C147.411 183.807 185.976 179.203 186.789 184.52Z" fill="#A03C3C"/>
<path d="M184.632 182.911C177.097 180.661 152.234 183.959 148.741 188.535C160.591 189.859 173.957 187.418 184.632 182.911Z" fill="white"/>
<path d="M225.802 230.658C231.526 229.271 268.158 221.119 283.473 243.532C294.719 259.99 288.315 319.16 288.315 391.583H225.801C230.105 327.314 239.332 241.256 225.802 230.658Z" fill="#9293C2"/>
<path d="M123.018 233.499C114.86 273.929 125.422 334.863 131.91 392.595H76.7841C76.7841 392.595 75.3416 278.767 79.1561 260.188C82.9711 241.608 106.442 236.112 123.018 233.499Z" fill="#9293C2"/>
<path d="M76.7843 393C76.54 393 76.3407 392.822 76.3378 392.6C76.3328 392.21 75.8479 353.211 76.1985 317.56C76.2005 317.338 76.4002 317.159 76.645 317.159C76.6462 317.159 76.6475 317.159 76.6491 317.159C76.896 317.161 77.0936 317.344 77.0915 317.568C76.7413 353.21 77.2259 392.201 77.2308 392.591C77.2337 392.815 77.0361 392.998 76.7893 393C76.7876 393 76.7856 393 76.7843 393Z" fill="#6364A8"/>
</svg>
