<svg width="1440" height="4835" viewBox="0 0 1440 4835" fill="none" xmlns="http://www.w3.org/2000/svg">
<path opacity="0.6" d="M16.0029 646.117C111.539 664.404 212.017 651.703 302.447 611.169C410.71 562.644 513.201 468.945 569.638 361.582C585.418 331.563 646.97 221.867 604.76 181.79C554.478 134.05 331.633 369.699 304.101 403.483C192.81 540.044 81.7419 698.545 35.3389 873.08C-0.357063 1007.34 19.1109 1152.94 104.275 1262.37C228.358 1421.82 407.446 1444.37 584.756 1371.39C766.867 1296.44 906.055 1126.25 1004.48 955.264C1043.25 887.901 1140.8 727.925 1085.79 651.481C1009.77 545.826 820.879 778.485 779.328 834.853C690.289 955.641 606.324 1091.49 562.86 1237.41C522.018 1374.52 519.37 1577.58 655.481 1661.91C831.434 1770.92 1045.45 1609.23 1156.46 1472.44C1168.15 1458.05 1179.32 1443.2 1189.78 1427.82C1211.05 1396.54 1231.28 1363.88 1249.57 1330.63C1266.67 1299.54 1281.9 1266.1 1287.28 1230.44C1289.45 1216.06 1293.35 1194.9 1283.91 1182.47C1271.64 1166.3 1253.29 1173.59 1238.29 1180.67C1205.76 1196.03 1178.39 1221.13 1153.94 1247.72C1102.93 1303.21 1056.66 1365.34 1017.65 1430.43C929.538 1577.44 892.65 1770.17 1007 1915.88C1103 2038.22 1273.18 2096.93 1416.53 2033.94C1424.18 2030.58 1431.8 2027.07 1439.36 2023.4" stroke="white" stroke-width="12.6394" stroke-miterlimit="10"/>
<path opacity="0.6" d="M60.0029 3098.5C155.539 3116.78 256.017 3104.08 346.447 3063.55C454.71 3015.02 557.201 2921.32 613.638 2813.96C629.418 2783.94 690.97 2674.25 648.76 2634.17C598.478 2586.43 375.633 2822.08 348.101 2855.86C236.81 2992.42 125.742 3150.93 79.3389 3325.46C43.6429 3459.72 63.1109 3605.32 148.275 3714.75C272.358 3874.2 451.446 3896.75 628.756 3823.77C810.867 3748.82 950.055 3578.63 1048.48 3407.64C1087.25 3340.28 1184.8 3180.31 1129.79 3103.86C1053.77 2998.21 864.879 3230.87 823.328 3287.23C734.289 3408.02 650.324 3543.87 606.86 3689.79C566.018 3826.9 563.37 4029.96 699.481 4114.29C875.434 4223.3 1089.45 4061.61 1200.46 3924.82C1212.15 3910.43 1223.32 3895.58 1233.78 3880.2C1255.05 3848.92 1275.28 3816.26 1293.57 3783.01C1310.67 3751.91 1325.9 3718.48 1331.28 3682.82C1333.45 3668.44 1337.35 3647.28 1327.91 3634.85C1315.64 3618.68 1297.29 3625.97 1282.29 3633.05C1249.76 3648.41 1222.39 3673.51 1197.94 3700.1C1146.93 3755.59 1100.66 3817.72 1061.65 3882.81C973.538 4029.82 936.65 4222.55 1051 4368.26C1147 4490.6 1317.18 4549.31 1460.53 4486.32C1468.18 4482.96 1475.8 4479.45 1483.36 4475.78" stroke="white" stroke-width="12.6394" stroke-miterlimit="10"/>
<path opacity="0.6" d="M434.025 2382.32C651.424 2382.32 827.661 2199.5 827.661 1973.97C827.661 1748.44 651.424 1565.62 434.025 1565.62C216.626 1565.62 40.389 1748.44 40.389 1973.97C40.389 2199.5 216.626 2382.32 434.025 2382.32Z" fill="white"/>
<path opacity="0.6" d="M478.025 4834.7C695.424 4834.7 871.661 4651.88 871.661 4426.35C871.661 4200.82 695.424 4018 478.025 4018C260.626 4018 84.389 4200.82 84.389 4426.35C84.389 4651.88 260.626 4834.7 478.025 4834.7Z" fill="white"/>
<path opacity="0.6" d="M1256.76 1109.63C1342.21 1109.63 1411.48 1037.77 1411.48 949.122C1411.48 860.476 1342.21 788.614 1256.76 788.614C1171.31 788.614 1102.04 860.476 1102.04 949.122C1102.04 1037.77 1171.31 1109.63 1256.76 1109.63Z" fill="white"/>
<path opacity="0.6" d="M1300.76 3562.01C1386.21 3562.01 1455.48 3490.15 1455.48 3401.5C1455.48 3312.86 1386.21 3240.99 1300.76 3240.99C1215.31 3240.99 1146.04 3312.86 1146.04 3401.5C1146.04 3490.15 1215.31 3562.01 1300.76 3562.01Z" fill="white"/>
<path opacity="0.6" d="M282.916 1121.12C385.538 1121.12 468.73 1034.82 468.73 928.364C468.73 821.905 385.538 735.603 282.916 735.603C180.294 735.603 97.102 821.905 97.102 928.364C97.102 1034.82 180.294 1121.12 282.916 1121.12Z" fill="white"/>
<path opacity="0.6" d="M326.916 3573.5C429.538 3573.5 512.73 3487.2 512.73 3380.74C512.73 3274.28 429.538 3187.98 326.916 3187.98C224.294 3187.98 141.102 3274.28 141.102 3380.74C141.102 3487.2 224.294 3573.5 326.916 3573.5Z" fill="white"/>
<path opacity="0.6" d="M992.695 584.401C1169.52 584.401 1312.87 435.697 1312.87 252.261C1312.87 68.8254 1169.52 -79.8787 992.695 -79.8787C815.87 -79.8787 672.525 68.8254 672.525 252.261C672.525 435.697 815.87 584.401 992.695 584.401Z" fill="white"/>
<path opacity="0.6" d="M1036.7 3036.78C1213.52 3036.78 1356.87 2888.08 1356.87 2704.64C1356.87 2521.21 1213.52 2372.5 1036.7 2372.5C859.87 2372.5 716.525 2521.21 716.525 2704.64C716.525 2888.08 859.87 3036.78 1036.7 3036.78Z" fill="white"/>
<path opacity="0.6" d="M1332.18 1878.87C1400.31 1808.18 1400.31 1693.58 1332.18 1622.9C1264.04 1552.21 1153.57 1552.21 1085.43 1622.9C1017.29 1693.58 1017.29 1808.18 1085.43 1878.87C1153.57 1949.55 1264.04 1949.55 1332.18 1878.87Z" fill="white"/>
<path opacity="0.6" d="M1376.18 4331.25C1444.31 4260.56 1444.31 4145.96 1376.18 4075.28C1308.04 4004.59 1197.57 4004.59 1129.43 4075.28C1061.29 4145.96 1061.29 4260.56 1129.43 4331.25C1197.57 4401.93 1308.04 4401.93 1376.18 4331.25Z" fill="white"/>
<path opacity="0.6" d="M160.067 379.338C266.695 379.338 353.134 289.667 353.134 179.053C353.134 68.4384 266.695 -21.2322 160.067 -21.2322C53.439 -21.2322 -33 68.4384 -33 179.053C-33 289.667 53.439 379.338 160.067 379.338Z" fill="white"/>
<path opacity="0.6" d="M204.067 2831.72C310.695 2831.72 397.134 2742.05 397.134 2631.43C397.134 2520.82 310.695 2431.15 204.067 2431.15C97.439 2431.15 11 2520.82 11 2631.43C11 2742.05 97.439 2831.72 204.067 2831.72Z" fill="white"/>
</svg>
