<svg width="470" height="590" viewBox="0 0 470 590" fill="none" xmlns="http://www.w3.org/2000/svg">
<path d="M453.219 362.598C417.049 345.515 325.15 328.729 288.544 325.517C279.529 324.726 270.455 324.997 261.485 326.226L199.536 334.709C187.837 336.311 175.459 338.209 166.374 346.023C162.578 349.288 159.412 353.846 159.293 358.96C159.168 364.293 162.395 369.179 166.389 372.541C171.633 376.956 178.407 379.374 185.16 379.241C203.617 379.512 233.813 378.908 251.299 376.814C240.005 395.577 221.536 417.451 202.049 429.464C198.211 431.83 194.038 433.54 189.707 434.663C172.022 439.247 151.113 445.311 131.505 447.891C109.802 447.369 88.0776 447.766 66.405 449.08C58.8256 449.539 49.7996 451.054 47.3829 459.105C46.3004 462.711 47.0602 466.611 49.0039 469.804C52.977 476.333 60.5498 480.032 67.1914 482.536C63.7435 482.219 60.2965 481.889 56.8526 481.53C47.6318 480.568 38.0674 479.49 29.3009 482.608C26.0261 483.773 22.7619 485.693 21.1839 488.89C19.113 493.084 20.5879 498.409 23.5439 501.987C26.4994 505.566 33.5422 510.286 37.5958 512.414L37.6078 512.411C37.9288 515.821 39.7154 519.07 42.6873 521.042C46.5554 523.609 53.3958 527.817 57.5252 530.081C58.5653 533.657 61.0032 536.85 64.6153 538.595C89.978 550.852 140.036 578.454 154.188 586.296C156.756 587.719 159.63 588.404 162.541 588.336C194.642 587.579 225.738 581.91 257.643 577.395C319.419 565.2 422.048 504.258 468.117 449.1L453.219 362.598Z" fill="#FAF2E6"/>
<path d="M141.697 520.28L180.922 515.666C167.902 516.378 154.927 518.019 141.697 520.28Z" fill="#FF6400"/>
<path d="M141.697 520.28L130.162 521.637C131.785 521.807 133.432 521.758 135.063 521.456C137.283 521.047 139.492 520.658 141.697 520.28Z" fill="#FF6400"/>
<path d="M212.021 537.791C194.131 534.653 175.754 534.538 156.346 537.054C149.025 538.003 141.57 536.626 135.179 532.802C121.199 524.438 106.311 517.706 90.885 512.786C81.7815 509.883 71.0823 507.861 61.5276 516.124C61.2673 516.349 61.0149 516.582 60.7709 516.824C54.2497 523.287 56.4392 534.644 64.6142 538.595C89.9768 550.852 140.034 578.454 154.187 586.295C156.755 587.718 159.629 588.404 162.54 588.335C194.641 587.578 225.737 581.909 257.643 577.395C319.418 565.199 422.047 504.257 468.117 449.1" stroke="black" stroke-width="2.2" stroke-miterlimit="10" stroke-linecap="round" stroke-linejoin="round"/>
<path d="M180.922 515.667C165.733 516.497 150.607 518.585 135.063 521.457C130.959 522.215 126.742 521.439 123.098 519.34C104.633 508.703 84.2726 501.612 63.3563 498.563C57.1384 497.657 50.4989 497.169 44.8642 500.043C42.5772 501.21 40.5692 503.12 39.1537 505.467C35.987 510.717 37.6571 517.705 42.6866 521.043C46.6003 523.64 53.5612 527.92 57.6737 530.163" stroke="black" stroke-width="2.2" stroke-miterlimit="10" stroke-linecap="round" stroke-linejoin="round"/>
<path d="M184.139 483.967C164.14 484.255 144.146 484.956 122.794 485.788C100.772 485.238 78.7697 483.817 56.8519 481.53C47.6311 480.568 38.0667 479.49 29.3001 482.608C26.0258 483.773 22.7608 485.694 21.1832 488.89C19.1123 493.085 20.5872 498.409 23.5432 501.988C26.4987 505.566 33.5415 510.286 37.5951 512.414" stroke="black" stroke-width="2.2" stroke-miterlimit="10" stroke-linecap="round" stroke-linejoin="round"/>
<path d="M67.2177 482.546C60.5699 480.043 52.982 476.342 49.0037 469.805C47.0599 466.61 46.3001 462.711 47.3827 459.105C49.7993 451.054 58.8253 449.539 66.4048 449.08C88.0773 447.766 109.801 447.369 131.505 447.891C151.113 445.311 172.022 439.247 189.707 434.663C194.038 433.541 198.211 431.83 202.05 429.464C221.535 417.451 240.005 395.578 251.299 376.814C233.813 378.908 203.617 379.512 185.16 379.241C178.407 379.374 171.634 376.956 166.388 372.541C162.395 369.18 159.168 364.293 159.293 358.96C159.412 353.846 162.578 349.288 166.374 346.023C175.458 338.209 187.837 336.311 199.536 334.709L261.485 326.226C270.455 324.997 279.528 324.725 288.544 325.517C325.15 328.729 414.076 344.433 453.219 362.598" stroke="black" stroke-width="2.2" stroke-miterlimit="10" stroke-linecap="round" stroke-linejoin="round"/>
<path d="M337.628 417.003C306.986 434.874 282.505 463.857 269.454 497.718" stroke="black" stroke-width="2.2" stroke-miterlimit="10" stroke-linecap="round" stroke-linejoin="round"/>
<path d="M374.49 179.152C370.492 173.658 367.202 167.655 363.859 161.686C363.135 160.062 362.282 158.529 361.287 157.153L361.283 157.158C359.999 154.936 358.683 152.735 357.287 150.591C351.231 141.287 343.215 132.661 332.972 129.634C324.654 127.175 315.788 128.664 307.299 127.046C299.918 125.638 292.933 122.283 285.79 119.815C285.42 119.686 285.045 119.564 284.67 119.444C284.668 119.443 284.666 119.442 284.665 119.441L284.666 119.442C278.183 117.361 271.044 116.485 264.981 119.264L265.051 119.049C264.918 119.17 264.791 119.299 264.659 119.422C264.417 119.538 264.174 119.648 263.936 119.776L264.041 120.009C263.807 120.236 263.573 120.461 263.343 120.694L263.697 119.956C255.917 118.536 246.117 120.163 238.821 123.187C215.739 132.754 169.374 175.231 213.591 224.586L213.616 224.534C206.234 245.199 215.522 277.247 234.081 287.676C215.74 304.971 224.374 332.926 243.545 342.523L243.154 343.738C231.096 368.556 242.244 390.8 258.921 394.096L258.721 394.94C252.381 406.742 251.764 429.18 255.904 447.32C258.604 459.147 261.585 471.546 269.425 480.508C272.778 484.341 277.504 487.541 282.323 486.696C287.311 485.821 290.748 480.904 292.516 475.9C294.285 470.897 294.94 465.448 297.171 460.663C301.621 451.12 311.828 445.258 314.748 435.053C315.317 433.065 315.551 430.977 315.481 428.893L316.01 428.673C329.693 423.804 340.419 410.829 343.189 395.797C344.199 390.311 344.245 384.529 346.347 379.419C350.652 368.949 362.499 363.739 366.703 353.222C367.197 351.986 367.564 350.706 367.819 349.399L367.82 349.401C371.782 331.141 391.436 320.981 396.533 303.058C400.821 287.982 394.909 271.804 395.881 256.042C396.286 249.463 398.102 243.013 399.42 236.557C399.936 234.423 400.316 232.25 400.506 230.044L400.498 230.048C400.872 226.872 400.981 223.685 400.577 220.47C398.498 203.871 384.194 192.484 374.49 179.152Z" fill="#FF91AA"/>
<path d="M229.357 402.344L228.873 401.631C242.164 390.733 242.192 365.722 220.537 349.44L219.102 349.286C232.57 331.714 228.082 302.038 203.798 295.311C215.674 277.208 209.747 244.31 194.046 229.465L194.093 229.501C211.546 164.6 151.561 148.933 126.82 151.422C119 152.208 109.573 155.428 103.289 160.394L103.93 160.882C103.624 160.784 103.315 160.695 103.007 160.606L102.998 160.348C102.729 160.347 102.464 160.366 102.197 160.377C102.026 160.331 101.856 160.277 101.684 160.233L101.841 160.39C95.2261 160.809 89.2703 164.986 84.4317 169.92L84.4312 169.918C84.4308 169.92 84.4299 169.921 84.429 169.923C84.1483 170.209 83.8698 170.496 83.597 170.786C78.3431 176.381 73.6204 182.687 67.6854 187.451C60.86 192.931 52.3233 195.829 46.0208 201.973C38.259 209.54 34.9528 221.019 33.6882 232.168C33.3969 234.738 33.2012 237.32 33.0426 239.906L33.0378 239.903C32.7619 241.598 32.6822 243.366 32.7575 245.154C32.4272 252.049 32.1606 258.949 31.0382 265.734C28.3147 282.199 20.6431 299.126 26.1371 314.864C27.2015 317.913 28.7074 320.694 30.4449 323.337H30.436C31.5815 325.205 32.8793 326.956 34.2829 328.606C38.3086 333.714 42.7762 338.58 46.047 344.233C53.8832 357.774 55.7872 374.963 66.2659 386.316C78.7243 399.814 100.681 399.484 112.278 413.822V413.819C113.083 414.859 113.976 415.822 114.962 416.685C123.349 424.027 136.179 423.017 144.636 430.268C148.764 433.808 151.363 438.924 154.688 443.317C163.799 455.354 179.068 461.775 193.379 459.587L193.95 459.538C194.809 461.421 195.94 463.161 197.323 464.655C204.431 472.332 216.094 472.68 224.269 479.041C228.368 482.231 231.361 486.76 235.146 490.363C238.931 493.966 244.16 496.7 248.978 495.102C253.634 493.558 256.417 488.466 257.701 483.464C260.702 471.77 257.866 459.333 255.032 447.541C250.686 429.452 240.211 409.811 229.357 402.344Z" fill="#FF91AA"/>
<mask id="mask0_1004_274" style="mask-type:luminance" maskUnits="userSpaceOnUse" x="24" y="117" width="377" height="379">
<path d="M400.578 220.47C400.982 223.685 400.874 226.873 400.499 230.048L400.508 230.044C400.316 232.25 399.937 234.423 399.421 236.557C398.104 243.013 396.288 249.463 395.882 256.042C394.91 271.804 400.822 287.982 396.535 303.058C391.437 320.982 371.783 331.141 367.821 349.401L367.821 349.399C367.566 350.706 367.198 351.986 366.704 353.222C362.5 363.739 350.654 368.949 346.349 379.419C344.247 384.529 344.201 390.311 343.19 395.797C340.42 410.83 329.694 423.804 316.011 428.673L315.482 428.893C315.553 430.977 315.318 433.065 314.749 435.053C311.829 445.258 301.622 451.12 297.173 460.663C294.941 465.449 294.286 470.898 292.518 475.901C290.748 480.904 287.312 485.822 282.324 486.696C277.505 487.541 272.779 484.342 269.426 480.508C261.587 471.547 258.605 459.147 255.905 447.321C251.765 429.18 252.382 406.742 258.722 394.941L258.923 394.096C242.245 390.801 231.097 368.557 243.155 343.738L243.546 342.523C224.374 332.927 215.742 304.971 234.082 287.676C215.523 277.247 206.236 245.199 213.618 224.534L213.592 224.586C169.375 175.231 215.74 132.754 238.822 123.187C246.118 120.163 255.918 118.535 263.698 119.956L263.345 120.694C263.573 120.461 263.808 120.236 264.042 120.009L263.936 119.777C264.174 119.648 264.417 119.538 264.659 119.422C264.791 119.299 264.918 119.17 265.051 119.049L264.981 119.264C271.044 116.486 278.183 117.362 284.666 119.443L284.665 119.441C284.666 119.442 284.668 119.443 284.67 119.444C285.045 119.565 285.42 119.686 285.79 119.815C292.933 122.284 299.919 125.638 307.299 127.046C315.788 128.665 324.654 127.175 332.972 129.634C343.216 132.662 351.231 141.287 357.287 150.591C358.683 152.736 359.999 154.936 361.283 157.159L361.287 157.154C362.282 158.529 363.135 160.062 363.859 161.686C367.202 167.655 370.492 173.658 374.49 179.152C384.194 192.484 398.498 203.871 400.578 220.47ZM229.357 402.344L228.873 401.631C242.164 390.733 242.192 365.722 220.537 349.44L219.102 349.286C232.57 331.714 228.082 302.038 203.798 295.311C215.674 277.208 209.747 244.31 194.046 229.465L194.093 229.501C211.546 164.6 151.561 148.933 126.82 151.422C119 152.208 109.573 155.428 103.289 160.394L103.93 160.882C103.624 160.784 103.315 160.695 103.007 160.606L102.998 160.348C102.729 160.347 102.464 160.366 102.197 160.377C102.026 160.331 101.856 160.277 101.684 160.233L101.841 160.39C95.226 160.809 89.2703 164.986 84.4316 169.92L84.4312 169.918C84.4307 169.92 84.4298 169.921 84.429 169.923C84.1482 170.209 83.8697 170.496 83.597 170.786C78.343 176.381 73.6203 182.687 67.6854 187.451C60.86 192.931 52.3233 195.829 46.0208 201.973C38.2589 209.54 34.9527 221.019 33.6881 232.168C33.3968 234.738 33.2011 237.32 33.0426 239.906L33.0377 239.903C32.7619 241.598 32.6822 243.366 32.7574 245.154C32.4271 252.049 32.1606 258.949 31.0381 265.734C28.3146 282.199 20.6431 299.126 26.137 314.864C27.2015 317.913 28.7074 320.694 30.4448 323.337H30.436C31.5814 325.205 32.8792 326.956 34.2828 328.606C38.3085 333.714 42.7761 338.58 46.0469 344.233C53.8832 357.774 55.7871 374.963 66.2658 386.316C78.7242 399.814 100.681 399.484 112.278 413.822V413.819C113.083 414.859 113.976 415.822 114.962 416.685C123.349 424.027 136.179 423.017 144.636 430.268C148.764 433.808 151.362 438.924 154.688 443.317C163.799 455.354 179.068 461.775 193.379 459.587L193.95 459.538C194.809 461.421 195.94 463.161 197.323 464.655C204.431 472.332 216.094 472.68 224.269 479.041C228.368 482.231 231.361 486.76 235.145 490.363C238.931 493.966 244.159 496.7 248.978 495.102C253.634 493.558 256.417 488.466 257.701 483.464C260.702 471.77 257.866 459.333 255.032 447.541C250.686 429.452 240.211 409.811 229.357 402.344Z" fill="white"/>
</mask>
<g mask="url(#mask0_1004_274)">
<path d="M244.184 343.441C254.588 348.629 267.995 348.571 281.941 338.912" stroke="black" stroke-width="2.2" stroke-miterlimit="10" stroke-linecap="round" stroke-linejoin="round"/>
<path d="M258.861 396.331C269.961 399.123 283.685 393.679 294.9 375.241" stroke="black" stroke-width="2.2" stroke-miterlimit="10" stroke-linecap="round" stroke-linejoin="round"/>
<path d="M233.907 286.591C239.885 290.096 246.818 291.416 254.467 289.488" stroke="black" stroke-width="2.2" stroke-miterlimit="10" stroke-linecap="round" stroke-linejoin="round"/>
<path d="M232.016 203.781C222.655 206.141 216.635 212.737 213.449 221.302" stroke="black" stroke-width="2.2" stroke-miterlimit="10" stroke-linecap="round" stroke-linejoin="round"/>
<path d="M201.815 152.783C205.831 149.482 210.425 146.791 215.46 145.883C220.494 144.974 226.016 146.022 230.008 149.482C234.369 153.261 236.346 159.23 239.56 164.129C244.806 172.124 253.209 177.068 259.745 183.922C267.784 192.351 272.94 203.984 273.174 215.875C273.408 227.767 268.509 239.734 259.738 247.015C250.966 254.296 238.411 256.447 228.003 251.826" stroke="black" stroke-width="2.2" stroke-miterlimit="10" stroke-linecap="round" stroke-linejoin="round"/>
<path d="M261.079 246.07C257.178 254.55 258.577 265.521 264.481 272.753" stroke="black" stroke-width="2.2" stroke-miterlimit="10" stroke-linecap="round" stroke-linejoin="round"/>
<path d="M304.487 187.563C295.978 177.701 292.324 163.955 295.192 151.092C296.97 143.118 300.947 123.611 286.536 113.427" stroke="black" stroke-width="2.2" stroke-miterlimit="10" stroke-linecap="round" stroke-linejoin="round"/>
<path d="M266.315 113.023C262.072 116.859 258.504 121.636 256.498 127.164C254.493 132.693 254.131 139.004 256.039 144.633" stroke="black" stroke-width="2.2" stroke-miterlimit="10" stroke-linecap="round" stroke-linejoin="round"/>
<path d="M295.701 148.885C291.469 163.813 280.538 172.901 266.245 176.639" stroke="black" stroke-width="2.2" stroke-miterlimit="10" stroke-linecap="round" stroke-linejoin="round"/>
<path d="M291.188 198.268C286.384 203.236 284.543 210.732 284.652 217.897C284.761 225.063 286.593 232.081 288.171 239.074C289.748 246.067 291.088 253.28 290.196 260.368C289.2 268.286 285.502 275.451 283.116 283.008C280.729 290.564 279.81 299.451 284.002 306.178" stroke="black" stroke-width="2.2" stroke-miterlimit="10" stroke-linecap="round" stroke-linejoin="round"/>
<path d="M328.281 253.498C316.544 246.702 301.288 247.594 290.54 255.707" stroke="black" stroke-width="2.2" stroke-miterlimit="10" stroke-linecap="round" stroke-linejoin="round"/>
<path d="M328.269 217.345C328.245 211.023 332.271 205.423 337.16 201.874C342.049 198.325 347.797 196.378 353.261 193.92C358.725 191.462 364.173 188.264 367.475 183.051C371.227 177.127 371.767 168.811 369.783 161.468" stroke="black" stroke-width="2.2" stroke-miterlimit="10" stroke-linecap="round" stroke-linejoin="round"/>
<path d="M326.371 171.749C338.942 172.243 352.359 179.273 361.511 188.553" stroke="black" stroke-width="2.2" stroke-miterlimit="10" stroke-linecap="round" stroke-linejoin="round"/>
<path d="M318.305 432.361C318.132 427.82 316.533 423.304 313.714 419.828C309.542 414.685 302.837 411.985 296.558 412.921" stroke="black" stroke-width="2.2" stroke-miterlimit="10" stroke-linecap="round" stroke-linejoin="round"/>
<path d="M295.725 395.644C298.574 409.202 295.172 423.979 286.786 434.466" stroke="black" stroke-width="2.2" stroke-miterlimit="10" stroke-linecap="round" stroke-linejoin="round"/>
<path d="M372.71 345.14C372.622 341.124 371.637 337.074 369.973 333.429C366.985 326.886 361.99 321.54 356.433 317.26" stroke="black" stroke-width="2.2" stroke-miterlimit="10" stroke-linecap="round" stroke-linejoin="round"/>
<path d="M351.357 378.914C348.219 384.181 342.939 388.262 337.334 390.191C331.729 392.12 322.635 392.629 317.833 389.167" stroke="black" stroke-width="2.2" stroke-miterlimit="10" stroke-linecap="round" stroke-linejoin="round"/>
<path d="M331.937 371.6C326.215 383.571 315.769 392.854 303.626 396.76" stroke="black" stroke-width="2.2" stroke-miterlimit="10" stroke-linecap="round" stroke-linejoin="round"/>
<path d="M263.22 307.777C267.929 357.94 312.617 340.34 321.908 314.287C325.795 303.386 325.565 291.17 323.243 279.683" stroke="black" stroke-width="2.2" stroke-miterlimit="10" stroke-linecap="round" stroke-linejoin="round"/>
<path d="M300.951 336.626C309.436 342.53 315.99 351.525 319.218 361.695" stroke="black" stroke-width="2.2" stroke-miterlimit="10" stroke-linecap="round" stroke-linejoin="round"/>
<path d="M349.596 324.363C353.13 317.374 360.564 312.683 368.324 312.547" stroke="black" stroke-width="2.2" stroke-miterlimit="10" stroke-linecap="round" stroke-linejoin="round"/>
<path d="M402.679 240.905C398.455 251.239 390.667 259.984 381.11 264.926C367.609 271.908 350.625 270.911 337.714 262.38" stroke="black" stroke-width="2.2" stroke-miterlimit="10" stroke-linecap="round" stroke-linejoin="round"/>
<path d="M380.738 265.113C371.793 263.174 364.142 255.392 361.945 245.998" stroke="black" stroke-width="2.2" stroke-miterlimit="10" stroke-linecap="round" stroke-linejoin="round"/>
<path d="M277.725 365.256C283.561 366.644 288.967 369.513 293.695 373.297C297.061 375.991 300.846 380.669 302.241 384.942" stroke="black" stroke-width="2.2" stroke-miterlimit="10" stroke-linecap="round" stroke-linejoin="round"/>
<path d="M219.199 350.06C212.211 359.402 200.374 365.533 183.94 363.617" stroke="black" stroke-width="2.2" stroke-miterlimit="10" stroke-linecap="round" stroke-linejoin="round"/>
<path d="M229.524 403.931C220.857 411.45 206.394 412.969 188.498 402.064" stroke="black" stroke-width="2.2" stroke-miterlimit="10" stroke-linecap="round" stroke-linejoin="round"/>
<path d="M203.731 293.846C199.969 300.014 194.313 304.652 186.486 306.625" stroke="black" stroke-width="2.2" stroke-miterlimit="10" stroke-linecap="round" stroke-linejoin="round"/>
<path d="M172.792 160.1C167.764 159.078 162.492 158.875 157.616 160.465C152.741 162.054 148.299 165.614 146.283 170.589C144.08 176.022 144.964 182.266 144.275 188.149C143.151 197.751 137.873 206.144 135.098 215.345C131.684 226.661 132.249 239.451 137.302 250.128C142.354 260.806 152.001 269.105 163.015 271.399C174.029 273.692 186.136 269.626 193.339 260.564" stroke="black" stroke-width="2.2" stroke-miterlimit="10" stroke-linecap="round" stroke-linejoin="round"/>
<path d="M161.405 271.197C168.622 276.874 172.233 287.288 170.186 296.524" stroke="black" stroke-width="2.2" stroke-miterlimit="10" stroke-linecap="round" stroke-linejoin="round"/>
<path d="M96.9555 239.88C100.154 227.066 97.3181 213.114 89.0803 203.052C83.9729 196.813 71.8107 181.375 80.1088 165.465" stroke="black" stroke-width="2.2" stroke-miterlimit="10" stroke-linecap="round" stroke-linejoin="round"/>
<path d="M97.896 155.48C103.362 156.869 108.646 159.414 112.874 163.371C117.102 167.328 120.215 172.763 121.01 178.673" stroke="black" stroke-width="2.2" stroke-miterlimit="10" stroke-linecap="round" stroke-linejoin="round"/>
<path d="M87.6514 201.333C98.0146 212.581 111.747 215.451 126.1 211.968" stroke="black" stroke-width="2.2" stroke-miterlimit="10" stroke-linecap="round" stroke-linejoin="round"/>
<path d="M113.507 243.061C119.974 245.187 124.926 250.97 127.999 257.389C131.072 263.807 132.548 270.915 134.24 277.879C135.932 284.843 137.933 291.889 141.861 297.762C146.248 304.323 152.703 308.929 158.166 314.506C163.63 320.084 168.377 327.542 167.628 335.514" stroke="black" stroke-width="2.2" stroke-miterlimit="10" stroke-linecap="round" stroke-linejoin="round"/>
<path d="M104.983 309.79C112.405 298.164 126.355 291.694 139.493 293.785" stroke="black" stroke-width="2.2" stroke-miterlimit="10" stroke-linecap="round" stroke-linejoin="round"/>
<path d="M89.0006 277.663C86.2253 272.034 80.1708 268.976 74.2571 268.15C68.3438 267.324 62.3747 268.331 56.4331 268.748C50.4915 269.166 44.2364 268.918 38.9957 265.858C30.3116 260.787 25.4463 247.942 27.1258 237.615" stroke="black" stroke-width="2.2" stroke-miterlimit="10" stroke-linecap="round" stroke-linejoin="round"/>
<path d="M70.5169 236.248C59.5662 242.672 50.7554 255.306 46.7288 267.907" stroke="black" stroke-width="2.2" stroke-miterlimit="10" stroke-linecap="round" stroke-linejoin="round"/>
<path d="M192.628 463.15C191.048 459.223 190.602 454.78 191.507 450.636C192.938 444.081 197.701 438.489 203.693 436.331" stroke="black" stroke-width="2.2" stroke-miterlimit="10" stroke-linecap="round" stroke-linejoin="round"/>
<path d="M196.791 420.585C200.257 433.987 209.817 445.496 221.907 450.821" stroke="black" stroke-width="2.2" stroke-miterlimit="10" stroke-linecap="round" stroke-linejoin="round"/>
<path d="M106.949 414.101C104.674 410.088 103.456 405.347 103.301 400.655C103.061 393.418 105.134 386.291 108.178 379.842" stroke="black" stroke-width="2.2" stroke-miterlimit="10" stroke-linecap="round" stroke-linejoin="round"/>
<path d="M139.962 432.205C145.08 435.392 151.576 436.503 157.41 435.549C163.243 434.594 171.548 430.717 174.283 425.355" stroke="black" stroke-width="2.2" stroke-miterlimit="10" stroke-linecap="round" stroke-linejoin="round"/>
<path d="M153.981 416.461C164.36 424.373 177.748 427.648 190.264 425.337" stroke="black" stroke-width="2.2" stroke-miterlimit="10" stroke-linecap="round" stroke-linejoin="round"/>
<path d="M186.801 327.042C204.808 373.852 157.318 379.49 137.537 360.765C129.261 352.931 124.061 341.968 121.043 330.656" stroke="black" stroke-width="2.2" stroke-miterlimit="10" stroke-linecap="round" stroke-linejoin="round"/>
<path d="M166.04 370.636C161.112 379.922 159.268 391.033 160.899 401.605" stroke="black" stroke-width="2.2" stroke-miterlimit="10" stroke-linecap="round" stroke-linejoin="round"/>
<path d="M117.394 382.899C111.163 378.372 102.483 377.744 95.528 381.316" stroke="black" stroke-width="2.2" stroke-miterlimit="10" stroke-linecap="round" stroke-linejoin="round"/>
<path d="M24.4439 323.629C32.7118 337.119 48.016 345.319 63.1009 345.094C78.1858 344.87 92.8346 335.899 100.531 322.172" stroke="black" stroke-width="2.2" stroke-miterlimit="10" stroke-linecap="round" stroke-linejoin="round"/>
<path d="M63.5144 345.083C70.6046 339.101 73.96 328.545 71.7554 319.153" stroke="black" stroke-width="2.2" stroke-miterlimit="10" stroke-linecap="round" stroke-linejoin="round"/>
<path d="M199.341 385.016C194.77 389.028 191.236 394.151 188.709 399.763C186.91 403.759 185.616 409.717 186.268 414.178" stroke="black" stroke-width="2.2" stroke-miterlimit="10" stroke-linecap="round" stroke-linejoin="round"/>
</g>
<path d="M64.9171 3.94728L61.5521 14.5027L72.0171 16.8995L62.4429 21.8951L68.2087 31.2668L58.0338 27.7759L55.7234 38.6322L50.9077 28.7001L41.8742 34.6815L45.2389 24.1261L34.7738 21.7288L44.348 16.7336L38.5822 7.36193L48.7572 10.8528L51.068 -0.00341797L55.8832 9.92867L64.9171 3.94728Z" fill="black"/>
<path d="M21.05 188.721C25.2957 188.721 28.7375 185.151 28.7375 180.746C28.7375 176.342 25.2957 172.771 21.05 172.771C16.8043 172.771 13.3625 176.342 13.3625 180.746C13.3625 185.151 16.8043 188.721 21.05 188.721Z" stroke="black" stroke-width="2.2" stroke-miterlimit="10" stroke-linecap="round" stroke-linejoin="round"/>
<path d="M93.7836 138.812C94.2154 136.922 93.0877 135.026 91.265 134.578C89.4422 134.13 87.6145 135.3 87.1828 137.19C86.751 139.081 87.8786 140.977 89.7014 141.425C91.5242 141.873 93.3519 140.703 93.7836 138.812Z" fill="black"/>
<path d="M382.649 129.006V118.568" stroke="black" stroke-width="2.2" stroke-miterlimit="10" stroke-linecap="round" stroke-linejoin="round"/>
<path d="M369.79 123.48L376.904 116.099" stroke="black" stroke-width="2.2" stroke-miterlimit="10" stroke-linecap="round" stroke-linejoin="round"/>
<path d="M364.463 110.14H374.525" stroke="black" stroke-width="2.2" stroke-miterlimit="10" stroke-linecap="round" stroke-linejoin="round"/>
<path d="M369.79 96.7998L376.904 104.18" stroke="black" stroke-width="2.2" stroke-miterlimit="10" stroke-linecap="round" stroke-linejoin="round"/>
<path d="M382.649 91.274V101.712" stroke="black" stroke-width="2.2" stroke-miterlimit="10" stroke-linecap="round" stroke-linejoin="round"/>
<path d="M395.509 96.7998L388.394 104.18" stroke="black" stroke-width="2.2" stroke-miterlimit="10" stroke-linecap="round" stroke-linejoin="round"/>
<path d="M400.835 110.14H390.774" stroke="black" stroke-width="2.2" stroke-miterlimit="10" stroke-linecap="round" stroke-linejoin="round"/>
<path d="M395.508 123.48L388.394 116.099" stroke="black" stroke-width="2.2" stroke-miterlimit="10" stroke-linecap="round" stroke-linejoin="round"/>
<path d="M288.763 97.2789C293.009 97.2789 296.451 93.7084 296.451 89.304C296.451 84.8996 293.009 81.3291 288.763 81.3291C284.518 81.3291 281.076 84.8996 281.076 89.304C281.076 93.7084 284.518 97.2789 288.763 97.2789Z" stroke="black" stroke-width="2.2" stroke-miterlimit="10" stroke-linecap="round" stroke-linejoin="round"/>
<path d="M410.241 177.32C411.506 176.008 411.506 173.879 410.241 172.566C408.975 171.253 406.923 171.253 405.658 172.566C404.392 173.879 404.392 176.008 405.658 177.32C406.923 178.633 408.975 178.633 410.241 177.32Z" fill="black"/>
<path d="M17.8974 389.835V422.819" stroke="black" stroke-width="2.2" stroke-miterlimit="10" stroke-linecap="round" stroke-linejoin="round"/>
<path d="M2 406.328H33.7949" stroke="black" stroke-width="2.2" stroke-miterlimit="10" stroke-linecap="round" stroke-linejoin="round"/>
<path d="M6.65622 394.666L29.1386 417.989" stroke="black" stroke-width="2.2" stroke-miterlimit="10" stroke-linecap="round" stroke-linejoin="round"/>
<path d="M6.65622 417.989L29.1386 394.666" stroke="black" stroke-width="2.2" stroke-miterlimit="10" stroke-linecap="round" stroke-linejoin="round"/>
<path d="M50.3308 114.157C44.2032 116.217 42.5933 117.888 40.607 124.244C38.6207 117.887 37.0103 116.217 30.8832 114.157C37.0108 112.096 38.6207 110.425 40.607 104.069C42.5933 110.425 44.2036 112.096 50.3308 114.157Z" stroke="black" stroke-width="2.2" stroke-miterlimit="10" stroke-linecap="round" stroke-linejoin="round"/>
</svg>
