<svg width="600" height="536" viewBox="0 0 600 536" fill="none" xmlns="http://www.w3.org/2000/svg">
<path d="M1 508.847H543.459" stroke="black" stroke-width="0.8689" stroke-miterlimit="10" stroke-linecap="round" stroke-linejoin="round"/>
<path opacity="0.1" d="M217.407 535.881C330.847 535.881 422.808 530.41 422.808 523.66C422.808 516.911 330.847 511.439 217.407 511.439C103.967 511.439 12.0061 516.911 12.0061 523.66C12.0061 530.41 103.967 535.881 217.407 535.881Z" fill="#232323"/>
<path d="M215.157 367.507C217.382 334.382 213.247 302.376 204.446 270.367" stroke="black" stroke-width="0.8689" stroke-miterlimit="10" stroke-linecap="round" stroke-linejoin="round"/>
<path d="M201.738 233.023C209.893 231.089 220.198 233.205 227.148 239.28C228.98 240.882 230.541 243.773 228.902 245.571C227.869 246.704 226.114 246.699 224.586 246.577C216.655 245.949 208.791 244.476 201.17 242.191C203.958 243.133 205.699 245.91 206.738 248.663C208.89 254.358 208.98 260.807 206.985 266.558C206.293 268.555 204.999 270.735 202.895 270.928C200.825 271.118 199.176 269.282 198.028 267.548C194.178 261.737 191.697 255.027 190.837 248.11C188.789 255.31 185.206 262.07 180.398 267.806C179.156 269.288 177.786 270.738 176.031 271.55C174.276 272.361 172.048 272.409 170.534 271.209C168.041 269.234 168.683 265.33 169.763 262.338C171.711 256.946 174.319 251.794 177.51 247.031C170.936 250.651 163.789 254.389 156.343 253.457C155.318 253.329 154.263 253.094 153.448 252.458C151.979 251.31 151.696 249.094 152.355 247.349C153.014 245.605 154.422 244.255 155.887 243.103C160.425 239.536 165.973 237.27 171.708 236.642C163.41 235.349 156.06 229.178 153.35 221.229C152.908 219.932 152.583 218.505 153.015 217.206C153.877 214.608 157.22 213.819 159.936 214.148C167.885 215.113 173.856 221.608 179.073 227.683C174.704 221.407 175.032 212.257 179.839 206.31C180.486 205.51 181.231 204.745 182.181 204.35C185.128 203.124 188.178 205.902 189.795 208.654C192.725 213.638 194.154 219.491 193.851 225.265C194.511 219.198 197.94 213.487 202.986 210.051C205.587 208.281 210.121 206.778 212.164 210.171C215.043 214.959 206.359 229.072 201.738 233.023Z" stroke="black" stroke-width="0.8689" stroke-miterlimit="10" stroke-linecap="round" stroke-linejoin="round"/>
<path d="M215.929 341.96C223.691 329.89 231.642 316.646 235.909 302.944C238.203 295.578 239.462 287.499 236.896 280.223C236.316 278.581 235.4 276.862 233.768 276.253C230.663 275.095 227.907 278.566 226.498 281.566C218.776 298.014 215.247 315.933 215.5 334.103" stroke="black" stroke-width="0.8689" stroke-miterlimit="10" stroke-linecap="round" stroke-linejoin="round"/>
<path d="M215.551 351.013C202.053 342.261 189.603 329.756 180.907 316.221C179.213 313.585 177.599 310.802 177.062 307.714C176.526 304.626 177.26 301.149 179.635 299.104C182.706 296.461 187.596 297.036 190.916 299.357C194.237 301.678 196.332 305.334 198.228 308.916C204.808 321.351 211.522 335.86 215.811 349.258" stroke="black" stroke-width="0.8689" stroke-miterlimit="10" stroke-linecap="round" stroke-linejoin="round"/>
<path d="M153.009 382.327C145.858 358.872 143.665 333.918 146.615 309.575" stroke="black" stroke-width="0.8689" stroke-miterlimit="10" stroke-linecap="round" stroke-linejoin="round"/>
<path d="M167.473 285.306C167.101 292.372 163.709 299.608 158.651 304.556C154.811 308.312 149.025 311.006 144.102 308.857C140.563 307.313 138.404 303.653 137.218 299.979C135.484 294.608 135.435 288.407 138.436 283.628C139.728 281.568 142.443 279.732 144.438 281.124C145.107 281.591 145.524 282.335 145.852 283.083C146.941 285.576 147.255 288.401 146.738 291.072C146.585 287.828 147.546 284.541 149.422 281.89C150.155 280.855 151.179 279.841 152.447 279.836C154.245 279.829 155.37 281.787 155.795 283.533C156.42 286.108 156.377 288.842 155.672 291.396C156.314 286.994 159.026 282.942 162.848 280.667C163.326 280.382 163.839 280.119 164.396 280.074C165.537 279.985 166.572 280.875 167.026 281.926C167.479 282.977 167.48 284.16 167.473 285.306Z" stroke="black" stroke-width="0.8689" stroke-miterlimit="10" stroke-linecap="round" stroke-linejoin="round"/>
<path d="M145.986 345.853C146.657 338.993 151.789 332.276 156.435 327.183C158.616 324.792 161.042 322.518 164.014 321.234C166.984 319.95 170.605 319.799 173.338 321.532C172.611 328.085 169.475 334.344 164.659 338.85C159.846 343.355 152.794 345.999 146.207 346.293" stroke="black" stroke-width="0.8689" stroke-miterlimit="10" stroke-linecap="round" stroke-linejoin="round"/>
<path d="M147.374 359.089C142.313 361.237 136.368 359.826 131.581 357.123C127.107 354.596 123.208 350.901 120.943 346.289C119.897 344.158 119.212 341.871 118.532 339.598C118.119 338.215 117.79 336.492 118.856 335.518C119.653 334.79 120.873 334.852 121.942 334.997C127.772 335.781 133.556 337.763 138.123 341.471C142.69 345.179 146.879 351.49 147.527 358.514" stroke="black" stroke-width="0.8689" stroke-miterlimit="10" stroke-linecap="round" stroke-linejoin="round"/>
<path d="M257.538 373.612C266.226 344.071 269.761 313.024 267.937 282.286" stroke="black" stroke-width="0.8689" stroke-miterlimit="10" stroke-linecap="round" stroke-linejoin="round"/>
<path d="M265.791 335.401C267.337 327.734 269.979 320.125 274.81 313.974C279.641 307.824 286.901 303.274 294.719 303.021C294.158 311.073 292.198 319.21 287.673 325.896C283.15 332.582 273.746 337.559 265.684 337.971" stroke="black" stroke-width="0.8689" stroke-miterlimit="10" stroke-linecap="round" stroke-linejoin="round"/>
<path d="M262.676 350.103C255.95 349.739 249.522 345.802 246.141 339.977C242.302 333.365 242.471 325.218 243.311 317.619C247.489 317.52 251.368 319.894 254.342 322.83C260.702 329.11 264.754 339.17 263.703 348.046" stroke="black" stroke-width="0.8689" stroke-miterlimit="10" stroke-linecap="round" stroke-linejoin="round"/>
<path d="M287.664 259.018C283.109 261.132 278.51 263.271 274.489 266.392C270.466 269.515 267.014 273.751 265.638 278.81" stroke="black" stroke-width="0.8419" stroke-miterlimit="10" stroke-linecap="round" stroke-linejoin="round"/>
<path d="M268.654 272.053C263.877 268.098 256.6 265.381 250.484 265.655" stroke="black" stroke-width="0.8419" stroke-miterlimit="10" stroke-linecap="round" stroke-linejoin="round"/>
<path d="M265.907 259.075C265.157 259.562 264.764 260.135 265.126 260.753C265.979 262.212 272.895 260.854 274.268 259.145C275.698 257.361 273.588 256.191 272.02 255.843C269.034 255.179 265.902 255.39 262.933 256.031C260.905 256.468 258.01 257.624 257.911 260.098C257.833 262.052 259.365 263.086 261.036 263.746C263.654 264.78 270.411 263.706 271.439 263.269" stroke="black" stroke-width="0.8419" stroke-miterlimit="10" stroke-linecap="round" stroke-linejoin="round"/>
<path d="M268.868 281.813C282.779 280.797 293.549 273.02 292.923 264.442C292.297 255.863 280.512 249.732 266.6 250.748C252.688 251.763 241.918 259.541 242.545 268.119C243.171 276.697 254.956 282.828 268.868 281.813Z" stroke="black" stroke-width="0.8363" stroke-miterlimit="10" stroke-linecap="round" stroke-linejoin="round"/>
<mask id="mask0_1023_645" style="mask-type:luminance" maskUnits="userSpaceOnUse" x="37" y="350" width="347" height="176">
<path d="M60.248 525.049C45.6296 518.189 37.2587 504.105 37.2648 486.352C37.2661 475.817 40.4352 465.063 45.9622 456.848C51.704 448.312 59.6171 443.039 68.2445 442C68.7723 441.936 69.2473 441.647 69.5455 441.208C69.845 440.769 69.9395 440.22 69.8057 439.706C68.9392 436.386 68.501 432.973 68.501 429.562C68.501 424.07 69.6339 418.623 71.7782 413.807C76.851 402.416 87.2705 394.256 98.9676 392.514C99.6513 392.413 100.221 391.936 100.442 391.281C102.985 383.73 107.407 377.399 113.231 372.973C119.259 368.394 127.074 365.871 135.235 365.871C144.278 365.871 152.972 368.962 159.714 374.575C160.058 374.86 160.476 375.001 160.89 375.001C161.418 375.001 161.942 374.775 162.305 374.339C165.817 370.125 169.851 366.91 174.295 364.78C178.527 362.754 183.115 361.726 187.93 361.726C193.338 361.726 198.832 363.067 203.82 365.604C203.805 365.596 203.798 365.593 203.794 365.593C203.787 365.593 203.816 365.617 203.839 365.64C204.188 365.988 204.685 366.209 205.177 366.209C205.203 366.209 205.229 366.208 205.255 366.206C205.771 366.182 206.283 365.971 206.613 365.571C214.315 356.278 226.508 350.503 238.435 350.498C240.418 350.498 242.386 350.663 244.283 350.985C252.705 352.425 260.634 356.835 266.605 363.402C266.967 363.801 267.467 364.004 267.967 364.004C268.361 364.004 268.758 363.878 269.092 363.62C271.24 363.366 273.465 363.236 275.703 363.236C286.543 363.237 297.376 366.165 306.207 371.478C316.145 377.457 322.944 386.107 325.868 396.495C326.721 399.524 327.153 402.701 327.153 405.934C327.153 406.485 327.139 407.035 327.115 407.587C327.084 408.273 327.436 408.92 328.03 409.264C328.316 409.429 328.635 409.512 328.955 409.512C329.068 409.512 329.18 409.501 329.292 409.481C342.067 410.992 353.76 419.67 359.163 431.667C361.372 436.573 362.539 442.146 362.539 447.781C362.539 451.246 362.104 454.698 361.249 458.042C361.12 458.546 361.211 459.083 361.498 459.516C361.705 459.828 362 460.066 362.34 460.205C374.383 468.134 383.13 485.849 383.136 502.399C383.136 511.089 380.774 518.901 376.296 525.046H60.248V525.049Z" fill="white"/>
</mask>
<g mask="url(#mask0_1023_645)">
<path d="M60.248 525.049C45.6296 518.189 37.2587 504.105 37.2648 486.352C37.2661 475.817 40.4352 465.063 45.9622 456.848C51.704 448.312 59.6171 443.039 68.2445 442C68.7723 441.936 69.2473 441.647 69.5455 441.208C69.845 440.769 69.9395 440.22 69.8057 439.706C68.9392 436.386 68.501 432.973 68.501 429.562C68.501 424.07 69.6339 418.623 71.7782 413.807C76.851 402.416 87.2705 394.256 98.9676 392.514C99.6513 392.413 100.221 391.936 100.442 391.281C102.985 383.73 107.407 377.399 113.231 372.973C119.259 368.394 127.074 365.871 135.235 365.871C144.278 365.871 152.972 368.962 159.714 374.575C160.058 374.86 160.476 375.001 160.89 375.001C161.418 375.001 161.942 374.775 162.305 374.339C165.817 370.125 169.851 366.91 174.295 364.78C178.527 362.754 183.115 361.726 187.93 361.726C193.338 361.726 198.832 363.067 203.82 365.604C203.805 365.596 203.798 365.593 203.794 365.593C203.787 365.593 203.816 365.617 203.839 365.64C204.188 365.988 204.685 366.209 205.177 366.209C205.203 366.209 205.229 366.208 205.255 366.206C205.771 366.182 206.283 365.971 206.613 365.571C214.315 356.278 226.508 350.503 238.435 350.498C240.418 350.498 242.386 350.663 244.283 350.985C252.705 352.425 260.634 356.835 266.605 363.402C266.967 363.801 267.467 364.004 267.967 364.004C268.361 364.004 268.758 363.878 269.092 363.62C271.24 363.366 273.465 363.236 275.703 363.236C286.543 363.237 297.376 366.165 306.207 371.478C316.145 377.457 322.944 386.107 325.868 396.495C326.721 399.524 327.153 402.701 327.153 405.934C327.153 406.485 327.139 407.035 327.115 407.587C327.084 408.273 327.436 408.92 328.03 409.264C328.316 409.429 328.635 409.512 328.955 409.512C329.068 409.512 329.18 409.501 329.292 409.481C342.067 410.992 353.76 419.67 359.163 431.667C361.372 436.573 362.539 442.146 362.539 447.781C362.539 451.246 362.104 454.698 361.249 458.042C361.12 458.546 361.211 459.083 361.498 459.516C361.705 459.828 362 460.066 362.34 460.205C374.383 468.134 383.13 485.849 383.136 502.399C383.136 511.089 380.774 518.901 376.296 525.046H60.248V525.049Z" fill="#FF91AA"/>
</g>
<mask id="mask1_1023_645" style="mask-type:luminance" maskUnits="userSpaceOnUse" x="37" y="350" width="347" height="176">
<path d="M60.248 525.049C45.6296 518.189 37.2587 504.105 37.2648 486.352C37.2661 475.817 40.4352 465.063 45.9622 456.848C51.704 448.312 59.6171 443.039 68.2445 442C68.7723 441.936 69.2473 441.647 69.5455 441.208C69.845 440.769 69.9395 440.22 69.8057 439.706C68.9392 436.386 68.501 432.973 68.501 429.562C68.501 424.07 69.6339 418.623 71.7782 413.807C76.851 402.416 87.2705 394.256 98.9676 392.514C99.6513 392.413 100.221 391.936 100.442 391.281C102.985 383.73 107.407 377.399 113.231 372.973C119.259 368.394 127.074 365.871 135.235 365.871C144.278 365.871 152.972 368.962 159.714 374.575C160.058 374.86 160.476 375.001 160.89 375.001C161.418 375.001 161.942 374.775 162.305 374.339C165.817 370.125 169.851 366.91 174.295 364.78C178.527 362.754 183.115 361.726 187.93 361.726C193.338 361.726 198.832 363.067 203.82 365.604C203.805 365.596 203.798 365.593 203.794 365.593C203.787 365.593 203.816 365.617 203.839 365.64C204.188 365.988 204.685 366.209 205.177 366.209C205.203 366.209 205.229 366.208 205.255 366.206C205.771 366.182 206.283 365.971 206.613 365.571C214.315 356.278 226.508 350.503 238.435 350.498C240.418 350.498 242.386 350.663 244.283 350.985C252.705 352.425 260.634 356.835 266.605 363.402C266.967 363.801 267.467 364.004 267.967 364.004C268.361 364.004 268.758 363.878 269.092 363.62C271.24 363.366 273.465 363.236 275.703 363.236C286.543 363.237 297.376 366.165 306.207 371.478C316.145 377.457 322.944 386.107 325.868 396.495C326.721 399.524 327.153 402.701 327.153 405.934C327.153 406.485 327.139 407.035 327.115 407.587C327.084 408.273 327.436 408.92 328.03 409.264C328.316 409.429 328.635 409.512 328.955 409.512C329.068 409.512 329.18 409.501 329.292 409.481C342.067 410.992 353.76 419.67 359.163 431.667C361.372 436.573 362.539 442.146 362.539 447.781C362.539 451.246 362.104 454.698 361.249 458.042C361.12 458.546 361.211 459.083 361.498 459.516C361.705 459.828 362 460.066 362.34 460.205C374.383 468.134 383.13 485.849 383.136 502.399C383.136 511.089 380.774 518.901 376.296 525.046H60.248V525.049Z" fill="white"/>
</mask>
<g mask="url(#mask1_1023_645)">
<path d="M204.502 364.276C194.836 359.359 183.437 358.751 173.653 363.435C158.328 370.77 148.276 390.453 150.201 409.353" stroke="black" stroke-width="0.7577" stroke-miterlimit="10" stroke-linecap="round" stroke-linejoin="round"/>
<path d="M201.846 369.792C209.865 355.76 228.108 346.715 244.536 349.515C260.965 352.315 274.764 365.899 277.249 381.721" stroke="black" stroke-width="0.7577" stroke-miterlimit="10" stroke-linecap="round" stroke-linejoin="round"/>
<path d="M268.693 362.168C291.237 359.4 320.024 370.225 327.307 396.092C330.686 408.094 327.655 422.193 318.519 430.432" stroke="black" stroke-width="0.7577" stroke-miterlimit="10" stroke-linecap="round" stroke-linejoin="round"/>
<path d="M329.14 407.962C342.521 409.411 354.876 418.501 360.527 431.056C366.178 443.611 364.92 459.178 357.332 470.603" stroke="black" stroke-width="0.7577" stroke-miterlimit="10" stroke-linecap="round" stroke-linejoin="round"/>
<path d="M362.984 458.844C381.998 471.187 392.81 505.918 377.049 526.542" stroke="black" stroke-width="0.7577" stroke-miterlimit="10" stroke-linecap="round" stroke-linejoin="round"/>
<path d="M124.711 526.542C116.453 519.449 111.016 506.809 112.219 495.819C113.478 484.307 121.834 473.723 132.764 470.907" stroke="black" stroke-width="0.7577" stroke-miterlimit="10" stroke-linecap="round" stroke-linejoin="round"/>
<path d="M251.042 481.144C258.655 490.687 260.358 521.482 237.012 526.542" stroke="black" stroke-width="0.7577" stroke-miterlimit="10" stroke-linecap="round" stroke-linejoin="round"/>
<path d="M121.304 476.422C112.832 463.486 111.274 446.066 117.307 431.758C123.057 418.125 135.523 407.734 149.641 404.636" stroke="black" stroke-width="0.7577" stroke-miterlimit="10" stroke-linecap="round" stroke-linejoin="round"/>
<path d="M128.138 447.028C139.86 440.082 154.204 437.666 167.739 440.357C181.275 443.049 193.883 450.826 202.548 461.827" stroke="black" stroke-width="0.7577" stroke-miterlimit="10" stroke-linecap="round" stroke-linejoin="round"/>
<path d="M178.869 443.96C179.572 453.256 176.709 462.845 171.021 470.24C165.334 477.635 156.881 482.759 147.854 484.285" stroke="black" stroke-width="0.7577" stroke-miterlimit="10" stroke-linecap="round" stroke-linejoin="round"/>
<path d="M227.399 486.958C223.2 468.803 230.772 448.377 245.662 437.703" stroke="black" stroke-width="0.7577" stroke-miterlimit="10" stroke-linecap="round" stroke-linejoin="round"/>
<path d="M235.828 447.013C217.05 449.327 207.294 433.897 208.483 424.607" stroke="black" stroke-width="0.7577" stroke-miterlimit="10" stroke-linecap="round" stroke-linejoin="round"/>
<path d="M190.38 386.001C204.663 403.086 229.638 409.714 250.18 401.87" stroke="black" stroke-width="0.7577" stroke-miterlimit="10" stroke-linecap="round" stroke-linejoin="round"/>
<path d="M234.442 404.834C240.508 397.977 243.176 388.095 241.416 379.005" stroke="black" stroke-width="0.7577" stroke-miterlimit="10" stroke-linecap="round" stroke-linejoin="round"/>
<path d="M302.901 389.845C290.464 411.186 286.252 437.442 291.365 461.758" stroke="black" stroke-width="0.7577" stroke-miterlimit="10" stroke-linecap="round" stroke-linejoin="round"/>
<path d="M290.577 424.53C282.156 425.179 274.251 421.686 268.161 415.67" stroke="black" stroke-width="0.7577" stroke-miterlimit="10" stroke-linecap="round" stroke-linejoin="round"/>
<path d="M346.767 496.436C341.658 478.918 328.163 464.213 311.448 457.956" stroke="black" stroke-width="0.7577" stroke-miterlimit="10" stroke-linecap="round" stroke-linejoin="round"/>
<path d="M331.526 470.963C332.582 464.801 335.515 457.942 339.585 453.292" stroke="black" stroke-width="0.7577" stroke-miterlimit="10" stroke-linecap="round" stroke-linejoin="round"/>
<path d="M256.242 495.236C268.25 489.973 283.962 490.547 294.968 497.766" stroke="black" stroke-width="0.7577" stroke-miterlimit="10" stroke-linecap="round" stroke-linejoin="round"/>
<path d="M160.827 373.555C146.645 361.621 125.673 361.648 112.328 371.786C97.7463 382.863 92.4489 405.089 100.398 421.843" stroke="black" stroke-width="0.7577" stroke-miterlimit="10" stroke-linecap="round" stroke-linejoin="round"/>
<path d="M126.855 416.875C121.428 408.179 120.051 396.933 123.214 387.124" stroke="black" stroke-width="0.7577" stroke-miterlimit="10" stroke-linecap="round" stroke-linejoin="round"/>
<path d="M113.077 490.527C98.8338 480.534 90.2187 462.614 91.1478 444.911" stroke="black" stroke-width="0.7577" stroke-miterlimit="10" stroke-linecap="round" stroke-linejoin="round"/>
<path d="M96.0525 470.147C85.4698 464.205 71.7254 464.767 61.6337 471.553" stroke="black" stroke-width="0.7577" stroke-miterlimit="10" stroke-linecap="round" stroke-linejoin="round"/>
<path d="M98.9651 391.001C85.962 392.851 75.4456 401.905 70.4157 413.201C65.3858 424.497 65.959 438.256 71.9119 449.068" stroke="black" stroke-width="0.7577" stroke-miterlimit="10" stroke-linecap="round" stroke-linejoin="round"/>
<path d="M68.4519 440.464C34.0834 444.131 20.1831 508.253 59.9178 526.542" stroke="black" stroke-width="0.7577" stroke-miterlimit="10" stroke-linecap="round" stroke-linejoin="round"/>
<path d="M191.305 483.884C200.07 504.28 185.898 523.857 180.656 526.541" stroke="black" stroke-width="0.7577" stroke-miterlimit="10" stroke-linecap="round" stroke-linejoin="round"/>
</g>
<path d="M278.206 202.57C278.623 205.613 276.492 208.417 273.448 208.832C270.405 209.247 267.6 207.118 267.186 204.074C266.77 201.03 268.9 198.226 271.944 197.811C274.987 197.395 277.79 199.526 278.206 202.57Z" stroke="black" stroke-width="0.8689" stroke-miterlimit="10" stroke-linecap="round" stroke-linejoin="round"/>
<path d="M86.5255 297.862C86.7292 299.356 85.6835 300.732 84.1909 300.935C82.6972 301.139 81.3213 300.093 81.1175 298.601C80.9138 297.107 81.9595 295.731 83.452 295.527C84.9446 295.322 86.3217 296.368 86.5255 297.862Z" fill="black"/>
<path d="M334.626 346.117C334.83 347.611 333.784 348.987 332.292 349.191C330.798 349.395 329.422 348.349 329.219 346.856C329.015 345.363 330.061 343.987 331.553 343.783C333.047 343.579 334.423 344.625 334.626 346.117Z" fill="black"/>
<path d="M125.297 190.452C119.196 192.429 117.595 194.032 115.617 200.131C113.64 194.032 112.037 192.429 105.938 190.452C112.038 188.475 113.641 186.872 115.617 180.773C117.595 186.872 119.196 188.475 125.297 190.452Z" stroke="black" stroke-width="0.8689" stroke-miterlimit="10" stroke-linecap="round" stroke-linejoin="round"/>
<path d="M209.946 162.028L204.802 155.072" stroke="black" stroke-width="0.8689" stroke-miterlimit="10" stroke-linecap="round" stroke-linejoin="round"/>
<path d="M198.768 164.154L200.999 155.795" stroke="black" stroke-width="0.8689" stroke-miterlimit="10" stroke-linecap="round" stroke-linejoin="round"/>
<path d="M190.137 156.739L198.062 153.273" stroke="black" stroke-width="0.8689" stroke-miterlimit="10" stroke-linecap="round" stroke-linejoin="round"/>
<path d="M190.551 145.37L198.204 149.404" stroke="black" stroke-width="0.8689" stroke-miterlimit="10" stroke-linecap="round" stroke-linejoin="round"/>
<path d="M199.701 138.604L201.317 147.103" stroke="black" stroke-width="0.8689" stroke-miterlimit="10" stroke-linecap="round" stroke-linejoin="round"/>
<path d="M210.693 141.539L205.056 148.102" stroke="black" stroke-width="0.8689" stroke-miterlimit="10" stroke-linecap="round" stroke-linejoin="round"/>
<path d="M215.253 151.963L206.607 151.648" stroke="black" stroke-width="0.8689" stroke-miterlimit="10" stroke-linecap="round" stroke-linejoin="round"/>
<path d="M48.8687 363.027C49.2836 366.07 47.154 368.875 44.11 369.29C41.0673 369.706 38.2627 367.575 37.8478 364.531C37.4318 361.488 39.5625 358.684 42.6065 358.269C45.6492 357.854 48.4526 359.983 48.8687 363.027Z" stroke="black" stroke-width="0.8689" stroke-miterlimit="10" stroke-linecap="round" stroke-linejoin="round"/>
<path d="M388.247 322.158C404.499 323.909 421.157 325.871 435.988 333.224C450.503 340.42 464.195 350.346 474.968 362.481C482.823 371.328 489.549 383.17 488.059 395.418C484.543 424.327 444.278 430.656 421.561 424.474C411.887 421.84 389.489 409.489 390.881 396.724C392.215 384.493 411.025 392.388 416.635 395.612C427.405 401.801 437.401 413.47 439.832 425.852C445.231 453.337 418.812 480.561 391.477 470.986" stroke="black" stroke-width="1.0582" stroke-miterlimit="10" stroke-linecap="round" stroke-linejoin="round" stroke-dasharray="5.33 5.33 5.33 5.33 5.33 5.33"/>
<path d="M83.7319 222.417C78.3509 232.587 70.5545 246.854 77.5556 258.525C79.1831 261.238 86.9428 269.572 90.2666 265.031C94.3477 259.455 83.9233 248.241 80.5873 245.263C70.7165 236.454 54.9075 230.443 41.5669 233.697C11.8773 240.94 20.6299 283.784 31.7219 302.621C40.2892 317.17 53.8581 329.147 66.3752 340.243C70.2329 343.663 76.3098 347.024 79.6593 349.962" stroke="black" stroke-width="1.0582" stroke-miterlimit="10" stroke-linecap="round" stroke-linejoin="round" stroke-dasharray="5.33 5.33 5.33 5.33 5.33 5.33"/>
<path d="M290.553 169.308C294.364 169.308 294.364 175.713 298.175 175.713C301.987 175.713 301.987 169.308 305.798 169.308C309.608 169.308 309.608 175.713 313.418 175.713C317.232 175.713 317.232 169.308 321.044 169.308C324.86 169.308 324.86 175.713 328.675 175.713C332.49 175.713 332.491 169.308 336.306 169.308" stroke="black" stroke-width="0.9831" stroke-miterlimit="10"/>
<path d="M1.73645 403.275C5.54754 403.275 5.54754 409.681 9.35862 409.681C13.1709 409.681 13.1709 403.275 16.982 403.275C20.7919 403.275 20.7919 409.681 24.6017 409.681C28.4153 409.681 28.4153 403.275 32.2276 403.275C36.0436 403.275 36.0436 409.681 39.8596 409.681C43.6756 409.681 43.6756 403.275 47.4903 403.275" stroke="black" stroke-width="0.9831" stroke-miterlimit="10"/>
<path d="M132.634 158.419C131.868 159.032 130.474 159.992 129.005 160.955C126.328 162.712 122.853 162.595 120.257 160.72C118.644 159.555 116.295 157.169 113.532 156.544C111.474 156.079 109.372 156.557 107.378 157.347C105.056 158.266 103.482 160.218 101.37 161.454C97.4604 163.743 93.6849 162.529 89.9707 160.562C85.9682 158.444 81.9804 158.074 77.6894 159.783C73.8329 161.319 70.9521 163.737 66.6305 162.148C62.7752 160.732 58.6879 158.175 54.3748 158.953C50.5993 159.635 48.6871 163.318 44.5335 163.574C40.5531 163.82 38.6039 160.694 35.2838 159.443C32.0521 158.227 30.3693 160.373 27.7144 161.673C25.5517 162.731 21.4829 162.656 19.8406 160.831" stroke="black" stroke-width="0.8689" stroke-miterlimit="10" stroke-linecap="round" stroke-linejoin="round"/>
<path d="M418.947 13.2102L400.756 34.8432" stroke="black" stroke-width="0.9831" stroke-miterlimit="10"/>
<path d="M437.793 39.8862L410.563 47.463" stroke="black" stroke-width="0.9831" stroke-miterlimit="10"/>
<path d="M381.476 1L385.276 29.0081" stroke="black" stroke-width="0.9831" stroke-miterlimit="10"/>
<path d="M586.061 74.5961C535.706 57.5266 517.674 78.7067 476.778 92.229C471.65 93.924 466.602 95.8682 461.664 98.0591C459.613 98.9686 457.365 100.181 456.779 102.348C456.514 103.327 456.641 104.374 456.91 105.352C458.205 110.073 462.645 113.323 467.45 114.516H467.449C466.333 116.377 464.645 119.555 464.257 121.689C463.738 124.545 464.66 127.563 466.432 129.864C468.205 132.164 470.764 133.78 473.507 134.734C477.133 135.994 481.053 136.109 484.83 135.356C485.475 139.124 488.884 142.025 492.607 142.943C496.383 143.874 500.387 143.096 504.05 141.785C504.42 141.653 504.785 141.505 505.152 141.361L505.146 141.367C509.248 148.897 515.528 148.019 519.159 146.907C520.847 146.391 522.407 145.579 523.885 144.616C524.452 146.857 528.361 149.824 530.672 149.891C532.823 149.955 535.536 149.366 538.419 148.221C544.528 148.039 550.279 145.357 555.755 142.616C568.536 136.222 587.113 125.686 599.327 118.266L596.487 77.7726L586.061 74.5961Z" fill="#FDFAF5"/>
<path d="M540.667 114.278C551.423 113.505 562.024 110.514 571.532 105.422" stroke="black" stroke-width="0.75" stroke-miterlimit="10" stroke-linecap="round" stroke-linejoin="round"/>
<path d="M596.172 78.1114C595.699 77.9506 585.117 74.2783 584.65 74.1248C535.364 57.9256 517.29 78.8344 476.779 92.2302C471.651 93.9265 466.603 95.8695 461.666 98.0604C459.615 98.9711 457.367 100.183 456.781 102.349C456.516 103.328 456.644 104.375 456.913 105.354C458.382 110.71 463.895 114.176 469.404 114.889C474.911 115.602 480.446 114.099 485.757 112.475C485.947 112.416 486.138 112.358 486.33 112.299" stroke="black" stroke-width="0.75" stroke-miterlimit="10" stroke-linecap="round" stroke-linejoin="round"/>
<path d="M538.011 148.248C544.273 148.178 550.156 145.42 555.757 142.618C568.27 136.357 580.532 129.594 592.504 122.35C592.76 122.195 599.073 118.422 599.328 118.266" stroke="black" stroke-width="0.75" stroke-miterlimit="10" stroke-linecap="round" stroke-linejoin="round"/>
<path d="M559.914 159.413C559.914 152.947 559.256 146.413 557.283 140.015C555.325 133.618 551.982 127.413 546.858 121.892C541.857 116.495 535.72 112.686 529.145 110.289C522.557 107.892 515.528 106.851 508.473 106.851C499.857 106.851 491.185 108.399 483.13 111.111C475.088 113.837 467.636 117.7 461.499 122.536C455.143 127.537 450.458 133.605 447.033 140.126C443.609 146.661 442.306 152.099 440.69 159.208C437.868 157.537 435.046 155.893 432.238 154.194C432.238 154.221 432.255 154.293 432.225 154.29C430.916 154.201 422.354 159.998 415.185 166.984C410.446 171.603 405.915 178.41 405.915 178.41C405.915 178.41 400.377 173.629 395.538 173.826C391.938 173.972 388.509 175.675 386.058 178.319C383.619 180.963 382.045 184.305 380.798 187.689C380.332 188.95 379.908 190.237 379.524 191.525C379.373 192.032 379.236 192.525 379.099 193.032C378.921 193.648 378.77 194.251 378.619 194.867C378.564 195.045 378.523 195.209 378.495 195.387C378.372 195.894 378.248 196.415 378.139 196.922C378.126 196.977 378.112 197.017 378.112 197.073C376.551 204.346 376.016 211.854 375.879 219.401C375.824 222.593 375.852 225.799 375.893 228.991C375.92 230.881 375.948 232.772 375.989 234.663C390.784 247.279 405.661 259.855 420.552 272.391C401.099 274.117 381.674 276.144 362.29 278.501C358.385 278.487 354.385 277.939 351.194 275.748C349.455 274.543 348.07 272.926 346.687 271.323C345.002 269.351 343.262 267.378 341.55 265.419C340.906 264.583 340.249 263.816 339.55 263.131C339.358 262.912 339.165 262.693 338.974 262.473L338.987 262.596C336.508 260.364 333.769 259.185 330.96 259.405L328.179 259.652C327.987 259.652 327.781 259.652 327.59 259.665C320.659 260.199 316.096 274.172 317.37 290.872C318.658 307.557 325.315 320.667 332.248 320.133C332.439 320.12 332.617 320.091 332.81 320.051V320.064C333.179 320.078 335.249 319.9 335.618 319.859C338.029 319.681 340.221 318.49 342.125 316.517L342.166 316.475C342.66 315.969 343.125 315.421 343.578 314.819C347.031 310.462 349.235 305.873 352.661 301.448L352.756 301.339C357.099 295.75 363.839 292.599 370.907 292.763C395.606 293.379 420.32 293.544 445.034 293.312V293.339C453.788 300.627 469.884 313.517 478.665 320.764C531.68 306.558 555.339 234.487 551.818 223.404C551.146 222.993 550.462 222.595 549.79 222.185C554.255 206.992 557.503 188.924 559.106 173.32C559.57 168.742 559.914 164.098 559.914 159.413ZM546.502 172.03C544.995 186.783 542.433 201.264 538.31 215.388C509.652 198.552 480.719 182.551 452.005 165.839C453.498 159.469 455.745 150.783 458.252 146.016C460.991 140.811 464.498 136.304 469.334 132.482C474.128 128.7 480.362 125.4 487.184 123.112C493.992 120.81 501.39 119.508 508.472 119.508C514.267 119.508 519.856 120.384 524.801 122.194C529.747 124.002 534.062 126.714 537.569 130.496C541.349 134.592 543.692 138.948 545.186 143.757C546.68 148.537 547.254 153.798 547.254 159.415C547.256 163.467 546.954 167.701 546.502 172.03Z" fill="#CDB8F8"/>
<path d="M432.234 154.188C432.234 154.215 432.234 154.268 432.221 154.294C427.664 162.706 422.339 170.72 416.337 178.191C414.522 180.43 412.589 182.682 409.806 183.675C408.562 182.112 407.236 180.51 405.792 179.079C407.316 176.668 409.396 173.926 411.277 171.635C412.072 170.654 412.893 169.7 413.753 168.76C414.044 168.429 414.35 168.111 414.641 167.793C415.953 166.402 417.317 165.051 418.734 163.766C419.013 163.501 419.304 163.235 419.596 162.984C420.457 162.202 421.318 161.461 422.205 160.759C422.642 160.388 423.093 160.03 423.557 159.686C423.994 159.341 424.431 158.997 424.881 158.679C427.186 156.971 429.571 155.421 432.009 154.056C432.061 154.029 432.114 154.042 432.141 154.069C432.155 154.069 432.168 154.083 432.18 154.096C432.207 154.122 432.234 154.149 432.234 154.188Z" fill="#222221" stroke="#222221" stroke-width="1.0028" stroke-miterlimit="10"/>
<path d="M432.002 154.061C471.719 177.886 512.105 199.574 551.821 223.399" stroke="#222221" stroke-width="0.75" stroke-miterlimit="10" stroke-linecap="round" stroke-linejoin="round"/>
<path d="M328.883 259.722C335.327 260.783 341.253 273.278 342.459 288.931C343.613 303.935 340.039 316.736 334.277 319.565" stroke="#222221" stroke-width="1.0028" stroke-miterlimit="10" stroke-linecap="round" stroke-linejoin="round"/>
<path d="M342.65 266.981C346.088 272.25 348.559 279.838 349.219 288.404C349.89 297.125 348.551 305.133 345.865 310.891" stroke="#222221" stroke-width="1.0028" stroke-miterlimit="10" stroke-linecap="round" stroke-linejoin="round"/>
<path d="M420.877 272.336C430.17 271.511 439.469 270.757 448.772 270.076C455.086 269.613 462.673 272.315 466.486 277.546C470.781 283.438 468.373 293.01 460.132 293.144C455.156 293.225 450.18 293.289 445.203 293.337" stroke="#222221" stroke-width="1.0028" stroke-miterlimit="10" stroke-linecap="round" stroke-linejoin="round"/>
<path d="M569.712 116.655C565.161 112.257 553.801 117.266 543.201 122.328C543.684 120.256 543.501 117.951 542.31 116.188C540.54 113.567 534.823 111.341 526.914 118.135C527.049 116.452 526.634 114.667 525.494 113.423C521.733 109.317 514.499 111.232 507.176 117.897L507.011 118.024C507.252 117.543 507.464 117.05 507.597 116.527C508.392 113.412 506.552 110.003 503.758 108.413C500.964 106.821 497.464 106.839 494.407 107.836C493.049 108.279 491.681 108.911 490.362 109.654C488.858 110.499 480.776 115.459 477.959 118.779C472.561 125.143 470.362 130.265 469.241 131.808C469.044 132.077 470.764 133.783 473.507 134.736C477.133 135.996 481.053 136.11 484.83 135.359C485.477 139.126 488.884 142.028 492.607 142.946C496.383 143.878 500.387 143.099 504.05 141.788C504.42 141.656 504.785 141.508 505.151 141.363L505.146 141.367C509.248 148.897 515.528 148.02 519.159 146.908C520.847 146.391 522.407 145.58 523.885 144.616C524.452 146.859 528.361 149.824 530.672 149.892C539.722 150.159 556.23 136.606 565.006 128.337C565.037 128.338 565.066 128.346 565.096 128.347L565.712 127.666C568.728 124.786 570.684 122.659 570.844 122.206C571.498 120.347 571.13 118.024 569.712 116.655Z" fill="#FDFAF5"/>
<path d="M505.146 141.367C509.248 148.897 515.528 148.02 519.159 146.909C522.79 145.798 525.848 143.357 528.698 140.848C533.057 137.011 537.186 132.853 540.44 128.044C541.632 126.281 542.717 124.401 543.2 122.329C543.684 120.257 543.5 117.953 542.31 116.189C540.54 113.568 534.823 111.342 526.914 118.136" stroke="black" stroke-width="0.75" stroke-miterlimit="10" stroke-linecap="round" stroke-linejoin="round"/>
<path d="M543.201 122.327C553.803 117.266 565.162 112.255 569.712 116.654C571.13 118.024 571.497 120.346 570.844 122.206C570.233 123.945 543.248 150.263 530.672 149.891C528.361 149.823 524.452 146.857 523.885 144.616" stroke="black" stroke-width="0.75" stroke-miterlimit="10" stroke-linecap="round" stroke-linejoin="round"/>
<path d="M484.797 135.196C485.37 139.044 488.829 142.014 492.605 142.945C496.382 143.877 500.386 143.099 504.049 141.788C513.218 138.505 521.174 131.71 525.413 122.94C526.147 121.42 526.779 119.818 526.914 118.136C527.049 116.454 526.634 114.669 525.494 113.424C521.733 109.318 514.499 111.233 507.176 117.898" stroke="black" stroke-width="0.75" stroke-miterlimit="10" stroke-linecap="round" stroke-linejoin="round"/>
<path d="M469.234 132.824C470.457 133.656 471.806 134.314 473.203 134.8C479.159 136.871 485.911 135.863 491.514 132.969C497.117 130.074 501.664 125.436 505.331 120.307C506.151 119.162 506.945 117.958 507.293 116.593C508.088 113.478 505.562 109.61 502.706 108.133C494.343 103.805 481.181 112.97 468.769 132.496" stroke="black" stroke-width="0.75" stroke-miterlimit="10" stroke-linecap="round" stroke-linejoin="round"/>
</svg>
