<svg width="960" height="962" viewBox="0 0 960 962" fill="none" xmlns="http://www.w3.org/2000/svg">
<path opacity="0.1" d="M484.894 961.127C743.473 961.127 953.093 948.357 953.093 932.605C953.093 916.853 743.473 904.083 484.894 904.083C226.315 904.083 16.6948 916.853 16.6948 932.605C16.6948 948.357 226.315 961.127 484.894 961.127Z" fill="#232323"/>
<path d="M10 915.835H959.787" stroke="black" stroke-width="2.2" stroke-miterlimit="10" stroke-linecap="round" stroke-linejoin="round"/>
<path d="M112.879 920.892C93.6189 911.621 78.7629 897.42 68.7199 878.678C59.6939 861.842 54.9229 841.683 54.9219 820.381C54.9229 799.943 59.2289 779.495 67.3729 761.249C75.6829 742.639 87.4519 727.626 101.409 717.832C110.969 711.125 121.375 707.001 132.338 705.576C133.05 705.483 133.69 705.078 134.094 704.462C134.498 703.843 134.626 703.077 134.448 702.357C132.348 693.89 131.284 685.145 131.284 676.363C131.284 662.107 134.123 647.957 139.495 635.444C152.187 605.881 178.266 584.668 207.552 580.082C208.481 579.937 209.245 579.274 209.547 578.35C215.921 558.827 226.982 542.441 241.538 530.962C256.674 519.038 276.268 512.471 296.715 512.47C319.249 512.47 340.946 520.44 357.81 534.91C358.255 535.294 358.821 535.506 359.402 535.506C360.144 535.506 360.843 535.168 361.32 534.577C370.081 523.728 380.141 515.436 391.22 509.932C401.879 504.637 413.427 501.955 425.543 501.955C439.125 501.955 452.919 505.445 465.433 512.048C465.566 512.119 466.016 512.375 466.591 512.717C466.969 512.94 467.397 513.057 467.829 513.057C468.571 513.057 469.27 512.719 469.747 512.128C477.356 502.706 487.12 494.341 497.981 487.942C514.035 478.483 531.682 473.482 549.013 473.479C553.994 473.479 558.933 473.907 563.695 474.75C582.848 478.137 601.331 488.106 615.737 502.819C616.715 503.818 617.714 504.898 618.977 506.32C619.45 506.851 620.12 507.156 620.816 507.156C620.913 507.156 621.01 507.15 621.107 507.138C626.552 506.467 634.541 505.789 640.122 505.789C667.029 505.791 693.933 513.334 715.875 527.03C740.68 542.508 757.654 564.926 764.963 591.864C767.104 599.75 768.19 608.02 768.191 616.445C768.191 617.611 768.164 618.845 768.105 620.332C768.074 621.103 768.373 621.842 768.923 622.36C769.384 622.794 769.981 623.031 770.602 623.031C770.686 623.031 770.77 623.027 770.855 623.018C803.05 626.741 832.637 649.389 846.245 680.73C851.775 693.477 854.698 707.945 854.698 722.571C854.698 731.475 853.635 740.346 851.539 748.934C851.243 750.145 851.822 751.403 852.915 751.926C867.597 761.868 880.881 778.186 890.321 797.867C899.821 817.686 905.054 840.139 905.056 861.088C905.057 884.086 898.885 904.759 887.202 920.896L112.879 920.892Z" fill="#FF91AA"/>
<mask id="mask0_1066_154" style="mask-type:luminance" maskUnits="userSpaceOnUse" x="54" y="473" width="852" height="448">
<path d="M112.879 920.892C93.6189 911.621 78.7629 897.42 68.7199 878.678C59.6939 861.842 54.9229 841.683 54.9219 820.381C54.9229 799.943 59.2289 779.495 67.3729 761.249C75.6829 742.639 87.4519 727.626 101.409 717.832C110.969 711.125 121.375 707.001 132.338 705.576C133.05 705.483 133.69 705.078 134.094 704.462C134.498 703.843 134.626 703.077 134.448 702.357C132.348 693.89 131.284 685.145 131.284 676.363C131.284 662.107 134.123 647.957 139.495 635.444C152.187 605.881 178.266 584.668 207.552 580.082C208.481 579.937 209.245 579.274 209.547 578.35C215.921 558.827 226.982 542.441 241.538 530.962C256.674 519.038 276.268 512.471 296.715 512.47C319.249 512.47 340.946 520.44 357.81 534.91C358.255 535.294 358.821 535.506 359.402 535.506C360.144 535.506 360.843 535.168 361.32 534.577C370.081 523.728 380.141 515.436 391.22 509.932C401.879 504.637 413.427 501.955 425.543 501.955C439.125 501.955 452.919 505.445 465.433 512.048C465.566 512.119 466.016 512.375 466.591 512.717C466.969 512.94 467.397 513.057 467.829 513.057C468.571 513.057 469.27 512.719 469.747 512.128C477.356 502.706 487.12 494.341 497.981 487.942C514.035 478.483 531.682 473.482 549.013 473.479C553.994 473.479 558.933 473.907 563.695 474.75C582.848 478.137 601.331 488.106 615.737 502.819C616.715 503.818 617.714 504.898 618.977 506.32C619.45 506.851 620.12 507.156 620.816 507.156C620.913 507.156 621.01 507.15 621.107 507.138C626.552 506.467 634.541 505.789 640.122 505.789C667.029 505.791 693.933 513.334 715.875 527.03C740.68 542.508 757.654 564.926 764.963 591.864C767.104 599.75 768.19 608.02 768.191 616.445C768.191 617.611 768.164 618.845 768.105 620.332C768.074 621.103 768.373 621.842 768.923 622.36C769.384 622.794 769.981 623.031 770.602 623.031C770.686 623.031 770.77 623.027 770.855 623.018C803.05 626.741 832.637 649.389 846.245 680.73C851.775 693.477 854.698 707.945 854.698 722.571C854.698 731.475 853.635 740.346 851.539 748.934C851.243 750.145 851.822 751.403 852.915 751.926C867.597 761.868 880.881 778.186 890.321 797.867C899.821 817.686 905.054 840.139 905.056 861.088C905.057 884.086 898.885 904.759 887.202 920.896L112.879 920.892Z" fill="white"/>
</mask>
<g mask="url(#mask0_1066_154)">
<path d="M359.548 534.555C340.581 558.545 330.077 592.291 333.297 625.11" stroke="black" stroke-width="2.2" stroke-miterlimit="10" stroke-linecap="round" stroke-linejoin="round"/>
<path d="M620.259 505.639C632.565 519.539 641.12 536.693 643.896 555.033" stroke="black" stroke-width="2.2" stroke-miterlimit="10" stroke-linecap="round" stroke-linejoin="round"/>
<path d="M769.381 622.276C768.109 643.671 759.836 664.493 744.792 678.569" stroke="black" stroke-width="2.2" stroke-miterlimit="10" stroke-linecap="round" stroke-linejoin="round"/>
<path d="M852.176 751.945C849.435 762.066 845.256 771.729 839.677 780.443" stroke="black" stroke-width="2.2" stroke-miterlimit="10" stroke-linecap="round" stroke-linejoin="round"/>
<path d="M270.985 922.311C250.798 904.32 237.505 872.267 240.446 844.395C243.526 815.197 263.953 788.358 290.674 781.218" stroke="black" stroke-width="2.2" stroke-miterlimit="10" stroke-linecap="round" stroke-linejoin="round"/>
<path d="M579.827 807.177C598.44 831.378 602.602 909.479 545.531 922.31" stroke="black" stroke-width="2.2" stroke-miterlimit="10" stroke-linecap="round" stroke-linejoin="round"/>
<path d="M262.656 795.203C241.945 762.397 238.134 718.217 252.886 681.931C266.941 647.357 297.42 621.006 331.931 613.148" stroke="black" stroke-width="2.2" stroke-miterlimit="10" stroke-linecap="round" stroke-linejoin="round"/>
<path d="M279.363 720.656C308.018 703.039 343.086 696.911 376.176 703.738C409.266 710.565 440.091 730.289 461.273 758.189" stroke="black" stroke-width="2.2" stroke-miterlimit="10" stroke-linecap="round" stroke-linejoin="round"/>
<path d="M403.385 712.876C405.104 736.454 398.104 760.771 384.2 779.524C370.296 798.277 349.632 811.274 327.563 815.145" stroke="black" stroke-width="2.2" stroke-miterlimit="10" stroke-linecap="round" stroke-linejoin="round"/>
<path d="M522.03 821.924C511.764 775.878 530.277 724.079 566.675 697.006" stroke="black" stroke-width="2.2" stroke-miterlimit="10" stroke-linecap="round" stroke-linejoin="round"/>
<path d="M542.633 720.619C496.725 726.487 472.878 687.354 475.78 663.794" stroke="black" stroke-width="2.2" stroke-miterlimit="10" stroke-linecap="round" stroke-linejoin="round"/>
<path d="M431.528 565.886C466.448 609.216 527.503 626.025 577.722 606.131" stroke="black" stroke-width="2.2" stroke-miterlimit="10" stroke-linecap="round" stroke-linejoin="round"/>
<path d="M539.246 613.647C554.076 596.258 560.6 571.196 556.297 548.14" stroke="black" stroke-width="2.2" stroke-miterlimit="10" stroke-linecap="round" stroke-linejoin="round"/>
<path d="M706.607 575.633C676.204 629.755 665.908 696.344 678.406 758.014" stroke="black" stroke-width="2.2" stroke-miterlimit="10" stroke-linecap="round" stroke-linejoin="round"/>
<path d="M676.482 663.6C655.895 665.244 636.567 656.386 621.68 641.131" stroke="black" stroke-width="2.2" stroke-miterlimit="10" stroke-linecap="round" stroke-linejoin="round"/>
<path d="M813.847 845.96C801.359 801.532 768.366 764.241 727.505 748.369" stroke="black" stroke-width="2.2" stroke-miterlimit="10" stroke-linecap="round" stroke-linejoin="round"/>
<path d="M776.588 781.357C779.168 765.73 786.341 748.336 796.291 736.54" stroke="black" stroke-width="2.2" stroke-miterlimit="10" stroke-linecap="round" stroke-linejoin="round"/>
<path d="M592.541 842.916C621.897 829.567 660.308 831.027 687.213 849.33" stroke="black" stroke-width="2.2" stroke-miterlimit="10" stroke-linecap="round" stroke-linejoin="round"/>
<path d="M207.195 581.315C199.972 606.011 200.89 633.485 211.546 656.784" stroke="black" stroke-width="2.2" stroke-miterlimit="10" stroke-linecap="round" stroke-linejoin="round"/>
<path d="M276.229 644.184C262.959 622.128 259.594 593.608 267.325 568.732" stroke="black" stroke-width="2.2" stroke-miterlimit="10" stroke-linecap="round" stroke-linejoin="round"/>
<path d="M242.544 830.975C207.725 805.632 186.664 760.184 188.935 715.288" stroke="black" stroke-width="2.2" stroke-miterlimit="10" stroke-linecap="round" stroke-linejoin="round"/>
<path d="M200.923 779.289C175.05 764.22 141.451 765.644 116.781 782.855" stroke="black" stroke-width="2.2" stroke-miterlimit="10" stroke-linecap="round" stroke-linejoin="round"/>
<path d="M133.713 704.998C135.683 712.246 138.417 719.254 141.907 725.831" stroke="black" stroke-width="2.2" stroke-miterlimit="10" stroke-linecap="round" stroke-linejoin="round"/>
<path d="M433.79 814.126C455.217 865.853 420.573 915.502 407.757 922.31" stroke="black" stroke-width="2.2" stroke-miterlimit="10" stroke-linecap="round" stroke-linejoin="round"/>
</g>
<path d="M250.988 505.427C240.435 514.031 227.637 524.885 217.084 533.49C216.359 534.081 215.602 534.699 215.054 535.527C214.654 536.134 214.385 536.869 214.384 537.616C214.384 537.897 214.423 538.179 214.509 538.454C214.781 539.328 215.757 540.218 217.456 540.215C217.695 540.215 217.954 540.191 218.222 540.154C216.193 541.71 214.163 543.265 212.134 544.82C211.431 545.361 210.694 545.924 210.152 546.697C209.744 547.281 209.465 547.999 209.464 548.734C209.464 548.98 209.496 549.228 209.567 549.471C209.821 550.346 210.777 551.185 212.331 551.183C212.483 551.183 212.649 551.162 212.812 551.146C211.573 552.196 210.333 553.246 209.094 554.295C208.52 554.782 207.917 555.292 207.478 555.97C207.155 556.471 206.936 557.074 206.935 557.691C206.935 557.915 206.964 558.141 207.03 558.363C207.432 559.694 209.004 560.809 211.28 560.812C211.623 560.812 211.987 560.777 212.362 560.723C211.98 561.085 211.602 561.442 211.218 561.806C210.59 562.402 210.24 563.241 210.24 564.083C210.24 564.637 210.393 565.194 210.723 565.675C211.786 567.219 213.622 567.742 215.426 567.741C216.509 567.741 217.591 567.554 218.521 567.272C221.639 566.327 224.334 564.365 226.948 562.454C235.882 555.919 244.815 549.386 253.748 542.851C257.048 540.434 260.697 537.95 264.563 537.955C264.708 537.955 264.853 537.958 264.999 537.965C265.773 538.003 266.376 538.661 266.375 539.433L266.363 539.622C266.063 542.043 264.937 544.304 263.814 546.519C262.176 549.755 260.538 552.992 258.9 556.227C257.905 558.194 256.882 560.22 256.49 562.454C256.392 563.015 256.339 563.593 256.339 564.171C256.339 565.896 256.805 567.633 257.925 568.929C259.108 570.293 260.95 571.158 262.732 571.162C263.603 571.162 264.462 570.951 265.214 570.48C266.669 569.562 268.66 567.364 270.989 564.392C277.962 555.481 287.848 539.62 293.431 531.242L293.438 531.232C299.855 520.451 306.272 509.672 312.689 498.891C312.755 498.78 250.988 505.427 250.988 505.427Z" fill="#FAF2E6"/>
<path d="M238.071 536.764C228.944 545.424 220.443 553.384 211.372 561.983C210.411 562.894 210.154 564.435 210.909 565.536C212.503 567.86 216.023 567.78 218.455 567.043C221.524 566.114 224.2 564.171 226.813 562.259C235.747 555.724 244.68 549.191 253.614 542.656C257.042 540.149 260.874 537.527 265.009 537.728C265.975 537.774 266.715 538.658 266.59 539.653C266.281 542.131 265.139 544.416 264.017 546.633C262.379 549.868 260.741 553.105 259.103 556.34C258.108 558.307 257.099 560.313 256.716 562.498C256.333 564.684 256.666 567.118 258.096 568.771C259.784 570.724 262.931 571.636 265.094 570.277C270.7 566.755 285.793 542.285 293.241 531.107C299.658 520.327 306.075 509.547 312.492 498.767" stroke="black" stroke-width="2.2" stroke-miterlimit="10" stroke-linecap="round" stroke-linejoin="round"/>
<path d="M235.78 531.999C226.932 539.493 218.085 546.986 209.238 554.48C208.663 554.967 208.08 555.464 207.667 556.103C207.254 556.742 207.03 557.557 207.248 558.293C207.671 559.72 209.693 560.997 212.665 560.439" stroke="black" stroke-width="2.2" stroke-miterlimit="10" stroke-linecap="round" stroke-linejoin="round"/>
<path d="M237.09 525.988C228.817 532.33 220.543 538.671 212.27 545.013C211.566 545.552 210.851 546.103 210.338 546.838C209.824 547.572 209.534 548.533 209.786 549.401C210.038 550.27 211.118 551.175 213.022 550.89" stroke="black" stroke-width="2.2" stroke-miterlimit="10" stroke-linecap="round" stroke-linejoin="round"/>
<path d="M251.308 505.352C240.755 513.957 227.78 525.073 217.226 533.677C216.501 534.269 215.764 534.872 215.244 535.662C214.723 536.451 214.443 537.47 214.728 538.38C215.013 539.29 216.196 540.306 218.493 539.875" stroke="black" stroke-width="2.2" stroke-miterlimit="10" stroke-linecap="round" stroke-linejoin="round"/>
<path d="M444.449 122.539C437.953 110.649 427.527 100.923 415.086 96.4261C407.478 93.676 399.248 92.3907 391.217 93.4301C386.474 94.0432 381.984 95.5412 377.735 97.8006C364.81 104.672 354.584 115.874 347.509 128.927C345.914 131.87 344.42 134.812 343.038 137.654C336.003 152.115 330.866 167.543 323.214 181.663C315.288 196.29 304.059 209.861 288.773 215.587C294.903 223.654 304.717 228.541 314.612 228.504C319.617 228.485 324.547 227.281 329.54 226.924C334.533 226.567 339.875 227.178 343.856 230.326C348.002 218.834 352.198 207.731 356.395 196.627C354.85 207.09 353.76 217.626 353.129 228.192C361.995 229.557 370.63 226.181 379.275 223.781C384.462 222.341 389.991 221.275 395.312 221.555C406.626 222.148 417.876 218.801 426.535 211.224C440.879 198.674 450.467 180.817 452.317 161.848C452.861 148.278 450.903 134.353 444.449 122.539Z" fill="black"/>
<path d="M452.42 160.899C452.393 161.217 452.346 161.531 452.315 161.848C452.312 161.937 452.311 162.026 452.307 162.115L452.42 160.899Z" fill="black"/>
<path d="M380.886 96.3877C363.153 100.593 347.078 118.083 339.544 130.812C331.745 143.99 326.024 158.393 318.295 171.616C310.566 184.838 300.326 197.218 286.601 203.25" stroke="black" stroke-width="2.2" stroke-miterlimit="10" stroke-linecap="round" stroke-linejoin="round"/>
<path d="M384.014 96.3879C382.388 89.8503 377.329 84.3511 371.109 82.3604" stroke="black" stroke-width="2.2" stroke-miterlimit="10" stroke-linecap="round" stroke-linejoin="round"/>
<path d="M386.677 94.5528C387.858 90.0619 386.984 85.0379 384.363 81.2598" stroke="black" stroke-width="2.2" stroke-miterlimit="10" stroke-linecap="round" stroke-linejoin="round"/>
<path d="M391.076 93.7673C392.447 90.9995 392.894 87.7504 392.323 84.6964C391.752 81.6413 390.167 78.8009 387.897 76.7666" stroke="black" stroke-width="2.2" stroke-miterlimit="10" stroke-linecap="round" stroke-linejoin="round"/>
<path d="M430.347 208.858V236.817C430.347 239.739 428.407 242.101 426.007 242.101H398.597C396.197 242.101 394.257 239.739 394.257 236.817V208.858H430.347Z" fill="#FAF2E6"/>
<path d="M430.858 212.603V213.671C428.808 215.424 426.618 216.96 424.298 218.246C415.268 223.256 404.538 224.387 394.768 221.576V213.381C394.878 213.432 394.988 213.484 395.098 213.536C406.338 218.733 419.828 218.391 430.808 212.634C430.828 212.623 430.838 212.613 430.858 212.603Z" fill="black"/>
<path d="M429.637 214.529C429.969 225.812 429.971 230.835 430.35 239.857" stroke="black" stroke-width="1.5" stroke-miterlimit="10" stroke-linecap="round" stroke-linejoin="round"/>
<path d="M393.724 213.69C394.005 221.116 394.273 230.267 394.256 236.244" stroke="black" stroke-width="1.5" stroke-miterlimit="10" stroke-linecap="round" stroke-linejoin="round"/>
<path d="M616.868 748.22C619.378 780.507 621.792 811.573 624.302 843.861C624.952 852.219 625.584 860.779 623.438 868.861C621.291 876.945 615.766 884.59 606.152 884.718C587.652 849.018 569.152 813.32 550.652 777.62C550.18 773.428 551.705 769.066 554.616 766.128C556.604 764.122 559.132 762.812 561.605 761.511C564.078 760.209 566.589 758.848 568.507 756.769C570.425 754.691 571.791 752.484 571.202 749.673" fill="black"/>
<path d="M837.966 645.851C843.259 654.757 854.25 662.589 863.739 666.134C873.228 669.678 883.236 672.143 891.802 677.666C904.074 685.578 912.439 699.714 913.558 714.677C876.36 714.766 839.164 715.651 802.001 717.334C790.484 713.653 780.034 700.333 783.447 685.316" fill="black"/>
<path d="M861.876 667.308C857.834 658.093 856.185 645.93 861.23 632.312C861.77 630.854 862.448 629.29 863.574 628.109C864.884 626.734 866.535 626.212 867.715 626.478C868.895 626.744 869.674 627.676 870.265 628.741C872.341 632.475 872.433 637.986 871.333 643.738C870.233 649.49 868.008 655.512 865.57 661.467C864.839 663.251 863.988 665.184 862.565 666.552C866.078 662.237 870.116 658.565 874.173 655.129C881.67 648.778 889.814 642.854 897.279 641.351C899.698 640.863 902.212 641.009 902.91 643.149C903.411 644.685 902.822 646.996 901.686 649.069C900.55 651.142 898.929 653.002 897.244 654.617C893.635 658.075 889.645 660.573 885.741 662.491C877.905 666.341 870.16 668.022 863.496 667.321" stroke="black" stroke-width="2.2" stroke-miterlimit="10" stroke-linecap="round" stroke-linejoin="round"/>
<path d="M616.642 773.042C624.844 767.555 636.205 764.097 649.926 767.299C651.395 767.641 652.985 768.11 654.276 769.094C655.777 770.239 656.515 771.858 656.432 773.108C656.35 774.358 655.574 775.293 654.645 776.054C651.384 778.728 646.142 779.621 640.496 779.327C634.85 779.034 628.783 777.624 622.75 775.986C620.942 775.495 618.975 774.902 617.464 773.64C622.09 776.62 626.178 780.232 630.045 783.896C637.19 790.669 644.022 798.168 646.54 805.611C647.356 808.023 647.582 810.625 645.643 811.652C644.25 812.39 641.96 812.12 639.819 811.256C637.677 810.391 635.668 808.997 633.883 807.502C630.061 804.299 627.099 800.567 624.704 796.838C619.895 789.355 617.167 781.649 616.869 774.707" stroke="black" stroke-width="2.2" stroke-miterlimit="10" stroke-linecap="round" stroke-linejoin="round"/>
<path d="M447.931 236.244L508.602 387.915C521.917 403.546 537.793 422.062 550.138 436.394L636.874 434.326C575.671 371.865 498.088 293.69 447.931 236.244Z" fill="#CDB8F8"/>
<path d="M852.724 635.276C802.277 575.68 749.885 517.856 695.668 461.937C684.71 450.213 670.43 440.49 657.05 436.506C646.553 433.38 635.593 432.524 624.653 432.524C622.037 432.524 619.423 432.573 616.816 432.652C603.31 433.058 590.069 433.676 575.634 434.368C570.931 433.101 566.155 432.152 561.381 431.516C554.956 430.66 548.512 430.297 542.06 430.297C535.232 430.297 528.395 430.705 521.565 431.366L521.138 430.416C515.213 415.76 511.598 408.188 505.675 393.538L505.569 393.585L505.463 393.632C466.321 395.095 377.888 397.646 377.888 397.646C377.892 397.632 377.896 397.617 377.9 397.602L377.789 397.568L377.678 397.535C373.809 411.342 369.808 426.827 368.244 441.124C367.758 445.563 367.488 450.048 367.488 454.528C367.488 464.324 368.779 474.096 371.937 483.304C376.325 496.089 389.642 511.452 401.301 517.602L401.326 517.616H401.327C410.707 522.558 420.704 526.143 431.04 528.181C448.173 531.558 465.708 532.75 483.36 532.75C504.098 532.75 524.997 531.105 545.591 529.423L545.582 529.304L545.573 529.19L546.584 529.144C541.721 602.129 536.857 675.114 531.994 748.099L531.986 748.219L532.102 748.228C545.126 749.07 558.18 749.526 571.318 749.526C596.671 749.526 622.335 747.826 648.7 743.919L648.803 743.904L648.799 743.797C646.636 680.478 643.619 614.109 641.384 550.535L642.517 552.535L642.434 552.618C685.659 599.406 728.884 646.195 772.108 692.984L772.176 693.056L772.257 692.999C799.072 673.818 825.887 654.637 852.701 635.454L852.808 635.378L852.724 635.276Z" fill="#00968B"/>
<path d="M546.678 529.51C547.476 517.538 548.274 505.565 549.071 493.593" stroke="black" stroke-width="1.5" stroke-miterlimit="10" stroke-linecap="round" stroke-linejoin="round"/>
<path d="M487.279 436.255C511.814 432.311 536.741 428.357 561.367 431.636C585.993 434.914 610.719 446.455 624.721 467.725C638.747 489.033 640.097 516.371 640.978 542.158C641.094 545.548 641.212 548.946 641.332 552.352" stroke="black" stroke-width="1.5" stroke-miterlimit="10" stroke-linecap="round" stroke-linejoin="round"/>
<path d="M358.652 397.951C366.226 343.746 376.521 289.007 381.292 234.602C406.939 240.126 423.722 237.614 444.95 231.188C475.134 270.473 502.437 338.732 509.323 393.389C447.012 395.679 432.432 396.531 358.652 397.951Z" fill="#CDB8F8"/>
<path d="M247.442 506.251C238.026 506.057 228.569 505.805 219.086 505.468C288.533 391.674 313.354 351.879 385.12 240.539C393.583 268.975 394.279 299.839 387.13 328.653C354.914 405.348 352.035 412.65 312.491 507.421C292.792 507.317 267.655 506.667 247.442 506.251Z" fill="#CDB8F8"/>
<path d="M320.62 453.421L331.82 446.16" stroke="black" stroke-width="2.2" stroke-miterlimit="10" stroke-linecap="round" stroke-linejoin="round"/>
<path d="M402.867 268.523L413.552 276.577" stroke="black" stroke-width="2.2" stroke-miterlimit="10" stroke-linecap="round" stroke-linejoin="round"/>
<path d="M555.698 363.81L558.553 377.817" stroke="black" stroke-width="2.2" stroke-miterlimit="10" stroke-linecap="round" stroke-linejoin="round"/>
<path d="M397.657 361.876L390.217 349.989" stroke="black" stroke-width="2.2" stroke-miterlimit="10" stroke-linecap="round" stroke-linejoin="round"/>
<path d="M432.992 356.631L421.224 362.851" stroke="black" stroke-width="2.2" stroke-miterlimit="10" stroke-linecap="round" stroke-linejoin="round"/>
<path d="M495.748 307.729L502.49 325.041" stroke="black" stroke-width="2.2" stroke-miterlimit="10" stroke-linecap="round" stroke-linejoin="round"/>
<path d="M294.587 425.952L281.315 423.275" stroke="black" stroke-width="2.2" stroke-miterlimit="10" stroke-linecap="round" stroke-linejoin="round"/>
<path d="M605.905 406.214L594.354 412.857" stroke="black" stroke-width="2.2" stroke-miterlimit="10" stroke-linecap="round" stroke-linejoin="round"/>
<path d="M584.99 415.56L577.587 426.944" stroke="black" stroke-width="2.2" stroke-miterlimit="10" stroke-linecap="round" stroke-linejoin="round"/>
<path d="M435.162 277.826L440.743 265.408" stroke="black" stroke-width="2.2" stroke-miterlimit="10" stroke-linecap="round" stroke-linejoin="round"/>
<path d="M341.269 329.592L345.569 342.547" stroke="black" stroke-width="2.2" stroke-miterlimit="10" stroke-linecap="round" stroke-linejoin="round"/>
<path d="M382.614 381.032L372.773 390.171" stroke="black" stroke-width="2.2" stroke-miterlimit="10" stroke-linecap="round" stroke-linejoin="round"/>
<path d="M572.546 379.811L583.327 391.393" stroke="black" stroke-width="2.2" stroke-miterlimit="10" stroke-linecap="round" stroke-linejoin="round"/>
<path d="M532.191 369.88L521.493 355.675" stroke="black" stroke-width="2.2" stroke-miterlimit="10" stroke-linecap="round" stroke-linejoin="round"/>
<path d="M345.785 374.5L351.781 386.708" stroke="black" stroke-width="2.2" stroke-miterlimit="10" stroke-linecap="round" stroke-linejoin="round"/>
<path d="M380.221 290.428L377.489 277.022" stroke="black" stroke-width="2.2" stroke-miterlimit="10" stroke-linecap="round" stroke-linejoin="round"/>
<path d="M469.694 384.455L476.773 370.042" stroke="black" stroke-width="2.2" stroke-miterlimit="10" stroke-linecap="round" stroke-linejoin="round"/>
<path d="M447.038 292.796L452.828 280.482" stroke="black" stroke-width="2.2" stroke-miterlimit="10" stroke-linecap="round" stroke-linejoin="round"/>
<path d="M363.058 343.542L372.066 332.793" stroke="black" stroke-width="2.2" stroke-miterlimit="10" stroke-linecap="round" stroke-linejoin="round"/>
<path d="M465.431 311.262L450.559 310.185" stroke="black" stroke-width="2.2" stroke-miterlimit="10" stroke-linecap="round" stroke-linejoin="round"/>
<path d="M278.963 446.259L279.655 459.941" stroke="black" stroke-width="2.2" stroke-miterlimit="10" stroke-linecap="round" stroke-linejoin="round"/>
<path d="M532.61 391.037L544.378 397.257" stroke="black" stroke-width="2.2" stroke-miterlimit="10" stroke-linecap="round" stroke-linejoin="round"/>
<path d="M309.167 404.554L303.726 390.586" stroke="black" stroke-width="2.2" stroke-miterlimit="10" stroke-linecap="round" stroke-linejoin="round"/>
<path d="M549.386 417.617L563.153 407.616" stroke="black" stroke-width="2.2" stroke-miterlimit="10" stroke-linecap="round" stroke-linejoin="round"/>
<path d="M447.653 389.254L438.123 379.368" stroke="black" stroke-width="2.2" stroke-miterlimit="10" stroke-linecap="round" stroke-linejoin="round"/>
<path d="M458.426 345.035L455.72 359.478" stroke="black" stroke-width="2.2" stroke-miterlimit="10" stroke-linecap="round" stroke-linejoin="round"/>
<path d="M313.368 372.361L320.374 360.267" stroke="black" stroke-width="2.2" stroke-miterlimit="10" stroke-linecap="round" stroke-linejoin="round"/>
<path d="M306.652 469.24L313.885 485.33" stroke="black" stroke-width="2.2" stroke-miterlimit="10" stroke-linecap="round" stroke-linejoin="round"/>
<path d="M477.547 332.232L465.481 337.805" stroke="black" stroke-width="2.2" stroke-miterlimit="10" stroke-linecap="round" stroke-linejoin="round"/>
<path d="M426.497 299.034L412.45 297.244" stroke="black" stroke-width="2.2" stroke-miterlimit="10" stroke-linecap="round" stroke-linejoin="round"/>
<path d="M427.98 340.775L436.162 328.654" stroke="black" stroke-width="2.2" stroke-miterlimit="10" stroke-linecap="round" stroke-linejoin="round"/>
<path d="M428.156 255.522L412.233 251.096" stroke="black" stroke-width="2.2" stroke-miterlimit="10" stroke-linecap="round" stroke-linejoin="round"/>
<path d="M367.904 301.054L359.397 311.571" stroke="black" stroke-width="2.2" stroke-miterlimit="10" stroke-linecap="round" stroke-linejoin="round"/>
<path d="M401.463 334.858L403.356 320.889" stroke="black" stroke-width="2.2" stroke-miterlimit="10" stroke-linecap="round" stroke-linejoin="round"/>
<path d="M247.636 478.711L261.057 481.165" stroke="black" stroke-width="2.2" stroke-miterlimit="10" stroke-linecap="round" stroke-linejoin="round"/>
<path d="M501.683 340.365L519.304 337.797" stroke="black" stroke-width="2.2" stroke-miterlimit="10" stroke-linecap="round" stroke-linejoin="round"/>
<path d="M409.837 378.356L418.433 387.274" stroke="black" stroke-width="2.2" stroke-miterlimit="10" stroke-linecap="round" stroke-linejoin="round"/>
<path d="M336.003 417.583L328.562 405.696" stroke="black" stroke-width="2.2" stroke-miterlimit="10" stroke-linecap="round" stroke-linejoin="round"/>
<path d="M314.917 434.394L305.076 443.532" stroke="black" stroke-width="2.2" stroke-miterlimit="10" stroke-linecap="round" stroke-linejoin="round"/>
<path d="M280.698 491.275L292.466 497.496" stroke="black" stroke-width="2.2" stroke-miterlimit="10" stroke-linecap="round" stroke-linejoin="round"/>
<path d="M449.007 237.48L509.112 387.739" stroke="black" stroke-width="1.5" stroke-miterlimit="10" stroke-linecap="round" stroke-linejoin="round"/>
<path d="M359.223 396.321C366.833 378.083 374.964 358.656 387.632 328.497C394.67 300.163 394.118 269.844 386.052 241.8" stroke="black" stroke-width="1.5" stroke-miterlimit="10" stroke-linecap="round" stroke-linejoin="round"/>
<path d="M452.137 183.494C449.527 195.974 441.277 207.043 430.297 212.81C419.317 218.568 405.827 218.91 394.587 213.713C383.547 208.609 373.977 196.731 370.627 184.614C364.817 184.884 358.607 182.28 357.737 174.344C356.957 167.134 363.437 161.159 369.967 160.557L389.987 109.145L434.137 122.579C439.707 131.822 445.247 141.189 448.937 151.408C452.627 161.615 454.377 172.839 452.137 183.494Z" fill="#FAF2E6"/>
<path d="M411.6 174.881C412.725 177.425 410.178 181.132 405.912 183.162C401.646 185.193 397.276 184.777 396.151 182.233C395.026 179.689 397.573 175.982 401.839 173.951C406.105 171.921 410.475 172.337 411.6 174.881Z" fill="#EFD9CB"/>
<path d="M446.771 158.492C447.82 160.864 445.952 164.08 442.598 165.677C439.244 167.272 435.675 166.644 434.627 164.271C433.578 161.899 435.446 158.683 438.8 157.086C442.154 155.491 445.722 156.119 446.771 158.492Z" fill="#EFD9CB"/>
<path d="M375.718 170.461C371.896 172.229 367.948 173.702 363.917 174.867L375.718 170.461Z" fill="white"/>
<path d="M437.736 141.353C433.418 141.371 429.1 141.39 424.782 141.409L437.736 141.353Z" fill="white"/>
<path d="M406.494 150.736C403.481 153.892 400.469 157.048 397.456 160.204L406.494 150.736Z" fill="white"/>
<path d="M410.389 164.755C410.389 165.688 409.66 166.444 408.761 166.444C407.862 166.444 407.133 165.688 407.133 164.755C407.133 163.823 407.862 163.066 408.761 163.066C409.66 163.066 410.389 163.823 410.389 164.755Z" fill="white"/>
<path d="M436.669 151.576C436.669 152.508 435.94 153.264 435.041 153.264C434.142 153.264 433.413 152.508 433.413 151.576C433.413 150.643 434.142 149.887 435.041 149.887C435.94 149.887 436.669 150.643 436.669 151.576Z" fill="white"/>
<path d="M434.14 122.575C439.708 131.825 445.251 141.188 448.937 151.401C452.623 161.614 454.377 172.841 452.142 183.498C449.526 195.971 441.274 207.042 430.294 212.806C419.315 218.57 405.828 218.912 394.59 213.712C383.352 208.511 374.588 197.872 371.387 185.546" stroke="black" stroke-width="1.5" stroke-miterlimit="10" stroke-linecap="round" stroke-linejoin="round"/>
<path d="M369.972 160.561C363.439 161.162 356.955 167.133 357.739 174.34C358.838 184.434 368.591 185.907 375.149 183.811C376.525 183.372 377.883 182.795 379.076 181.947" stroke="black" stroke-width="1.5" stroke-miterlimit="10" stroke-linecap="round" stroke-linejoin="round"/>
<path d="M375.718 170.461C371.896 172.229 367.948 173.702 363.917 174.867" stroke="black" stroke-width="1.5" stroke-miterlimit="10" stroke-linecap="round" stroke-linejoin="round"/>
<path d="M437.736 141.352C433.418 141.37 429.1 141.389 424.782 141.408" stroke="black" stroke-width="2.2" stroke-miterlimit="10" stroke-linecap="round" stroke-linejoin="round"/>
<path d="M406.494 150.735C403.481 153.891 400.469 157.047 397.456 160.203" stroke="black" stroke-width="1.5" stroke-miterlimit="10" stroke-linecap="round" stroke-linejoin="round"/>
<path d="M423.862 152.938C423.902 154.925 424.936 156.736 426.076 158.333C427.216 159.929 428.512 161.451 429.223 163.296C429.934 165.14 429.928 167.453 428.622 168.906C427.267 170.413 424.672 170.433 423.297 168.945" stroke="black" stroke-width="1.5" stroke-miterlimit="10" stroke-linecap="round" stroke-linejoin="round"/>
<path d="M415.841 179.105C416.618 180.967 418.237 182.427 420.121 182.967C422.006 183.506 424.117 183.114 425.704 181.929" stroke="black" stroke-width="1.5" stroke-miterlimit="10" stroke-linecap="round" stroke-linejoin="round"/>
<path d="M410.389 164.755C410.389 165.688 409.66 166.444 408.761 166.444C407.862 166.444 407.133 165.688 407.133 164.755C407.133 163.823 407.862 163.066 408.761 163.066C409.66 163.066 410.389 163.823 410.389 164.755Z" fill="black"/>
<path d="M436.669 151.575C436.669 152.507 435.94 153.263 435.041 153.263C434.142 153.263 433.413 152.507 433.413 151.575C433.413 150.642 434.142 149.886 435.041 149.886C435.94 149.886 436.669 150.642 436.669 151.575Z" fill="black"/>
<path d="M361.495 157.671C360.175 151.188 359.648 144.509 360.42 137.938C361.268 130.718 363.738 123.626 368.044 117.885C376.05 107.211 389.842 102.255 402.844 103.249C416.143 104.264 426.172 111.781 436.541 120.455C420.924 129.199 400.11 125.013 390.481 110.613C394.227 121.595 392.717 134.278 386.681 144.065C381.242 152.883 372.206 159.227 362.291 161.182C362.001 160.02 361.735 158.848 361.495 157.671Z" fill="black"/>
<path d="M453.886 139.57C468.514 123.207 480.867 109.838 500.875 101.252C522.123 92.1346 547.024 89.0276 569.784 88.3108C614.73 86.8958 662.174 102.332 695.182 134.399C715.204 153.85 716.662 176.476 696.456 195.078C676.239 213.689 637.09 232.07 608.909 227.022C589.537 223.552 598.595 212.566 610.469 203.949C643.687 179.844 698.601 175.636 737.094 185.387C784.689 197.445 827.307 224.418 851.073 270.154C870.002 306.581 874.342 348.247 859.339 387.106C845.069 424.064 824.341 452.415 793.493 475.791C782.376 484.216 768.65 495.021 755.672 499.518" stroke="black" stroke-width="2.2" stroke-miterlimit="10" stroke-linecap="round" stroke-linejoin="round" stroke-dasharray="12 12"/>
<path d="M532.579 197.568C533.256 193.236 530.42 189.155 526.244 188.452C522.068 187.748 518.134 190.69 517.456 195.022C516.778 199.354 519.614 203.436 523.79 204.139C527.966 204.842 531.901 201.9 532.579 197.568Z" fill="black"/>
<path d="M200.955 172.968V158.166" stroke="black" stroke-width="2.2" stroke-miterlimit="10" stroke-linecap="round" stroke-linejoin="round"/>
<path d="M182.717 165.131L192.808 154.664" stroke="black" stroke-width="2.2" stroke-miterlimit="10" stroke-linecap="round" stroke-linejoin="round"/>
<path d="M175.163 146.211H189.433" stroke="black" stroke-width="2.2" stroke-miterlimit="10" stroke-linecap="round" stroke-linejoin="round"/>
<path d="M182.717 127.291L192.808 137.758" stroke="black" stroke-width="2.2" stroke-miterlimit="10" stroke-linecap="round" stroke-linejoin="round"/>
<path d="M200.955 119.455V134.259" stroke="black" stroke-width="2.2" stroke-miterlimit="10" stroke-linecap="round" stroke-linejoin="round"/>
<path d="M219.194 127.291L209.103 137.758" stroke="black" stroke-width="2.2" stroke-miterlimit="10" stroke-linecap="round" stroke-linejoin="round"/>
<path d="M226.748 146.211H212.478" stroke="black" stroke-width="2.2" stroke-miterlimit="10" stroke-linecap="round" stroke-linejoin="round"/>
<path d="M219.193 165.131L209.103 154.664" stroke="black" stroke-width="2.2" stroke-miterlimit="10" stroke-linecap="round" stroke-linejoin="round"/>
<path d="M179.123 310.515C154.277 297.564 116.171 282.022 95.6464 310.84C79.3424 333.731 91.3934 369.138 107.514 388.437C115.905 398.483 127.56 407.004 140.823 407.223C152.061 407.41 175.234 399.349 169.931 383.226C162.748 361.404 122.241 365.795 105.3 367.471C73.6444 370.602 40.8254 383.375 19.9084 409.181C-7.67358 443.208 -4.95358 485.548 17.9824 520.948C42.2724 558.437 76.0614 584.553 116.256 601.091" stroke="black" stroke-width="2.2" stroke-miterlimit="10" stroke-linecap="round" stroke-linejoin="round" stroke-dasharray="12 12"/>
<path d="M617.667 349.467C627.256 349.467 635.029 341.403 635.029 331.455C635.029 321.508 627.256 313.444 617.667 313.444C608.079 313.444 600.305 321.508 600.305 331.455C600.305 341.403 608.079 349.467 617.667 349.467Z" stroke="black" stroke-width="2.2" stroke-miterlimit="10" stroke-linecap="round" stroke-linejoin="round"/>
<path d="M130.696 505.133C133.688 502.03 133.688 496.999 130.696 493.896C127.705 490.793 122.855 490.793 119.864 493.896C116.872 496.999 116.872 502.03 119.864 505.134C122.855 508.237 127.705 508.237 130.696 505.133Z" fill="black"/>
<path d="M850.965 107.604C837.126 112.258 833.49 116.031 829.004 130.386C824.518 116.03 820.881 112.258 807.043 107.604C820.882 102.951 824.518 99.1776 829.004 84.8223C833.49 99.1776 837.126 102.951 850.965 107.604Z" stroke="black" stroke-width="2.2" stroke-miterlimit="10" stroke-linecap="round" stroke-linejoin="round"/>
<path d="M41.3933 264.81C28.6173 269.107 25.2593 272.59 21.1183 285.844C16.9763 272.591 13.6193 269.107 0.843262 264.81C13.6193 260.514 16.9773 257.031 21.1183 243.776C25.2593 257.031 28.6163 260.514 41.3933 264.81Z" stroke="black" stroke-width="2.2" stroke-miterlimit="10" stroke-linecap="round" stroke-linejoin="round"/>
<path d="M84.4443 75.2755C86.2163 80.9925 83.1853 87.1173 77.6733 88.9555C72.1623 90.7937 66.2583 87.6484 64.4863 81.9314C62.7143 76.2143 65.7463 70.0896 71.2573 68.2513C76.7683 66.4131 82.6723 69.5585 84.4443 75.2755Z" stroke="black" stroke-width="2.2" stroke-miterlimit="10" stroke-linecap="round" stroke-linejoin="round"/>
<path d="M752.223 371.988H785.159" stroke="black" stroke-width="2.2" stroke-miterlimit="10" stroke-linecap="round" stroke-linejoin="round"/>
<path d="M768.691 354.904V389.072" stroke="black" stroke-width="2.2" stroke-miterlimit="10" stroke-linecap="round" stroke-linejoin="round"/>
<path d="M688.921 30.9009C694.404 25.2122 694.404 15.989 688.921 10.3003C683.437 4.61159 674.546 4.61159 669.062 10.3003C663.579 15.989 663.579 25.2122 669.062 30.9009C674.546 36.5896 683.437 36.5896 688.921 30.9009Z" stroke="black" stroke-width="2.2" stroke-miterlimit="10" stroke-linecap="round" stroke-linejoin="round"/>
<path d="M274.539 52.8369C274.539 55.9086 272.138 58.3993 269.177 58.3993C266.216 58.3993 263.815 55.9086 263.815 52.8369C263.815 49.7652 266.215 47.2744 269.177 47.2744C272.138 47.2755 274.539 49.7652 274.539 52.8369Z" fill="black"/>
<path d="M872.963 509.137C872.963 511.77 870.905 513.905 868.367 513.905C865.829 513.905 863.771 511.77 863.771 509.137C863.771 506.504 865.829 504.369 868.367 504.369C870.905 504.369 872.963 506.504 872.963 509.137Z" fill="black"/>
</svg>
