<svg width="23" height="26" viewBox="0 0 23 26" fill="none" xmlns="http://www.w3.org/2000/svg">
<path d="M16.2051 3.07319C16.2051 1.79928 17.1201 0.76709 18.2491 0.76709C19.3781 0.76709 20.2931 1.79928 20.2931 3.07319C20.2931 4.3471 19.3781 5.37929 18.2491 5.37929C17.1201 5.37929 16.2051 4.3471 16.2051 3.07319Z" fill="black"/>
<path d="M0 8.29731C0 7.0234 0.915006 5.99121 2.04401 5.99121C3.17301 5.99121 4.08801 7.0234 4.08801 8.29731C4.08801 9.57122 3.17301 10.6034 2.04401 10.6034C0.915006 10.6034 0 9.57122 0 8.29731Z" fill="black"/>
<path d="M10.3311 13.6576C10.3311 12.5248 11.145 11.6067 12.148 11.6067C13.151 11.6067 13.965 12.5248 13.965 13.6576C13.965 14.7904 13.151 15.7085 12.148 15.7085C11.145 15.7085 10.3311 14.7904 10.3311 13.6576Z" fill="black"/>
<path d="M21.2701 11.6077C22.1491 15.6825 20.799 20.5292 17.586 22.6786C9.51003 28.0803 3.13103 19.4378 2.23303 17.75" stroke="black" stroke-width="2.2" stroke-miterlimit="10" stroke-linecap="round" stroke-linejoin="round"/>
</svg>
