<svg width="315" height="495" viewBox="0 0 315 495" fill="none" xmlns="http://www.w3.org/2000/svg">
<path d="M147.864 42.6666C144.576 55.862 144.66 71.9394 154.859 81.975C158.618 85.6727 163.526 88.5443 168.795 88.7854C179.406 89.2714 187.225 77.9265 185.643 67.5516C185.252 64.9895 184.236 62.502 182.493 60.6134C175.294 52.8115 164.145 59.0194 158.447 65.4418C152.151 72.5379 148.948 81.9817 148.198 91.4869C147.853 95.8584 147.714 100.269 147.945 104.652" stroke="black" stroke-width="2.2" stroke-miterlimit="10" stroke-linecap="round" stroke-linejoin="round"/>
<path d="M148.728 19.6002C151.616 14.4385 154.284 8.65295 161.026 9.63205C164.12 10.0811 165.869 12.056 166.237 15.1715C166.687 18.9931 164.844 23.901 161.075 25.3179C166.91 23.3263 177.778 27.8384 178.478 34.9008C178.896 39.1136 173.885 40.0988 170.763 39.8833C166.948 39.6202 162.924 37.476 159.625 35.5703C163.256 37.8931 164.633 45.5917 163.453 48.5134C161.386 53.629 156.545 53.0244 152.918 49.8866C150.923 48.1602 148.519 45.22 147.9 42.0626C145.883 47.9543 139.709 53.47 136.299 53.4604C132.096 53.4487 129.736 49.7751 130.744 45.7937C131.513 42.7581 133.178 40.4083 134.905 37.9205C133.381 39.2542 130.256 39.7846 128.468 39.6277C120.574 38.9354 116.437 34.2689 115.579 28.717C114.374 20.9236 125.823 17.6761 130.548 22.1907C126.762 18.2806 124.279 12.8367 127.144 7.55885C129.833 2.60656 135.52 0.182596 140.285 3.58352C144.778 6.78991 147.896 14.0508 148.728 19.6002Z" stroke="black" stroke-width="2.2" stroke-miterlimit="10" stroke-linecap="round" stroke-linejoin="round"/>
<path d="M154.425 33.1084C155.159 31.1486 152.745 28.3479 149.034 26.8529C145.323 25.3578 141.719 25.7347 140.986 27.6945C140.252 29.6543 142.666 32.4551 146.377 33.9501C150.088 35.4451 153.691 35.0683 154.425 33.1084Z" fill="#FAEDE4" stroke="black" stroke-width="2.2" stroke-miterlimit="10" stroke-linecap="round" stroke-linejoin="round"/>
<path d="M263.484 227.417C260.88 224.669 257.941 222.257 255.34 219.508C251.943 215.919 249.384 211.805 247.622 207.118C245.786 202.233 244.704 197.072 243.692 191.95C241.579 181.262 240.061 170.387 236.628 160.035C225.48 126.41 192.142 102.662 158.267 101.168C154.799 101.015 151.321 101.103 147.866 101.456C129.043 103.383 111.932 113.732 99.3539 128.113C87.5333 141.629 79.5009 158.352 74.8062 175.859C73.4168 181.041 72.3118 186.303 71.4837 191.612C70.676 196.789 70.1894 202.01 69.5095 207.205C68.823 212.451 67.9281 217.695 66.2821 222.719C64.7237 227.477 62.4124 231.862 59.6562 235.982C54.5991 243.541 48.4068 250.208 43.5888 257.949C39.3601 264.743 35.5158 272.188 33.5508 280.057C32.7836 283.131 31.2932 288.471 34.1473 289.977C37.2556 291.619 44.1863 290.657 47.6967 290.818C56.7232 291.231 65.7585 291.378 74.7925 291.464C91.8581 291.626 108.927 291.434 125.989 291.089C142.772 290.75 159.551 290.25 176.326 289.644C189.44 289.17 202.553 288.631 215.662 288.028C219.787 287.838 223.912 287.642 228.036 287.437C229.305 287.373 230.575 287.31 231.844 287.245C232.452 287.213 233.27 287.32 233.856 287.14C233.941 287.114 234.083 287.139 234.136 287.146C235.185 280.937 235.863 274.645 236.277 268.358C236.497 265.018 236.632 261.671 236.683 258.324C236.707 256.761 236.712 255.198 236.699 253.635C236.692 252.743 236.679 251.85 236.659 250.958C236.646 250.369 236.467 249.515 236.632 248.947C236.953 249.668 237.415 250.333 237.809 251.013C238.873 252.848 239.894 254.709 240.868 256.597C242.793 260.332 244.534 264.169 246.081 268.089C248.343 273.818 250.06 279.708 251.641 285.669C255.856 285.277 260.076 284.887 264.292 284.489C267.879 284.15 271.465 283.808 275.051 283.459C276.778 283.291 278.505 283.121 280.232 282.948C280.951 282.876 281.671 282.804 282.39 282.73C282.725 282.695 283.07 282.684 283.402 282.632C283.987 282.543 284.02 282.514 283.964 281.87C283.333 274.576 281.417 267.213 279.389 260.226C277.122 252.409 274.33 244.655 270.503 237.505C268.866 234.445 267.02 231.463 264.772 228.842C264.355 228.356 263.924 227.882 263.484 227.417Z" fill="black"/>
<path d="M196.754 236.242H121.405V322.788H196.754V236.242Z" fill="#FAF2E6"/>
<path d="M192.379 251.961C190.592 253.456 188.792 254.939 186.983 256.405C183.224 259.453 179.151 262.074 174.989 264.483C170.814 266.899 166.529 269.113 162.128 271.053C157.78 272.969 153.295 274.705 148.706 275.889C145.285 276.772 141.771 277.432 138.241 277.656C142.487 278.709 146.799 279.482 151.14 279.977C162.251 281.246 183.555 273.122 189.598 270.355C192.04 269.236 194.428 267.993 196.754 266.642V247.951C195.377 249.378 193.893 250.693 192.379 251.961Z" fill="black"/>
<path d="M196.754 236.242H121.405V322.788H196.754V236.242Z" stroke="black" stroke-width="2.2" stroke-miterlimit="10" stroke-linecap="round" stroke-linejoin="round"/>
<path d="M215.801 183.138C227.767 181.315 237.177 192.538 235.903 204.432C233.917 222.979 211.021 224.237 198.199 217.624" fill="#FAF2E6"/>
<path d="M215.801 183.138C227.767 181.315 237.177 192.538 235.903 204.432C233.917 222.979 211.021 224.237 198.199 217.624" stroke="black" stroke-width="2.2" stroke-miterlimit="10" stroke-linecap="round" stroke-linejoin="round"/>
<path d="M211.958 202.289L226.667 202.322" stroke="black" stroke-width="2.2" stroke-miterlimit="10" stroke-linecap="round" stroke-linejoin="round"/>
<path d="M217.212 158.826C213.625 143.188 204.505 129.205 192.557 119.096C179.927 108.41 163.694 101.738 147.242 103.212C137.932 104.046 128.729 107.385 121.257 113.27C116.974 116.643 113.388 120.865 110.131 125.278C103.933 133.678 99.241 143.122 94.9 152.655C91.2955 160.571 88.1116 168.707 85.6751 177.094C81.2904 192.187 79.3925 207.94 80.0721 223.593C80.7045 238.152 84.0113 252.565 93.4518 263.776C99.0076 270.373 106.175 275.349 114.088 278.378C135.208 286.462 162.147 283.32 181.113 270.745C197.908 259.61 207.691 240.32 214.142 220.964C220.758 201.111 221.901 179.274 217.212 158.826Z" fill="#FAF2E6"/>
<path d="M217.212 158.826C213.625 143.188 204.505 129.205 192.557 119.096C179.927 108.41 163.694 101.738 147.242 103.212C137.932 104.046 128.729 107.385 121.257 113.27C116.974 116.643 113.388 120.865 110.131 125.278C103.933 133.678 99.241 143.122 94.9 152.655C91.2955 160.571 88.1116 168.707 85.6751 177.094C81.2904 192.187 79.3925 207.94 80.0721 223.593C80.7045 238.152 84.0113 252.565 93.4518 263.776C99.0076 270.373 106.175 275.349 114.088 278.378C135.208 286.462 162.147 283.32 181.113 270.745C197.908 259.61 207.691 240.32 214.142 220.964C220.758 201.111 221.901 179.274 217.212 158.826Z" stroke="black" stroke-width="2.2" stroke-miterlimit="10" stroke-linecap="round" stroke-linejoin="round"/>
<path d="M106.07 217.262C113.694 217.262 119.875 213.691 119.875 209.286C119.875 204.88 113.694 201.309 106.07 201.309C98.4462 201.309 92.2656 204.88 92.2656 209.286C92.2656 213.691 98.4462 217.262 106.07 217.262Z" fill="#EFD9CB"/>
<path d="M171.952 217.262C179.576 217.262 185.757 213.691 185.757 209.286C185.757 204.88 179.576 201.309 171.952 201.309C164.328 201.309 158.147 204.88 158.147 209.286C158.147 213.691 164.328 217.262 171.952 217.262Z" fill="#EFD9CB"/>
<path d="M167.212 191.623C166.814 189.501 165.633 187.509 163.872 186.353C162.111 185.197 159.772 184.959 157.905 185.92C155.735 187.036 154.498 189.522 154.058 191.993" stroke="black" stroke-width="2.2" stroke-miterlimit="10" stroke-linecap="round" stroke-linejoin="round"/>
<path d="M121.009 192.921C120.612 190.799 119.43 188.807 117.67 187.651C115.909 186.494 113.57 186.257 111.703 187.218C109.533 188.334 108.296 190.82 107.855 193.291" stroke="black" stroke-width="2.2" stroke-miterlimit="10" stroke-linecap="round" stroke-linejoin="round"/>
<path d="M156.281 166.63C161.998 167.706 167.719 168.784 173.364 170.209C174.361 170.461 175.383 170.737 176.209 171.368C177.034 172 177.625 173.079 177.408 174.119C177.195 175.136 176.264 175.857 175.289 176.103C174.315 176.349 173.293 176.211 172.299 176.071C167.042 175.336 161.761 174.594 156.675 173.032C155.236 172.59 153.737 172.028 152.788 170.822C151.84 169.615 151.73 167.573 152.941 166.653C153.877 165.942 155.167 166.141 156.305 166.371C157.996 166.714 159.688 167.057 161.379 167.399" fill="black"/>
<path d="M104.954 171.257C110.613 169.893 116.277 168.528 122.005 167.515C123.016 167.336 124.06 167.168 125.059 167.409C126.059 167.65 127.014 168.396 127.212 169.44C127.405 170.461 126.826 171.506 126.025 172.133C125.225 172.76 124.234 173.054 123.268 173.335C118.161 174.822 113.03 176.314 107.763 176.973C106.273 177.159 104.683 177.26 103.351 176.543C102.019 175.826 101.138 173.996 101.898 172.653C102.485 171.616 103.745 171.268 104.878 171.011C106.562 170.629 108.246 170.248 109.929 169.867" fill="black"/>
<path d="M142.23 205.007C141.341 207.311 139.229 209.188 136.838 209.282C134.448 209.377 132.033 207.345 132.017 204.863C132.002 202.522 133.836 200.694 135.042 198.715C136.609 196.143 137.188 192.942 136.624 189.956" stroke="black" stroke-width="2.2" stroke-miterlimit="10" stroke-linecap="round" stroke-linejoin="round"/>
<path d="M148.329 211.376C149.322 213.086 149.974 215.063 149.865 217.056C149.756 219.05 148.803 221.046 147.158 222.083C146.526 222.481 145.8 222.733 145.06 222.749C143.23 222.791 141.646 221.43 140.513 219.937C139.703 218.869 139.025 217.694 138.5 216.45C140.312 217.656 142.75 217.77 144.659 216.737C146.568 215.705 147.875 213.566 147.96 211.334" fill="black"/>
<path d="M219.596 156.426C215.728 139.949 206.438 124.705 192.894 114.999C191.501 114.001 190.066 113.067 188.59 112.206C178.926 106.567 167.862 103.705 156.857 102.859C151.595 102.455 146.277 102.629 141.073 103.553C134.751 104.675 128.897 107.458 123.243 110.497C119.243 112.647 115.528 115.342 112.054 118.308C102.908 126.116 97.2431 135.889 92.3057 146.919C90.0779 151.896 87.8542 156.874 85.6237 161.85C85.5429 162.03 84.3336 164.991 84.2268 164.966C99.7994 168.655 125.821 157.316 136.464 144.958C143.932 136.287 148.93 125.76 152.6 114.701C154.669 128.027 160.113 141.638 168.117 150.438C179.713 163.187 206.091 174.21 222.975 173.533C221.84 167.83 220.92 162.069 219.596 156.426Z" fill="black"/>
<path d="M222.265 307.366C205.842 307.57 181.037 306.944 164.974 308.901C152.396 308.637 145.694 310.124 125.877 310.124C83.1062 310.124 55.2196 329.071 45.2976 353.725C24.0618 406.491 12.6306 444.238 0 501.823H309.299C294.97 421.16 285.883 306.572 222.265 307.366Z" fill="#FF6400"/>
<mask id="mask0_1024_1757" style="mask-type:luminance" maskUnits="userSpaceOnUse" x="0" y="307" width="310" height="195">
<path d="M222.265 307.366C205.842 307.57 181.037 306.944 164.974 308.901C152.396 308.637 145.694 310.124 125.877 310.124C83.1062 310.124 55.2196 329.071 45.2976 353.725C24.0618 406.491 12.6306 444.238 0 501.823H309.299C294.97 421.16 285.883 306.572 222.265 307.366Z" fill="white"/>
</mask>
<g mask="url(#mask0_1024_1757)">
<path d="M8.49926 368.4C6.80567 387.241 5.6028 404.912 26.5967 409.737C35.9482 411.887 45.1222 408.588 53.5686 404.605C68.9861 397.336 82.385 386.849 95.2428 375.54C111.77 361.004 130.037 337.308 125.431 313.024C124.45 307.85 121.998 302.355 116.212 302.546C103.05 302.98 90.8382 324.035 85.7273 333.93C72.5444 359.454 64.4139 395.141 71.358 423.558C74.1747 435.084 79.2158 442.982 90.3246 447.074C98.7942 450.195 108.701 449.906 117.44 448.125C137.287 444.079 160.679 424.272 164.172 402.406C164.775 398.629 165.07 397.21 161.394 397.227C158.967 397.238 152.862 404.418 151.866 405.408C146.104 411.139 140.627 417.118 136.237 424.061C126.786 439.01 116.48 463.078 127.039 480.059C141.428 503.197 168.848 488.285 184.915 475.685C212.326 454.19 234.998 422.113 247.297 388.914C250.294 380.825 252.229 372.395 253.312 363.807C254.112 357.457 254.594 350.982 253.803 344.605C253.324 340.746 252.261 336.218 249.115 333.729C236.96 324.12 218.277 360.272 213.627 367.902C206.708 379.255 200.599 391.177 195.891 403.702C187.303 426.553 184.596 450.923 184.226 475.303C183.976 491.742 185.074 512.285 197.001 524.649C212.513 540.729 233.853 531.375 246.794 517.229C250.981 512.652 254.746 507.684 258.552 502.77C269.434 488.719 280.997 471.627 284.786 453.7C284.839 453.448 284.89 453.195 284.938 452.943C285.882 447.974 287.487 439.525 282.981 435.841C273.438 428.038 259.922 448.051 256.159 454.378C244.497 473.988 240.578 509.134 267.096 518.161C288.777 525.541 308.775 499.114 316.346 481.159C317.998 477.242 322.869 466.299 318.416 462.283C316.117 460.21 314.731 462.482 312.438 464.48C304.741 471.186 298.985 480.225 297.19 490.502C294.619 505.216 297.206 521.692 304.993 534.322C309.242 541.213 313.996 545.182 321.849 544.141" stroke="#FF955A" stroke-width="5" stroke-miterlimit="10"/>
<path d="M143.131 297.166C141.275 311.921 136.758 332.936 148.977 344.778C161.157 356.581 178.291 344.712 186.239 333.531C192.233 325.098 197.461 313.231 199.812 303.1C201.072 297.669 202.259 289.443 199.548 284.154C192.472 270.353 175.716 302.932 173.432 308.156C167.23 322.344 157.238 346.455 166.073 361.945C175.983 379.321 192.751 368.259 200.63 356.415C206.469 347.637 213.294 336.8 217.398 327.077C223.129 313.496 227.712 299.103 228.409 284.19C228.497 282.329 228.711 278.949 226.629 278.111C224.999 277.456 223.332 279.222 222.564 280.527C221.26 282.743 220.523 285.339 219.844 287.819C217.875 295.006 218.332 302.065 222.19 308.613C226.021 315.113 232.216 320.855 239.421 322.856C249.885 325.762 262.414 323.232 271.744 317.831" stroke="#FF955A" stroke-width="5" stroke-miterlimit="10"/>
<path d="M-18.0483 453.526C-13.8046 460.931 -11.3681 467.929 -3.44011 470.779C1.02401 472.384 5.23284 473.445 9.96833 473.587C18.2183 473.835 25.0074 472.121 32.2318 468.042C39.8453 463.744 45.7508 457.893 50.1649 450.076C51.5526 447.619 54.8049 441.599 53.2164 438.578C51.596 435.496 49.461 438.742 47.4936 441.042C40.5485 449.164 34.3285 459.736 30.8619 469.978C25.6477 485.383 29.1574 501.407 47.4218 502.682C64.6961 503.888 78.0803 486.162 84.8971 471.997C86.6396 468.376 92.0421 448.048 83.07 458.219C70.3032 472.692 61.388 494.641 69.7756 513.852C75.2235 526.33 93.7134 538.584 106.877 536.084" stroke="#FF955A" stroke-width="5" stroke-miterlimit="10"/>
</g>
<path d="M82.8293 384.551L66.5781 507.851" stroke="black" stroke-width="2.2" stroke-miterlimit="10" stroke-linecap="round" stroke-linejoin="round"/>
<path d="M227.894 381.127L244.145 504.426" stroke="black" stroke-width="2.2" stroke-miterlimit="10" stroke-linecap="round" stroke-linejoin="round"/>
<path d="M216.203 67.6044C232.501 59.8281 250.143 54.9229 267.913 60.2353C279.575 63.7219 290.481 70.5187 298.464 80.0183C303.953 86.55 307.955 94.4108 309.542 102.934C313.282 123.037 300.756 145.1 281.97 151.593C277.691 153.072 269.35 155.629 265.7 151.345C262.942 148.105 266.403 143.263 269.105 141.468C272.253 139.375 276.316 138.614 280.009 138.61C288.545 138.601 297.909 144.682 300.689 153.208C304.545 165.038 296.433 177.746 287.218 184.146C287.009 184.29 286.799 184.433 286.588 184.573" stroke="black" stroke-width="2.2" stroke-miterlimit="10" stroke-linecap="round" stroke-linejoin="round" stroke-dasharray="12 12"/>
<path d="M87.7029 89.1338C90.7404 89.1338 93.2029 86.3471 93.2029 82.9095C93.2029 79.4719 90.7404 76.6852 87.7029 76.6852C84.6653 76.6852 82.2029 79.4719 82.2029 82.9095C82.2029 86.3471 84.6653 89.1338 87.7029 89.1338Z" stroke="black" stroke-width="2.2" stroke-miterlimit="10" stroke-linecap="round" stroke-linejoin="round"/>
<path d="M211.028 38.0432C211.36 36.5816 210.488 35.117 209.079 34.7718C207.67 34.4267 206.258 35.3318 205.926 36.7934C205.593 38.255 206.465 39.7196 207.874 40.0647C209.283 40.4098 210.695 39.5048 211.028 38.0432Z" fill="black"/>
<path d="M263.203 19.1103C258.477 20.6996 257.235 21.9881 255.703 26.8907C254.171 21.9878 252.929 20.6996 248.203 19.1103C252.929 17.521 254.171 16.2325 255.703 11.3299C257.235 16.2328 258.477 17.521 263.203 19.1103Z" stroke="black" stroke-width="2.2" stroke-miterlimit="10" stroke-linecap="round" stroke-linejoin="round"/>
<path d="M23.2029 54.9001C26.5344 54.9001 26.5344 60.087 29.866 60.087C33.1986 60.087 33.1986 54.9001 36.5309 54.9001C39.8614 54.9001 39.8614 60.087 43.1923 60.087C46.5259 60.087 46.5259 54.9001 49.8595 54.9001C53.1955 54.9001 53.1955 60.087 56.5312 60.087C59.8672 60.087 59.8672 54.9001 63.2029 54.9001" stroke="black" stroke-width="2.2" stroke-miterlimit="10" stroke-linecap="round" stroke-linejoin="round"/>
<path d="M284.203 217.77C287.534 217.77 287.534 222.957 290.866 222.957C294.199 222.957 294.199 217.77 297.531 217.77C300.861 217.77 300.861 222.957 304.192 222.957C307.526 222.957 307.526 217.77 310.86 217.77C314.196 217.77 314.196 222.957 317.531 222.957C320.867 222.957 320.867 217.77 324.203 217.77" stroke="black" stroke-width="2.2" stroke-miterlimit="10" stroke-linecap="round" stroke-linejoin="round"/>
<path d="M28.1274 225.241C28.3594 223.759 27.3889 222.362 25.9599 222.121C24.5308 221.881 23.1843 222.887 22.9524 224.37C22.7205 225.852 23.6909 227.249 25.12 227.49C26.549 227.73 27.8955 226.723 28.1274 225.241Z" fill="black"/>
<path d="M47.2029 135.297C42.4767 136.887 41.2349 138.175 39.7029 143.078C38.1708 138.175 36.9288 136.887 32.2029 135.297C36.9291 133.708 38.1708 132.42 39.7029 127.517C41.2349 132.42 42.477 133.708 47.2029 135.297Z" stroke="black" stroke-width="2.2" stroke-miterlimit="10" stroke-linecap="round" stroke-linejoin="round"/>
<path d="M12.2029 170.474C12.6993 174.305 13.3606 178.476 16.1044 181.053C17.4331 182.3 19.138 183.038 20.8783 183.437C24.3392 184.231 28.0899 183.716 31.1531 181.847C34.2166 179.977 36.5317 176.733 37.2086 173.079C37.6547 170.671 36.9393 167.543 34.6609 167.01C33.0231 166.628 31.4316 167.821 30.3202 169.142C26.3761 173.83 25.5415 181.13 28.317 186.667C31.0924 192.203 37.2937 195.607 43.2029 194.84" stroke="black" stroke-width="2.2" stroke-miterlimit="10" stroke-linecap="round" stroke-linejoin="round"/>
<path d="M306.221 61.2904H321.016V57.5887H306.221" fill="black"/>
<path d="M311.834 51.7656V67.1131H315.402V51.7656" fill="black"/>
</svg>
