<svg width="48" height="42" viewBox="0 0 48 42" fill="none" xmlns="http://www.w3.org/2000/svg">
<g clip-path="url(#clip0_1_6)">
<path fill-rule="evenodd" clip-rule="evenodd" d="M29.4195 35.9597C30.9649 35.9597 32.4951 35.6552 33.9228 35.0639C35.3506 34.4725 36.6479 33.6058 37.7407 32.513C38.8334 31.4202 39.7001 30.1229 40.2916 28.6951C40.8829 27.2675 41.1874 25.7372 41.1874 24.1918C41.1874 19.5103 39.3276 15.0204 36.0173 11.7101C32.707 8.39977 28.2171 6.54004 23.5356 6.54004C18.8541 6.54004 14.3642 8.39977 11.0539 11.7101C7.74352 15.0204 5.88379 19.5103 5.88379 24.1918C5.88379 25.7372 6.18818 27.2675 6.77956 28.6951C7.37095 30.1229 8.23777 31.4202 9.33051 32.513C10.4233 33.6058 11.7205 34.4725 13.1483 35.0639C14.576 35.6552 16.1063 35.9597 17.6516 35.9597H29.4195ZM23.5356 11.2472C20.1024 11.2472 16.8099 12.611 14.3823 15.0386C11.9547 17.4661 10.5909 20.7587 10.5909 24.1918C10.5909 25.119 10.7736 26.0371 11.1284 26.8938C11.4832 27.7505 12.0033 28.5289 12.659 29.1845C13.3146 29.8402 14.0929 30.3602 14.9496 30.7151C15.8063 31.0699 16.7245 31.2525 17.6516 31.2525H29.4195C30.3467 31.2525 31.2648 31.0699 32.1215 30.7151C32.9782 30.3602 33.7565 29.8402 34.4121 29.1845C35.0678 28.5289 35.5879 27.7505 35.9428 26.8938C36.2976 26.0371 36.4802 25.119 36.4802 24.1918C36.4802 20.7587 35.1164 17.4661 32.6888 15.0386C30.2613 12.611 26.9687 11.2472 23.5356 11.2472Z" fill="black"/>
<path fill-rule="evenodd" clip-rule="evenodd" d="M15.2972 41.8438C13.2882 41.8438 11.299 41.3872 9.44287 40.5001C7.58684 39.613 5.90037 38.3128 4.47976 36.6737C3.05922 35.0345 1.93235 33.0887 1.16353 30.9471C0.394726 28.8054 -0.000976562 26.51 -0.000976562 24.192C-0.000976562 17.9499 2.47868 11.9635 6.89248 7.5497C11.3063 3.1359 17.2927 0.65625 23.5347 0.65625C29.7768 0.65625 35.7632 3.1359 40.177 7.5497C44.5908 11.9635 47.0704 17.9499 47.0704 24.192C47.0704 26.51 46.6747 28.8054 45.9059 30.9471C45.1371 33.0887 44.0102 35.0345 42.5897 36.6737C41.1691 38.3128 39.4827 39.613 37.6266 40.5001C35.7705 41.3872 33.7812 41.8438 31.7722 41.8438H15.2972ZM10.2209 10.8782C13.752 7.34711 18.541 5.36339 23.5347 5.36339C28.5284 5.36339 33.3175 7.34711 36.8485 10.8782C40.3796 14.4092 42.3633 19.1983 42.3633 24.192C42.3633 25.9782 42.0578 27.7349 41.4757 29.3566C40.8935 30.9783 40.054 32.4123 39.0325 33.5908C38.0123 34.7681 36.8377 35.66 35.5968 36.2531C34.3589 36.8448 33.0616 37.1366 31.7722 37.1366H15.2972C14.0078 37.1366 12.7105 36.8448 11.4727 36.2531C10.2318 35.66 9.05721 34.7681 8.03691 33.5908C7.01551 32.4123 6.17601 30.9783 5.59385 29.3566C5.01167 27.7349 4.70617 25.9782 4.70617 24.192C4.70617 19.1983 6.68989 14.4092 10.2209 10.8782Z" fill="black"/>
<path d="M29.4194 30.0759H23.5303C23.1349 30.0755 22.7424 30.0353 22.3586 29.957C21.6149 29.8052 20.9038 29.5101 20.2666 29.0842C19.2989 28.4377 18.5447 27.5188 18.0994 26.4436C17.955 26.0949 17.8451 25.7349 17.7704 25.3687C17.6146 24.6056 17.6111 23.8152 17.7646 23.044C17.9916 21.9026 18.552 20.8542 19.3749 20.0314C20.1977 19.2085 21.2461 18.6481 22.3875 18.4211C22.4233 18.4139 22.4589 18.4072 22.4947 18.4007C22.8396 18.3388 23.1879 18.308 23.5354 18.308C24.3045 18.308 25.0697 18.4587 25.7871 18.7559C26.8622 19.2012 27.7812 19.9554 28.4277 20.9229C29.0743 21.8906 29.4194 23.0282 29.4194 24.1919H24.7122C24.7122 23.9592 24.6433 23.7317 24.5139 23.5381C24.3846 23.3446 24.2008 23.1938 23.9858 23.1047C23.7708 23.0156 23.5341 22.9923 23.3058 23.0377C23.0775 23.0832 22.8678 23.1952 22.7033 23.3598C22.5387 23.5243 22.4267 23.734 22.3812 23.9623C22.3358 24.1906 22.3591 24.4273 22.4482 24.6423C22.5373 24.8573 22.6882 25.0411 22.8816 25.1704C23.0752 25.2998 23.3027 25.3687 23.5354 25.3687H29.4194C29.5739 25.3687 29.727 25.3382 29.8697 25.2792C30.0125 25.22 30.1421 25.1334 30.2515 25.024C30.3608 24.9147 30.4474 24.785 30.5066 24.6423C30.5657 24.4995 30.5961 24.3464 30.5961 24.1919C30.5961 22.3193 29.8523 20.5234 28.5281 19.1993C27.2039 17.8751 25.4081 17.1312 23.5354 17.1312C23.3323 17.1312 23.1302 17.1399 22.9294 17.1572C22.436 17.1997 21.9509 17.2938 21.4819 17.4365C21.0205 17.5766 20.5746 17.7639 20.1514 17.995C19.6665 18.2598 19.2113 18.5822 18.7965 18.9578C18.7101 19.036 18.6255 19.1165 18.5428 19.1993C17.9635 19.7785 17.4952 20.4482 17.1517 21.175C16.98 21.5384 16.8394 21.916 16.7318 22.3039C16.6088 22.7473 16.5287 23.2039 16.4943 23.6676C16.4813 23.8415 16.4747 24.0164 16.4747 24.1919C16.4747 25.1146 16.6556 26.0331 17.0122 26.8939C17.5467 28.1842 18.4516 29.2868 19.6127 30.0627C19.6193 30.0672 19.6259 30.0715 19.6325 30.0759H17.6515C16.8788 30.0759 16.1137 29.9237 15.3998 29.628C14.686 29.3322 14.0374 28.8988 13.491 28.3525C12.9446 27.8061 12.5112 27.1574 12.2155 26.4436C11.9197 25.7298 11.7676 24.9646 11.7676 24.1919C11.7676 21.0709 13.0074 18.0777 15.2143 15.8708C17.4212 13.6639 20.4144 12.4241 23.5354 12.4241C26.6565 12.4241 29.6497 13.6639 31.8566 15.8708C34.0634 18.0777 35.3033 21.0709 35.3033 24.1919C35.3033 24.9646 35.1511 25.7298 34.8554 26.4436C34.5597 27.1574 34.1263 27.8061 33.5799 28.3525C33.0335 28.8988 32.3849 29.3322 31.671 29.628C30.9572 29.9237 30.192 30.0759 29.4194 30.0759Z" fill="black"/>
</g>
<defs>
<clipPath id="clip0_1_6">
<rect width="47.0714" height="41.1875" fill="white" transform="translate(0 0.65625)"/>
</clipPath>
</defs>
</svg>
