<svg width="48" height="47" viewBox="0 0 48 47" fill="none" xmlns="http://www.w3.org/2000/svg">
<g clip-path="url(#clip0_1056_156)">
<path fill-rule="evenodd" clip-rule="evenodd" d="M29.4195 39.7739C30.9649 39.7739 32.4951 39.438 33.9228 38.7856C35.3506 38.133 36.6479 37.1768 37.7407 35.9711C38.8334 34.7654 39.7001 33.3341 40.2916 31.7588C40.8829 30.1836 41.1874 28.4952 41.1874 26.7902C41.1874 21.6251 39.3276 16.6713 36.0173 13.0189C32.707 9.36657 28.2171 7.3147 23.5356 7.3147C18.8541 7.3147 14.3642 9.36657 11.0539 13.0189C7.74352 16.6713 5.88379 21.6251 5.88379 26.7902C5.88379 28.4952 6.18818 30.1836 6.77956 31.7588C7.37095 33.3341 8.23777 34.7654 9.33051 35.9711C10.4233 37.1768 11.7205 38.133 13.1483 38.7856C14.576 39.438 16.1063 39.7739 17.6516 39.7739H29.4195ZM23.5356 12.5082C20.1024 12.5082 16.8099 14.0128 14.3823 16.6913C11.9547 19.3697 10.5909 23.0024 10.5909 26.7902C10.5909 27.8132 10.7736 28.8262 11.1284 29.7714C11.4832 30.7166 12.0033 31.5754 12.659 32.2987C13.3146 33.0221 14.0929 33.5959 14.9496 33.9875C15.8063 34.3789 16.7245 34.5804 17.6516 34.5804H29.4195C30.3467 34.5804 31.2648 34.3789 32.1215 33.9875C32.9782 33.5959 33.7565 33.0221 34.4121 32.2987C35.0678 31.5754 35.5879 30.7166 35.9428 29.7714C36.2976 28.8262 36.4802 27.8132 36.4802 26.7902C36.4802 23.0024 35.1164 19.3697 32.6888 16.6913C30.2613 14.0128 26.9687 12.5082 23.5356 12.5082Z" fill="white"/>
<path fill-rule="evenodd" clip-rule="evenodd" d="M15.2972 46.2656C13.2882 46.2656 11.299 45.7619 9.44287 44.7832C7.58684 43.8045 5.90037 42.3699 4.47976 40.5614C3.05922 38.7529 1.93235 36.606 1.16353 34.2431C0.394726 31.8802 -0.000976562 29.3476 -0.000976562 26.7901C-0.000976562 19.9032 2.47868 13.2982 6.89248 8.42841C11.3063 3.5586 17.2927 0.822754 23.5347 0.822754C29.7768 0.822754 35.7632 3.5586 40.177 8.42841C44.5908 13.2982 47.0704 19.9032 47.0704 26.7901C47.0704 29.3476 46.6747 31.8802 45.9059 34.2431C45.1371 36.606 44.0102 38.7529 42.5897 40.5614C41.1691 42.3699 39.4827 43.8045 37.6266 44.7832C35.7705 45.7619 33.7812 46.2656 31.7722 46.2656H15.2972ZM10.2209 12.1008C13.752 8.2049 18.541 6.01623 23.5347 6.01623C28.5284 6.01623 33.3175 8.2049 36.8485 12.1008C40.3796 15.9967 42.3633 21.2805 42.3633 26.7901C42.3633 28.7609 42.0578 30.6991 41.4757 32.4884C40.8935 34.2775 40.054 35.8597 39.0325 37.1601C38.0123 38.4589 36.8377 39.443 35.5968 40.0974C34.3589 40.7502 33.0616 41.0722 31.7722 41.0722H15.2972C14.0078 41.0722 12.7105 40.7502 11.4727 40.0974C10.2318 39.443 9.05721 38.4589 8.03691 37.1601C7.01551 35.8597 6.17601 34.2775 5.59385 32.4884C5.01167 30.6991 4.70617 28.7609 4.70617 26.7901C4.70617 21.2805 6.68989 15.9967 10.2209 12.1008Z" fill="white"/>
<path d="M29.4194 33.2819H23.5303C23.1349 33.2815 22.7424 33.2371 22.3586 33.1508C21.6149 32.9833 20.9038 32.6577 20.2666 32.1878C19.2989 31.4745 18.5447 30.4607 18.0994 29.2744C17.955 28.8897 17.8451 28.4925 17.7704 28.0884C17.6146 27.2465 17.6111 26.3745 17.7646 25.5235C17.9916 24.2642 18.552 23.1075 19.3749 22.1997C20.1977 21.2917 21.2461 20.6735 22.3875 20.423C22.4233 20.4151 22.4589 20.4077 22.4947 20.4005C22.8396 20.3323 23.1879 20.2982 23.5354 20.2982C24.3045 20.2982 25.0697 20.4646 25.7871 20.7924C26.8622 21.2837 27.7812 22.1158 28.4277 23.1833C29.0743 24.251 29.4194 25.5061 29.4194 26.7901H24.7122C24.7122 26.5333 24.6433 26.2823 24.5139 26.0687C24.3846 25.8553 24.2008 25.6888 23.9858 25.5905C23.7708 25.4922 23.5341 25.4665 23.3058 25.5166C23.0775 25.5668 22.8678 25.6904 22.7033 25.872C22.5387 26.0535 22.4267 26.2849 22.3812 26.5368C22.3358 26.7886 22.3591 27.0498 22.4482 27.287C22.5373 27.5242 22.6882 27.727 22.8816 27.8697C23.0752 28.0124 23.3027 28.0884 23.5354 28.0884H29.4194C29.5739 28.0884 29.727 28.0548 29.8697 27.9896C30.0125 27.9243 30.1421 27.8288 30.2515 27.7082C30.3608 27.5875 30.4474 27.4445 30.5066 27.287C30.5657 27.1295 30.5961 26.9606 30.5961 26.7901C30.5961 24.724 29.8523 22.7425 28.5281 21.2816C27.2039 19.8206 25.4081 18.9999 23.5354 18.9999C23.3323 18.9999 23.1302 19.0095 22.9294 19.0286C22.436 19.0754 21.9509 19.1793 21.4819 19.3367C21.0205 19.4913 20.5746 19.6979 20.1514 19.9529C19.6665 20.245 19.2113 20.6008 18.7965 21.0152C18.7101 21.1014 18.6255 21.1902 18.5428 21.2816C17.9635 21.9207 17.4952 22.6596 17.1517 23.4615C16.98 23.8624 16.8394 24.279 16.7318 24.707C16.6088 25.1962 16.5287 25.7 16.4943 26.2115C16.4813 26.4034 16.4747 26.5964 16.4747 26.7901C16.4747 27.8081 16.6556 28.8215 17.0122 29.7713C17.5467 31.1948 18.4516 32.4114 19.6127 33.2674C19.6193 33.2723 19.6259 33.2771 19.6325 33.2819H17.6515C16.8788 33.2819 16.1137 33.114 15.3998 32.7878C14.686 32.4615 14.0374 31.9833 13.491 31.3805C12.9446 30.7776 12.5112 30.062 12.2155 29.2744C11.9197 28.4868 11.7676 27.6426 11.7676 26.7901C11.7676 23.3465 13.0074 20.0441 15.2143 17.6092C17.4212 15.1744 20.4144 13.8064 23.5354 13.8064C26.6565 13.8064 29.6497 15.1744 31.8566 17.6092C34.0634 20.0441 35.3033 23.3465 35.3033 26.7901C35.3033 27.6426 35.1511 28.4868 34.8554 29.2744C34.5597 30.062 34.1263 30.7776 33.5799 31.3805C33.0335 31.9833 32.3849 32.4615 31.671 32.7878C30.9572 33.114 30.192 33.2819 29.4194 33.2819Z" fill="white"/>
</g>
<defs>
<clipPath id="clip0_1056_156">
<rect width="47.0714" height="45.4429" fill="white" transform="translate(0 0.822754)"/>
</clipPath>
</defs>
</svg>
