<svg width="549" height="506" viewBox="0 0 549 506" fill="none" xmlns="http://www.w3.org/2000/svg">
<path d="M10.0093 410.825H547.64" stroke="black" stroke-width="0.75" stroke-miterlimit="10" stroke-linecap="round" stroke-linejoin="round"/>
<path d="M433.04 391.954C420.876 400.06 403.792 408.183 376.202 417.996C383.323 439.541 392.511 470.672 400.469 491.26C644.936 404.317 525.046 273.738 423.392 254.613L296.84 245.743C26.8679 332.848 75.0283 548.722 304.698 425.834C294.938 400.431 285.135 373.405 277.707 347.166C239.805 362.818 213.267 372.651 175.687 386.759" fill="#00968B"/>
<path d="M302.301 238.542L396.825 265.4C405.995 259.213 412.226 249.085 416.136 238.659C417.142 235.985 417.991 233.294 418.703 230.65C421.454 220.355 422.064 210.704 421.133 205.354C419.61 196.494 416.706 188.807 413.187 181.002C407.787 169.004 398.302 159.38 386.458 154.452C385.943 154.237 385.433 154.041 384.924 153.845C369.197 147.866 351.034 150.626 336.589 159.41C322.136 168.197 311.269 182.554 304.603 198.487C297.938 214.423 299.683 220.972 302.301 238.542Z" fill="black"/>
<path d="M297.276 235.717C298.573 224.028 302.838 212.45 307.868 201.984C313.46 190.349 320.37 180.016 331.585 173.682C351.534 162.417 381.969 156.912 400.036 174.902C412.288 187.102 415.976 206.611 415.778 223.563L415.75 227.953C411.24 242.44 401.982 266.842 392.002 278.003C375.383 296.587 340.921 311.33 313.13 286.086C299.825 273.999 295.251 253.945 297.276 235.717Z" fill="#FAF2E6"/>
<path d="M309.867 198.029C305.141 195.902 298.676 194.995 294.256 197.74C290.007 200.378 287.685 205.977 288.758 210.99C289.832 216.004 294.758 220.447 299.684 220.971" fill="#FAF2E6"/>
<path d="M412.792 240.854C417.644 241.908 423.011 248.233 423.379 253.362C423.746 258.49 420.68 263.656 416.152 265.75C411.623 267.844 405.951 266.804 402.296 263.33" fill="#FAF2E6"/>
<path d="M309.867 198.029C305.141 195.902 298.676 194.995 294.256 197.74C290.007 200.378 287.685 205.977 288.758 210.99C289.832 216.004 294.758 220.447 299.684 220.971" stroke="black" stroke-width="0.75" stroke-miterlimit="10" stroke-linecap="round" stroke-linejoin="round"/>
<path d="M294.817 205.881C297.729 207.275 300.738 208.451 303.815 209.396" stroke="black" stroke-width="0.75" stroke-miterlimit="10" stroke-linecap="round" stroke-linejoin="round"/>
<path d="M315.445 188.785C306.418 204.563 299.301 217.491 297.277 235.718C295.252 253.945 299.826 273.999 313.132 286.085C340.923 311.329 375.385 296.586 392.004 278.002C401.984 266.842 408.74 250.912 413.251 236.425" stroke="black" stroke-width="0.75" stroke-miterlimit="10" stroke-linecap="round" stroke-linejoin="round"/>
<path d="M412.792 240.854C417.644 241.908 423.011 248.233 423.379 253.362C423.746 258.49 420.68 263.656 416.152 265.75C411.623 267.844 405.951 266.804 402.296 263.33" stroke="black" stroke-width="0.75" stroke-miterlimit="10" stroke-linecap="round" stroke-linejoin="round"/>
<path d="M407.226 253.949C410.757 255.704 411.253 255.919 414.785 257.674" stroke="black" stroke-width="0.75" stroke-miterlimit="10" stroke-linecap="round" stroke-linejoin="round"/>
<path d="M332.764 215.771C332.422 219.122 334.243 222.598 337.14 224.124C340.036 225.649 343.817 225.121 346.222 222.856" stroke="black" stroke-width="0.75" stroke-miterlimit="10" stroke-linecap="round" stroke-linejoin="round"/>
<path d="M365.186 234.412C365.674 237.629 367.847 240.516 370.738 241.785C373.628 243.054 377.14 242.664 379.706 240.786" stroke="black" stroke-width="0.75" stroke-miterlimit="10" stroke-linecap="round" stroke-linejoin="round"/>
<path d="M344.884 240.069C345.046 241.761 346.521 243.179 348.153 243.326C349.785 243.473 351.425 242.415 352.119 240.876C352.812 239.336 352.578 237.421 351.628 236.037" stroke="black" stroke-width="0.75" stroke-miterlimit="10" stroke-linecap="round" stroke-linejoin="round"/>
<path d="M327.603 206.312C326.459 199.397 344.329 205.338 347.638 206.528C353.752 213.939 329.397 208.279 327.603 206.312Z" fill="black"/>
<path d="M378.367 221.052C383.165 220.072 388.412 229.666 391.691 232.918C393.633 234.505 393.432 238.579 390.29 237.465C388.267 236.198 372.836 222.051 378.367 221.052Z" fill="black"/>
<path d="M341.291 253.679C346.887 255.184 350.263 254.94 354.511 251.082C355.9 262.76 343.09 265.405 341.291 253.679Z" fill="black"/>
<path d="M315.338 188.932C328.754 195.502 343.62 201.475 358.412 203.31C373.436 205.176 389.382 202.92 402.542 194.466C399.572 210.033 404.344 226.763 414.799 238.253C414.809 238.226 414.82 238.2 414.829 238.175C422.266 218.954 419.03 192.213 405.107 177.067C395.162 166.247 381 159.579 366.613 158.853C361.864 158.614 357.081 159.031 352.453 160.172C349.463 160.909 346.54 161.934 343.736 163.238C337.558 166.111 331.871 170.197 326.66 174.649C321.92 178.699 318.687 183.668 315.338 188.932Z" fill="black"/>
<path d="M378.401 155.571C377.639 152.289 375.718 146.329 374.163 143.401C373.078 141.356 371.896 139.372 370.498 137.538C367.085 133.059 362.421 128.516 357.4 126.025C354.644 124.658 351.731 123.815 349.288 126.093C346.657 128.545 347.148 131.963 348.766 134.846C352.771 141.989 361.516 145.659 368.127 149.755C370.878 151.46 374.166 152.969 378.401 155.571ZM378.401 155.571C372.708 151.834 365.164 150.738 358.566 150.046C349.679 149.112 340.804 148.879 331.973 150.523C329.923 150.904 327.75 151.413 325.839 152.3" stroke="black" stroke-width="0.75" stroke-miterlimit="10" stroke-linecap="round" stroke-linejoin="round"/>
<path d="M394.611 162.636C404.193 169.249 415.346 174.349 426.843 175.902C431.094 176.476 437.575 177.57 441.154 174.34C444.365 171.441 441.121 167.913 438.509 166.355C433.771 163.532 428.249 162.36 422.926 161.357C417.546 160.344 411.898 159.868 406.434 160.228C402.87 160.462 397.687 161.399 394.494 162.981C395.141 162.919 402.364 166.857 404.456 168.502C407.194 170.652 409.839 172.964 412.268 175.481C417.457 180.859 421.862 186.629 425.629 193.163C426.606 194.858 428.31 197.659 428.708 199.14" stroke="black" stroke-width="0.75" stroke-miterlimit="10" stroke-linecap="round" stroke-linejoin="round"/>
<path d="M413.481 106.814C409.976 103.628 405.727 101.167 401.108 100.522C395.416 99.7274 389.62 101.763 384.8 105.003C376.716 110.436 370.901 119.38 369.078 129.191C367.255 139.003 369.446 149.549 375.004 157.71L398.989 167.507C411.022 164.533 421.075 154.194 424.049 141.738C427.025 129.282 422.784 115.272 413.481 106.814Z" fill="black"/>
<path d="M403.564 220.32L419.138 216.114C420.613 215.715 421.498 214.153 421.114 212.623L420.882 211.698C420.498 210.168 418.992 209.25 417.517 209.649L401.942 213.855C401.328 214.02 400.959 214.672 401.119 215.31L402.162 219.467C402.322 220.104 402.949 220.486 403.564 220.32Z" fill="#FAF2E6"/>
<path d="M403.564 220.32L419.138 216.114C420.613 215.715 421.498 214.153 421.114 212.623L420.882 211.698C420.498 210.168 418.992 209.25 417.517 209.649L401.942 213.855C401.328 214.02 400.959 214.672 401.119 215.31L402.162 219.467C402.322 220.104 402.949 220.486 403.564 220.32Z" stroke="black" stroke-width="0.75" stroke-miterlimit="10" stroke-linecap="round" stroke-linejoin="round"/>
<path d="M419.141 212.662L403.378 216.918" stroke="black" stroke-width="0.75" stroke-miterlimit="10" stroke-linecap="round" stroke-linejoin="round"/>
<path d="M401.024 210.193L416.598 205.987C418.073 205.589 418.958 204.026 418.574 202.495L418.341 201.57C417.957 200.04 416.451 199.123 414.976 199.521L399.401 203.727C398.787 203.892 398.419 204.544 398.578 205.182L399.621 209.34C399.782 209.977 400.409 210.36 401.024 210.193Z" fill="#FAF2E6"/>
<path d="M401.024 210.193L416.598 205.987C418.073 205.589 418.958 204.026 418.574 202.495L418.341 201.57C417.957 200.04 416.451 199.123 414.976 199.521L399.401 203.727C398.787 203.892 398.419 204.544 398.578 205.182L399.621 209.34C399.782 209.977 400.409 210.36 401.024 210.193Z" stroke="black" stroke-width="0.75" stroke-miterlimit="10" stroke-linecap="round" stroke-linejoin="round"/>
<path d="M416.601 202.535L400.838 206.792" stroke="black" stroke-width="0.75" stroke-miterlimit="10" stroke-linecap="round" stroke-linejoin="round"/>
<path d="M295.425 269.013C321.204 268.14 347.841 296.988 357.253 324.516C381.464 309.603 419.726 305.106 439.009 322.887C456.162 338.7 464.762 371.009 452.819 397.873C436.84 433.801 398.28 450.854 376.211 464.149C362.357 472.928 295.725 504.497 294.268 505.169C293.569 503.688 261.812 435.203 256.578 419.261C247.813 394.397 228.69 355.701 238.57 317.485C245.95 288.908 272.49 269.784 295.425 269.013Z" fill="#FF91AA"/>
<path d="M304.645 471.346C305.232 470.972 305.86 470.693 306.506 470.463C307.128 470.242 307.766 470.066 308.397 469.896C313.64 468.478 318.924 467.231 324.223 466.061C318.639 466.949 313.02 467.637 307.395 468.153C304.874 468.384 302.191 468.574 299.918 467.112C298.943 466.485 298.164 465.552 297.802 464.46C297.641 463.972 297.563 463.454 297.591 462.917C297.66 461.557 298.342 460.521 299.274 459.717C300.047 459.051 300.993 458.54 301.927 458.11C300.17 458.237 298.453 456.944 297.86 455.151L297.814 455.006C297.176 452.816 298.017 450.412 299.445 448.705C300.872 447 302.808 445.875 304.724 444.86C309.125 442.528 313.674 440.586 318.327 438.932C326.96 435.861 335.95 433.789 344.996 432.051C340.624 429.889 336.147 427.631 332.793 423.968C331.786 422.867 330.868 421.593 330.394 420.157C330.253 419.73 330.151 419.289 330.099 418.834C329.854 416.716 330.74 414.569 332.187 413.071L332.23 413.027C333.027 412.214 333.975 411.627 334.995 411.265C336.788 410.627 338.806 410.683 340.628 411.429C347.99 414.445 355.301 417.591 362.557 420.866C370.764 424.57 379.048 428.529 385.76 434.706L385.681 434.799L385.602 434.892C385.561 434.854 385.518 434.822 385.477 434.785L397.869 482.228C397.886 482.216 397.903 482.206 397.919 482.195L397.987 482.297L398.054 482.4C393.835 485.386 389.225 487.753 384.398 489.469C374.224 493.087 363.084 493.82 352.586 491.377C351.215 491.058 349.787 491.076 348.405 491.367C340.229 493.089 332.457 494.194 324.656 494.963C321.535 495.877 318.742 495.375 317.02 493.326C316.566 492.785 316.218 492.159 315.998 491.494C315.646 490.43 315.622 489.264 316.014 488.184C316.711 486.271 318.373 485.262 320.182 484.619C320.978 484.336 321.807 484.123 322.6 483.934C329.338 482.332 336.076 480.731 342.814 479.13C331.667 479.428 319.643 479.896 307.612 480.365H307.596L307.581 480.362C305.411 479.848 304.249 479.228 303.412 478.257C303 477.777 302.673 477.21 302.472 476.601C302.266 475.977 302.19 475.309 302.292 474.652C302.514 473.243 303.494 472.082 304.645 471.346Z" fill="#FAF2E6"/>
<path d="M358.271 429.792C339.958 432.947 321.311 436.214 304.778 444.971C302.864 445.984 300.943 447.103 299.535 448.787C298.126 450.47 297.304 452.838 297.928 454.971C298.552 457.103 300.815 458.574 302.827 457.793" stroke="black" stroke-width="0.75" stroke-miterlimit="10" stroke-linecap="round" stroke-linejoin="round"/>
<path d="M336.106 446.396C324.786 449.824 313.438 453.261 302.551 457.963C300.337 458.919 297.846 460.286 297.711 462.924C297.625 464.606 298.601 466.119 299.982 467.006C302.211 468.441 304.865 468.261 307.386 468.029C317.766 467.075 328.123 465.57 338.271 463.208C328.282 465.278 318.286 467.35 308.428 470.015C307.143 470.363 305.839 470.729 304.709 471.451C303.577 472.173 302.623 473.312 302.412 474.672C302.218 475.924 302.687 477.229 303.503 478.174C304.319 479.118 305.448 479.729 307.608 480.24C320.069 479.753 332.53 479.266 344.01 478.971C336.883 480.665 329.755 482.358 322.627 484.052C320.033 484.668 317.101 485.546 316.126 488.225C315.504 489.931 315.955 491.867 317.109 493.242C318.795 495.248 321.535 495.749 324.636 494.839C332.436 494.07 340.206 492.966 348.381 491.244C349.776 490.951 351.221 490.931 352.611 491.255C368.055 494.849 384.902 491.554 397.984 482.296" stroke="black" stroke-width="0.75" stroke-miterlimit="10" stroke-linecap="round" stroke-linejoin="round"/>
<path d="M345.187 432.01C340.772 429.827 336.248 427.564 332.881 423.884C331.582 422.465 330.442 420.762 330.217 418.819C329.978 416.747 330.846 414.633 332.271 413.159C332.285 413.145 332.299 413.13 332.314 413.116C334.475 410.913 337.766 410.392 340.584 411.546C347.944 414.561 355.254 417.707 362.51 420.982C370.715 424.684 378.988 428.64 385.681 434.801" stroke="black" stroke-width="0.75" stroke-miterlimit="10" stroke-linecap="round" stroke-linejoin="round"/>
<path d="M276.095 367.822C279.352 363.542 282.385 359.078 285.179 354.458C286.322 352.569 287.429 350.645 288.793 348.919C290.294 347.022 292.082 345.396 293.86 343.779C301.628 336.716 309.405 329.645 317.638 323.175C318.982 322.118 320.545 321.022 322.209 321.308C323.658 321.557 324.788 322.864 325.216 324.322C325.643 325.779 325.472 327.356 325.111 328.833C323.691 334.635 319.451 339.474 315.262 343.665L315.059 343.79C322.842 341.198 330.768 339.074 338.79 337.451C340.709 337.063 342.658 336.856 344.613 336.79L361.301 336.226C363.188 336.162 365.131 336.107 366.899 336.795C368.666 337.482 370.235 339.103 370.307 341.061C370.375 342.868 369.152 344.514 367.645 345.427C366.139 346.339 364.379 346.663 362.662 346.981C351.857 348.992 341.135 351.491 331.443 354.638C344.228 351.924 357.194 350.131 370.217 349.273C371.551 349.185 372.964 349.125 374.139 349.784C375.883 350.762 376.569 353.174 376.009 355.146C375.449 357.117 373.882 358.645 372.119 359.584C370.355 360.523 368.389 360.954 366.452 361.391C355.112 363.95 343.884 367.046 333.254 370.706C346.06 368.31 358.948 366.388 371.885 364.942C372.314 364.894 372.753 364.847 373.173 364.953C374.384 365.256 375.002 366.72 374.962 368.011C374.904 369.979 373.748 371.773 372.269 373.006C370.789 374.239 369.003 374.996 367.237 375.718C356.315 380.184 345.137 383.936 333.968 387.685L333.91 387.801L334.147 387.626C342.449 385.433 351.525 383.226 360.037 382.231C361.667 382.04 363.456 381.934 364.802 382.907C366.427 384.082 366.748 386.781 365.449 388.331C364.674 389.257 363.514 389.717 362.396 390.117C359.536 391.14 356.622 391.99 353.711 392.84C347.268 394.722 340.825 396.603 334.513 398.554C327.09 401.421 320.509 406.169 313.715 410.391C306.921 414.613 299.599 418.418 291.703 419.058L276.095 367.822Z" fill="#FAF2E6"/>
<path d="M333.969 387.684C345.139 383.936 356.317 380.183 367.239 375.717C369.005 374.995 370.792 374.238 372.271 373.005C373.751 371.772 374.907 369.978 374.965 368.009C375.003 366.719 374.385 365.255 373.175 364.952C372.754 364.847 372.315 364.894 371.886 364.941C358.949 366.387 346.061 368.31 333.255 370.705C343.887 367.045 355.114 363.949 366.453 361.39C368.39 360.953 370.356 360.521 372.12 359.583C373.883 358.645 375.451 357.117 376.01 355.144C376.57 353.172 375.884 350.761 374.141 349.783C372.965 349.124 371.551 349.184 370.218 349.272C357.195 350.129 344.229 351.923 331.444 354.637C341.136 351.492 351.857 348.991 362.663 346.98C364.38 346.66 366.14 346.339 367.647 345.426C369.153 344.514 370.375 342.868 370.309 341.06C370.235 339.103 368.667 337.482 366.9 336.793C365.133 336.106 363.19 336.161 361.303 336.225L344.614 336.788C342.66 336.855 340.711 337.061 338.792 337.45C326.449 339.949 314.325 343.611 302.618 348.378" stroke="black" stroke-width="0.75" stroke-miterlimit="10" stroke-linecap="round" stroke-linejoin="round"/>
<path d="M334.147 387.625C342.449 385.432 351.525 383.224 360.037 382.229C361.667 382.039 363.456 381.932 364.802 382.906C366.427 384.081 366.748 386.779 365.449 388.33C364.672 389.256 363.514 389.716 362.396 390.116C359.536 391.139 356.622 391.989 353.711 392.839C347.268 394.72 340.825 396.602 334.513 398.553C327.09 401.419 320.511 406.168 313.715 410.389C306.921 414.612 299.599 418.417 291.702 419.056" stroke="black" stroke-width="0.75" stroke-miterlimit="10" stroke-linecap="round" stroke-linejoin="round"/>
<path d="M276.095 367.822C279.352 363.541 282.385 359.078 285.179 354.458C286.322 352.568 287.429 350.645 288.793 348.92C290.294 347.023 292.082 345.397 293.86 343.78C301.628 336.717 309.405 329.647 317.638 323.176C318.982 322.119 320.544 321.023 322.209 321.309C323.658 321.558 324.788 322.865 325.216 324.323C325.643 325.78 325.472 327.357 325.111 328.834C323.691 334.636 319.451 339.475 315.262 343.666" stroke="black" stroke-width="0.75" stroke-miterlimit="10" stroke-linecap="round" stroke-linejoin="round"/>
<path d="M143.852 336.629C66.8359 425.648 137.897 515.083 304.7 425.833C294.939 400.43 285.136 373.404 277.708 347.165C239.806 362.817 213.268 372.65 175.688 386.758" fill="#00968B"/>
<path d="M376.202 417.996C433.775 397.521 460.245 378.567 474.822 338.631L500.684 290.217C562.955 339.65 580.388 427.273 400.469 491.26C392.511 470.672 383.322 439.542 376.202 417.996Z" fill="#00968B"/>
<path d="M376.202 417.996C431.902 398.186 458.489 379.801 473.361 342.463" stroke="black" stroke-width="0.75" stroke-miterlimit="10" stroke-linecap="round" stroke-linejoin="round"/>
<path d="M277.707 347.165C239.805 362.817 213.267 372.65 175.687 386.758" stroke="black" stroke-width="0.75" stroke-miterlimit="10" stroke-linecap="round" stroke-linejoin="round"/>
<path d="M199.071 447.106L188.823 441.126" stroke="black" stroke-width="0.75" stroke-miterlimit="10" stroke-linecap="round" stroke-linejoin="round"/>
<path d="M210.321 400.326L205.713 409.575" stroke="black" stroke-width="0.75" stroke-miterlimit="10" stroke-linecap="round" stroke-linejoin="round"/>
<path d="M247.519 442.051L251.086 430.895" stroke="black" stroke-width="0.75" stroke-miterlimit="10" stroke-linecap="round" stroke-linejoin="round"/>
<path d="M221.843 419.264L232.926 418.851" stroke="black" stroke-width="0.75" stroke-miterlimit="10" stroke-linecap="round" stroke-linejoin="round"/>
<path d="M268.379 427.869L279.462 427.457" stroke="black" stroke-width="0.75" stroke-miterlimit="10" stroke-linecap="round" stroke-linejoin="round"/>
<path d="M225.633 375.764L224.728 387.231" stroke="black" stroke-width="0.75" stroke-miterlimit="10" stroke-linecap="round" stroke-linejoin="round"/>
<path d="M266.354 368.572L272.372 358.908" stroke="black" stroke-width="0.75" stroke-miterlimit="10" stroke-linecap="round" stroke-linejoin="round"/>
<path d="M277.638 395.806L287.243 401.559" stroke="black" stroke-width="0.75" stroke-miterlimit="10" stroke-linecap="round" stroke-linejoin="round"/>
<path d="M253.786 389.792L251.259 400.995" stroke="black" stroke-width="0.75" stroke-miterlimit="10" stroke-linecap="round" stroke-linejoin="round"/>
<path d="M168.986 443.437L166.459 454.64" stroke="black" stroke-width="0.75" stroke-miterlimit="10" stroke-linecap="round" stroke-linejoin="round"/>
<path d="M125 394.979L122.473 406.181" stroke="black" stroke-width="0.75" stroke-miterlimit="10" stroke-linecap="round" stroke-linejoin="round"/>
<path d="M148.476 442.574L138.228 436.594" stroke="black" stroke-width="0.75" stroke-miterlimit="10" stroke-linecap="round" stroke-linejoin="round"/>
<path d="M165.345 391.087L155.096 385.106" stroke="black" stroke-width="0.75" stroke-miterlimit="10" stroke-linecap="round" stroke-linejoin="round"/>
<path d="M174.012 427.61L183.617 420.573" stroke="black" stroke-width="0.75" stroke-miterlimit="10" stroke-linecap="round" stroke-linejoin="round"/>
<path d="M145.597 410.855L153.913 419.481" stroke="black" stroke-width="0.75" stroke-miterlimit="10" stroke-linecap="round" stroke-linejoin="round"/>
<path d="M219.189 448.242L228.794 441.203" stroke="black" stroke-width="0.75" stroke-miterlimit="10" stroke-linecap="round" stroke-linejoin="round"/>
<path d="M143.352 368.707L154.435 368.296" stroke="black" stroke-width="0.75" stroke-miterlimit="10" stroke-linecap="round" stroke-linejoin="round"/>
<path d="M187.252 363.741L186.346 375.206" stroke="black" stroke-width="0.75" stroke-miterlimit="10" stroke-linecap="round" stroke-linejoin="round"/>
<path d="M163.777 327.961L172.856 334.569" stroke="black" stroke-width="0.75" stroke-miterlimit="10" stroke-linecap="round" stroke-linejoin="round"/>
<path d="M221.036 353.859L230.116 360.466" stroke="black" stroke-width="0.75" stroke-miterlimit="10" stroke-linecap="round" stroke-linejoin="round"/>
<path d="M184.324 344.09L177.254 352.954" stroke="black" stroke-width="0.75" stroke-miterlimit="10" stroke-linecap="round" stroke-linejoin="round"/>
<path d="M194.023 320.699L183.798 316.243" stroke="black" stroke-width="0.75" stroke-miterlimit="10" stroke-linecap="round" stroke-linejoin="round"/>
<path d="M200.765 340.247L211.854 340.027" stroke="black" stroke-width="0.75" stroke-miterlimit="10" stroke-linecap="round" stroke-linejoin="round"/>
<path d="M225.18 318.471L219.635 328.435" stroke="black" stroke-width="0.75" stroke-miterlimit="10" stroke-linecap="round" stroke-linejoin="round"/>
<path d="M258.559 268.737L254.065 279.256" stroke="black" stroke-width="0.75" stroke-miterlimit="10" stroke-linecap="round" stroke-linejoin="round"/>
<path d="M234.838 300.423L226.722 292.584" stroke="black" stroke-width="0.75" stroke-miterlimit="10" stroke-linecap="round" stroke-linejoin="round"/>
<path d="M416.931 476.415L420.498 465.259" stroke="black" stroke-width="0.75" stroke-miterlimit="10" stroke-linecap="round" stroke-linejoin="round"/>
<path d="M393.477 448.065L404.561 447.652" stroke="black" stroke-width="0.75" stroke-miterlimit="10" stroke-linecap="round" stroke-linejoin="round"/>
<path d="M432.358 446.601L443.441 446.189" stroke="black" stroke-width="0.75" stroke-miterlimit="10" stroke-linecap="round" stroke-linejoin="round"/>
<path d="M425.421 418.593L422.894 429.796" stroke="black" stroke-width="0.75" stroke-miterlimit="10" stroke-linecap="round" stroke-linejoin="round"/>
<path d="M448.535 315.823L459.738 317.572" stroke="black" stroke-width="0.75" stroke-miterlimit="10" stroke-linecap="round" stroke-linejoin="round"/>
<path d="M470.472 288.263L472.748 299.524" stroke="black" stroke-width="0.75" stroke-miterlimit="10" stroke-linecap="round" stroke-linejoin="round"/>
<path d="M495.83 341.156L498.106 352.416" stroke="black" stroke-width="0.75" stroke-miterlimit="10" stroke-linecap="round" stroke-linejoin="round"/>
<path d="M485.775 315.176L494.834 308.538" stroke="black" stroke-width="0.75" stroke-miterlimit="10" stroke-linecap="round" stroke-linejoin="round"/>
<path d="M514.713 322.601L511.703 333.674" stroke="black" stroke-width="0.75" stroke-miterlimit="10" stroke-linecap="round" stroke-linejoin="round"/>
<path d="M526.932 397.117L531.822 386.792" stroke="black" stroke-width="0.75" stroke-miterlimit="10" stroke-linecap="round" stroke-linejoin="round"/>
<path d="M468.076 452.94L458.472 447.187" stroke="black" stroke-width="0.75" stroke-miterlimit="10" stroke-linecap="round" stroke-linejoin="round"/>
<path d="M473.875 366.529L469.344 377.03" stroke="black" stroke-width="0.75" stroke-miterlimit="10" stroke-linecap="round" stroke-linejoin="round"/>
<path d="M483.815 387.91L494.7 385.705" stroke="black" stroke-width="0.75" stroke-miterlimit="10" stroke-linecap="round" stroke-linejoin="round"/>
<path d="M433.04 296.172L444.123 295.76" stroke="black" stroke-width="0.75" stroke-miterlimit="10" stroke-linecap="round" stroke-linejoin="round"/>
<path d="M419.979 274.127L417.452 285.329" stroke="black" stroke-width="0.75" stroke-miterlimit="10" stroke-linecap="round" stroke-linejoin="round"/>
<path d="M392.164 296.156L386.62 306.119" stroke="black" stroke-width="0.75" stroke-miterlimit="10" stroke-linecap="round" stroke-linejoin="round"/>
<path d="M447.736 279.245L439.619 271.406" stroke="black" stroke-width="0.75" stroke-miterlimit="10" stroke-linecap="round" stroke-linejoin="round"/>
<path d="M466.43 329.329L464.717 340.696" stroke="black" stroke-width="0.75" stroke-miterlimit="10" stroke-linecap="round" stroke-linejoin="round"/>
<path d="M509.641 369.198L519.586 364.105" stroke="black" stroke-width="0.75" stroke-miterlimit="10" stroke-linecap="round" stroke-linejoin="round"/>
<path d="M532.879 362.504V351" stroke="black" stroke-width="0.75" stroke-miterlimit="10" stroke-linecap="round" stroke-linejoin="round"/>
<path d="M514.443 411.952L504.84 406.199" stroke="black" stroke-width="0.75" stroke-miterlimit="10" stroke-linecap="round" stroke-linejoin="round"/>
<path d="M446.026 395.285L456.911 393.082" stroke="black" stroke-width="0.75" stroke-miterlimit="10" stroke-linecap="round" stroke-linejoin="round"/>
<path d="M475.332 400.194L478.089 411.339" stroke="black" stroke-width="0.75" stroke-miterlimit="10" stroke-linecap="round" stroke-linejoin="round"/>
<path d="M498.61 428.307L487.896 431.277" stroke="black" stroke-width="0.75" stroke-miterlimit="10" stroke-linecap="round" stroke-linejoin="round"/>
<path d="M462.028 421.215L450.957 420.538" stroke="black" stroke-width="0.75" stroke-miterlimit="10" stroke-linecap="round" stroke-linejoin="round"/>
<path d="M397.799 427.07L388.195 421.319" stroke="black" stroke-width="0.75" stroke-miterlimit="10" stroke-linecap="round" stroke-linejoin="round"/>
<path d="M345.188 17.537C348.886 16.3163 350.931 12.2166 349.754 8.38008C348.577 4.54359 344.625 2.4231 340.927 3.64382C337.229 4.86454 335.185 8.96421 336.361 12.8007C337.538 16.6372 341.49 18.7577 345.188 17.537Z" stroke="black" stroke-width="0.75" stroke-miterlimit="10" stroke-linecap="round" stroke-linejoin="round"/>
<path d="M67.2293 170.976C69.4572 172.994 72.8399 172.757 74.7861 170.446C76.7312 168.135 76.503 164.626 74.2751 162.606C72.0472 160.589 68.6645 160.825 66.7183 163.137C64.7732 165.448 65.0013 168.958 67.2293 170.976Z" fill="black"/>
<path d="M453.611 99.4471C455.115 97.0865 454.49 93.9079 452.215 92.3473C449.939 90.7867 446.875 91.4352 445.371 93.7957C443.866 96.1563 444.492 99.3349 446.767 100.895C449.043 102.456 452.107 101.808 453.611 99.4471Z" fill="black"/>
<path d="M149.812 129.096C154.63 130.715 155.895 132.029 157.458 137.027C159.018 132.029 160.285 130.717 165.103 129.096C160.285 127.475 159.02 126.163 157.458 121.165C155.895 126.163 154.63 127.477 149.812 129.096Z" stroke="black" stroke-width="0.75" stroke-miterlimit="10" stroke-linecap="round" stroke-linejoin="round"/>
<path d="M183.703 218.152L180.272 208.459" stroke="black" stroke-width="0.75" stroke-miterlimit="10" stroke-linecap="round" stroke-linejoin="round"/>
<path d="M192.816 208.405L183.373 205.143" stroke="black" stroke-width="0.75" stroke-miterlimit="10" stroke-linecap="round" stroke-linejoin="round"/>
<path d="M191.151 194.936L182.806 200.562" stroke="black" stroke-width="0.75" stroke-miterlimit="10" stroke-linecap="round" stroke-linejoin="round"/>
<path d="M179.964 187.889L179.001 198.164" stroke="black" stroke-width="0.75" stroke-miterlimit="10" stroke-linecap="round" stroke-linejoin="round"/>
<path d="M167.678 192.568L174.82 199.757" stroke="black" stroke-width="0.75" stroke-miterlimit="10" stroke-linecap="round" stroke-linejoin="round"/>
<path d="M163.543 205.45L173.414 204.139" stroke="black" stroke-width="0.75" stroke-miterlimit="10" stroke-linecap="round" stroke-linejoin="round"/>
<path d="M170.674 216.836L175.84 208.013" stroke="black" stroke-width="0.75" stroke-miterlimit="10" stroke-linecap="round" stroke-linejoin="round"/>
<path d="M86.3938 332.619C87.7301 336.022 91.4736 337.655 94.7538 336.269C98.034 334.883 99.609 330.999 98.2727 327.598C96.9364 324.196 93.1929 322.561 89.9126 323.947C86.6324 325.334 85.0563 329.216 86.3938 332.619Z" stroke="black" stroke-width="0.75" stroke-miterlimit="10" stroke-linecap="round" stroke-linejoin="round"/>
<path d="M127.094 266.613L128.032 269.342C128.265 270.017 128.93 270.451 129.62 270.374L133.82 269.877C134.517 270.911 135.331 271.834 136.233 272.638L135.335 276.928C135.192 277.635 135.542 278.364 136.18 278.677L138.704 279.917C139.328 280.225 140.094 280.045 140.53 279.481L143.156 276.054C144.328 276.27 145.534 276.323 146.748 276.229L149.039 279.923C149.42 280.528 150.164 280.785 150.828 280.54L153.459 279.567C154.11 279.325 154.528 278.636 154.453 277.918L153.974 273.562C154.971 272.838 155.859 271.995 156.636 271.058L160.773 271.989C161.454 272.138 162.157 271.774 162.458 271.113L163.654 268.495C163.95 267.848 163.777 267.053 163.235 266.6L159.93 263.876C160.138 262.66 160.191 261.408 160.1 260.148L163.658 257.772C164.241 257.377 164.489 256.605 164.253 255.916L163.315 253.187C163.082 252.512 162.417 252.078 161.727 252.155L157.528 252.652C156.831 251.617 156.018 250.694 155.114 249.889L156.012 245.599C156.155 244.893 155.805 244.163 155.167 243.85L152.643 242.61C152.019 242.302 151.253 242.482 150.817 243.045L148.191 246.472C147.018 246.255 145.813 246.201 144.597 246.297L142.308 242.604C141.927 241.999 141.183 241.742 140.519 241.987L137.888 242.96C137.237 243.202 136.819 243.891 136.894 244.608L137.372 248.964C136.376 249.687 135.486 250.531 134.71 251.468L130.573 250.537C129.892 250.389 129.189 250.752 128.888 251.414L127.692 254.032C127.395 254.679 127.569 255.474 128.111 255.927L131.416 258.651C131.208 259.867 131.156 261.118 131.247 262.379L127.688 264.755C127.106 265.152 126.856 265.925 127.094 266.613ZM137.948 257.343C138.924 255.284 140.63 253.629 142.884 252.824C145.14 252.024 147.467 252.246 149.455 253.251C151.439 254.263 153.035 256.033 153.811 258.372C154.582 260.712 154.368 263.126 153.4 265.187C152.424 267.246 150.718 268.902 148.463 269.706C146.207 270.507 143.881 270.284 141.893 269.28C139.909 268.269 138.313 266.499 137.537 264.16C136.767 261.818 136.98 259.406 137.948 257.343Z" fill="black"/>
<path d="M339.149 80.8209L339.209 81.0008L340.649 85.3407L340.71 85.5218C340.783 85.7416 340.992 85.8817 341.215 85.8612L345.013 85.511C345.612 86.3985 346.309 87.2148 347.091 87.9442L346.293 91.8155C346.246 92.0438 346.354 92.2756 346.557 92.3783L346.723 92.4628L350.698 94.4746L350.865 94.5591C350.985 94.6195 351.119 94.6255 351.237 94.5832C351.32 94.5542 351.394 94.5011 351.454 94.4287L353.903 91.3929C354.94 91.5837 355.99 91.6513 357.031 91.5946L359.104 94.9153C359.226 95.1109 359.461 95.1954 359.673 95.1194H359.674L359.848 95.0566L364.031 93.5629L364.206 93.5001C364.418 93.424 364.554 93.2078 364.533 92.9748L364.195 89.0346C365.051 88.4139 365.838 87.6906 366.541 86.8791L370.273 87.7075C370.362 87.7268 370.452 87.7208 370.533 87.6918C370.653 87.6495 370.756 87.559 370.815 87.4346L370.897 87.2619L372.835 83.1381L372.916 82.9655C373.015 82.7553 372.963 82.503 372.79 82.3532L369.864 79.8126C370.048 78.7367 370.113 77.6474 370.058 76.5667L373.258 74.4173C373.448 74.2905 373.528 74.0454 373.455 73.8244L373.395 73.6444L371.955 69.3045L371.894 69.1234C371.821 68.9036 371.612 68.7636 371.389 68.7841L367.591 69.1343C366.992 68.2467 366.295 67.4304 365.512 66.6999L366.31 62.8285C366.357 62.6003 366.249 62.3684 366.046 62.2658L365.881 62.1825L361.906 60.1707L361.739 60.0874C361.619 60.027 361.485 60.0209 361.367 60.0632C361.284 60.0922 361.21 60.1441 361.15 60.2178L358.701 63.2535C357.664 63.0628 356.614 62.9951 355.572 63.0519L353.5 59.7324C353.378 59.5367 353.143 59.4522 352.931 59.5283H352.93L352.756 59.5911L348.574 61.0848L348.399 61.1476C348.188 61.2237 348.051 61.4398 348.072 61.6729L348.41 65.6131C347.554 66.2338 346.767 66.9571 346.064 67.7685L342.333 66.9402C342.243 66.9208 342.153 66.9269 342.072 66.9559C341.952 66.9981 341.849 67.0887 341.79 67.2131L341.709 67.3858L339.771 71.5095L339.689 71.6822C339.59 71.8923 339.642 72.1447 339.815 72.2944L342.741 74.8351C342.557 75.9098 342.492 76.999 342.547 78.081L339.347 80.2304C339.156 80.3548 339.076 80.5999 339.149 80.8209ZM349.87 74.0562C350.714 72.2739 352.173 70.9371 353.979 70.2947C355.786 69.6523 357.729 69.7791 359.448 70.6497C361.166 71.5252 362.454 73.0395 363.074 74.9136C363.692 76.7889 363.571 78.8043 362.732 80.5878C361.889 82.3701 360.43 83.7057 358.622 84.3493C356.814 84.9905 354.871 84.8649 353.152 83.9955C351.434 83.12 350.145 81.6058 349.525 79.7317C348.909 77.8551 349.031 75.8398 349.87 74.0562Z" fill="#222221"/>
<path d="M467.422 223.493C468.758 226.896 472.502 228.53 475.782 227.144C479.062 225.757 480.637 221.874 479.301 218.471C477.965 215.068 474.222 213.434 470.942 214.821C467.662 216.207 466.086 220.09 467.422 223.493Z" stroke="black" stroke-width="0.75" stroke-miterlimit="10" stroke-linecap="round" stroke-linejoin="round"/>
<path d="M128.967 158.45C106.926 135.562 76.8942 117.507 44.7275 120.073C21.3737 121.936 -4.825 138.377 2.14402 166.349C7.88848 189.406 26.7818 206.335 46.1069 217.494C57.3502 223.986 69.4654 228.998 81.9542 232.224C88.6217 233.944 96.6093 235.745 103.112 232.475C108.8 229.615 111.281 223.22 108.779 217.132C106.353 211.227 100.711 206.795 95.2264 204.185C89.8859 201.642 83.9389 200.738 78.1036 201.329C61.8503 202.977 46.2768 215.613 41.9013 232.122C35.3315 256.918 57.4759 277.818 76.3762 288.313" stroke="black" stroke-width="0.75" stroke-miterlimit="10" stroke-linecap="round" stroke-linejoin="round" stroke-dasharray="5.33 5.33 5.33 5.33 5.33 5.33"/>
<path d="M480.882 128.629C489.573 127.331 495.175 125.982 502.077 131.575C505.646 134.467 509.45 139.024 511.293 143.356C514.288 150.392 512.197 160.965 508.2 167.161C504.307 173.198 498.249 177.939 491.591 180.185C489.34 180.944 487.05 181.276 484.709 181.553C483.053 181.748 481.192 181.997 479.58 181.427C477.998 180.868 477.582 179.389 477.913 177.793C478.515 174.897 481.528 174.183 483.997 174.14C487.082 174.087 490.206 174.803 493.137 175.755C494.459 176.185 495.761 176.676 496.975 177.375C504.753 181.857 506.524 191.287 506.944 199.969" stroke="black" stroke-width="0.75" stroke-miterlimit="10" stroke-linecap="round" stroke-linejoin="round" stroke-dasharray="5.33 5.33 5.33 5.33 5.33 5.33"/>
<path d="M415.764 1C409.368 1 404.183 6.37839 404.183 13.0138V32.343C404.183 38.9772 409.368 44.3568 415.764 44.3568H423.093C423.093 44.3568 423.212 44.3568 423.425 44.3568C424.544 51.0031 427.229 66.5152 427.987 66.9077C428.779 67.3182 434.119 50.4295 436.01 44.3544C436.176 44.3568 436.27 44.3568 436.27 44.3568H459.511C465.908 44.3568 471.092 38.9784 471.092 32.343V13.0138C471.092 6.3796 465.908 1 459.511 1H415.764Z" stroke="black" stroke-width="0.75" stroke-miterlimit="10" stroke-linecap="round" stroke-linejoin="round"/>
<path d="M437.638 36.8845V34.4694C443.922 34.4694 449.033 29.1658 449.033 22.6487C449.033 16.1316 443.92 10.8281 437.638 10.8281V8.41302C445.206 8.41302 451.361 14.7985 451.361 22.6487C451.361 30.499 445.206 36.8845 437.638 36.8845Z" fill="black"/>
<path d="M430.276 15.4928C431.227 15.2911 431.84 14.3287 431.646 13.3422C431.451 12.3556 430.524 11.7192 429.573 11.9209C428.622 12.1226 428.008 13.085 428.203 14.0715C428.397 15.0581 429.325 15.6945 430.276 15.4928Z" fill="black"/>
<path d="M430.276 31.3708C431.227 31.1691 431.84 30.2067 431.646 29.2202C431.451 28.2336 430.524 27.5972 429.573 27.7989C428.622 28.0005 428.008 28.963 428.203 29.9495C428.397 30.9361 429.325 31.5725 430.276 31.3708Z" fill="black"/>
<path d="M252.913 117.322C248.054 115.669 242.811 115.062 237.709 115.445C229.323 116.073 221.056 119.242 214.602 124.832C208.147 130.421 203.605 138.47 202.551 147.123C201.249 157.797 205.514 169.027 213.483 175.912C221.854 183.144 234.032 185.34 244.238 181.322C253.143 187.719 253.442 188.57 263.839 196.631C262.207 180.726 262.357 181.619 261.216 171.484C268.27 166.567 273.051 158.293 273.907 149.522C274.762 140.75 271.675 131.65 265.714 125.367C262.162 121.621 257.725 118.959 252.913 117.322Z" fill="#FAF2E6"/>
<path d="M252.913 117.322C248.054 115.669 242.811 115.062 237.709 115.445C229.323 116.073 221.056 119.242 214.602 124.832C208.147 130.421 203.605 138.47 202.551 147.123C201.249 157.797 205.514 169.027 213.483 175.912C221.854 183.144 234.032 185.34 244.238 181.322C253.143 187.719 253.442 188.57 263.839 196.631C262.207 180.726 262.357 181.619 261.216 171.484C268.27 166.567 273.051 158.293 273.907 149.522C274.762 140.75 271.675 131.65 265.714 125.367C262.162 121.621 257.725 118.959 252.913 117.322Z" stroke="black" stroke-width="0.75" stroke-miterlimit="10" stroke-linecap="round" stroke-linejoin="round"/>
<path d="M239.117 143.762C239.007 141.401 238.975 138.975 239.861 136.809C240.807 134.496 243.123 132.582 245.508 133.017C247.055 133.298 248.336 134.511 249.077 135.948C249.817 137.385 250.085 139.03 250.227 140.653C251.002 149.529 248.331 158.303 245.756 166.793C239.998 162.73 234.159 158.654 229.366 153.409C227.663 151.545 226.057 149.452 225.462 146.959C224.867 144.467 225.534 141.495 227.605 140.089C229.502 138.802 232.102 139.134 234.054 140.329C236.006 141.523 237.505 143.314 239.125 145.054C239.118 144.893 239.125 143.921 239.117 143.762Z" fill="black"/>
</svg>
