<svg width="475" height="521" viewBox="0 0 475 521" fill="none" xmlns="http://www.w3.org/2000/svg">
<path d="M328.412 272.123C328.029 271.019 327.598 269.939 327.119 268.888C321.969 257.618 320.242 247.576 319.646 235.035C319.511 232.193 319.223 228.986 318.743 225.652C317.472 216.773 314.853 206.992 310.176 200.877C309.928 200.554 309.677 200.244 309.419 199.942C307.928 198.203 306.295 196.506 304.567 194.897C300.759 191.35 295.92 189.433 290.937 189.433H238.933H190.156C185.173 189.433 180.335 191.35 176.526 194.897C174.798 196.506 173.165 198.203 171.675 199.942C171.416 200.244 171.165 200.554 170.917 200.877C166.24 206.992 163.617 216.777 162.347 225.656C161.867 228.991 161.582 232.197 161.447 235.036C160.848 247.576 159.12 257.618 153.975 268.888C153.495 269.939 153.064 271.019 152.682 272.124C149.995 279.869 149.77 288.757 152.974 296.435C153.375 297.4 153.832 298.343 154.342 299.261C158.903 307.47 167.695 311.144 176.101 311.405C183.521 311.632 187.081 311.574 192.455 317.503C192.493 317.545 192.534 317.586 192.572 317.627C195.42 320.747 198.53 323.147 202.454 324.4C206.756 325.774 210.433 324.438 214.278 322.593C214.376 322.564 214.473 322.531 214.57 322.497C215.807 322.076 217.066 321.513 218.067 320.727C218.393 320.569 218.727 320.412 219.06 320.255L240.549 319.399L258.137 318.695C259.493 319.138 260.786 319.68 262.034 320.255C262.368 320.412 262.698 320.569 263.027 320.727C264.324 321.351 265.579 321.997 266.816 322.593C270.657 324.438 274.337 325.774 278.64 324.4C282.563 323.147 285.674 320.747 288.522 317.627C288.56 317.586 288.601 317.545 288.638 317.503C294.013 311.574 297.573 311.632 304.993 311.405C313.399 311.144 322.191 307.47 326.752 299.261C327.262 298.343 327.719 297.4 328.12 296.435C331.323 288.756 331.099 279.869 328.412 272.123Z" fill="black"/>
<path d="M201.019 191.907C204.756 185.774 208.599 179.517 214.159 174.97C220.728 169.598 229.506 167.015 237.938 167.974C239.088 168.105 240.306 168.334 241.142 169.135C242.763 170.688 242.092 173.427 240.947 175.359C238.601 179.319 234.871 182.23 231.228 185.044C227.928 187.593 224.424 190.231 220.294 190.812C218.266 191.097 215.682 190.454 215.242 188.454C215.073 187.683 215.278 186.882 215.514 186.129C219.122 174.618 230.941 166.234 242.998 166.635C245.961 166.733 249.431 167.738 250.348 170.558C250.931 172.348 250.26 174.279 249.595 176.04C248.597 178.685 247.598 181.33 246.6 183.975C246.226 184.967 245.846 185.997 245.917 187.055C246.063 189.197 248.026 190.801 250.057 191.494C253.363 192.622 257.084 192.017 260.215 190.469C263.191 188.997 265.978 186.119 265.555 182.827C265.273 180.634 263.632 178.863 261.87 177.529C254.415 171.884 243.208 171.859 235.728 177.469C234.226 178.596 232.741 180.374 233.338 182.155C233.828 183.621 235.495 184.3 237.001 184.644C244.357 186.324 252.013 184.311 259.2 182.014C262.623 180.92 266.101 179.718 268.915 177.484C270.48 176.242 271.898 174.396 271.553 172.429C271.063 169.64 267.512 168.631 264.697 168.93C260.887 169.336 257.232 171.081 254.521 173.788C253.392 174.916 252.392 176.278 252.164 177.857C251.726 180.904 254.232 183.562 256.792 185.273C260.682 187.873 265.196 189.533 269.844 190.075C273.53 190.504 277.458 190.182 280.604 188.216C283.751 186.249 285.865 182.341 284.909 178.756C284.267 176.352 282.372 174.424 280.172 173.262C277.972 172.099 275.48 171.616 273.01 171.311C260.62 169.785 246.888 173.075 239.032 182.778C238.26 183.732 237.533 185.08 238.201 186.109C238.707 186.887 239.774 187.05 240.701 187.009C244.13 186.855 247.266 184.944 249.748 182.573C252.231 180.203 254.202 177.357 256.446 174.758C265.335 164.464 275.332 138.164 339.865 140.569" stroke="black" stroke-width="1.5" stroke-miterlimit="10" stroke-linecap="round" stroke-linejoin="round"/>
<path d="M249.966 200.429C255.484 193.978 256.151 184.815 256.56 176.335C256.766 172.059 256.929 167.566 255.018 163.736C252.702 159.097 247.285 156.217 242.144 156.891C238.216 157.407 234.737 159.759 231.974 162.599C227.371 167.33 224.375 173.597 223.585 180.151C223.488 180.959 223.436 181.831 223.847 182.534C224.77 184.113 227.122 183.735 228.854 183.148C240.61 179.169 253.115 174.658 260.453 164.649C261.163 163.681 261.838 162.605 261.893 161.406C261.999 159.127 259.89 157.38 257.824 156.413C252.111 153.738 245.325 154.047 239.378 156.149C233.43 158.251 228.207 162.003 223.398 166.086C217.615 170.996 212.213 176.57 208.807 183.349C207.963 185.028 207.249 187.043 208.072 188.733C209.144 190.932 212.097 191.278 214.542 191.183C220.773 190.94 227.341 189.571 231.856 185.269C236.373 180.968 237.82 173.042 233.54 168.506C229.779 164.519 223.09 164.623 218.351 167.376C213.612 170.129 210.439 174.903 207.733 179.67C204.91 184.644 202.379 189.866 201.213 195.465C200.82 197.354 200.679 199.58 202.04 200.947C203.545 202.459 206.049 202.114 208.099 201.52C210.795 200.74 213.422 199.718 215.936 198.471C218.093 197.4 220.241 196.097 221.579 194.094C223.49 191.234 223.36 187.287 221.671 184.29C219.981 181.293 216.924 179.217 213.627 178.236C209.13 176.899 204.088 177.51 200.041 179.885C195.994 182.259 193.001 186.362 191.976 190.941C191.375 193.622 191.626 196.857 193.821 198.509C194.826 199.266 196.093 199.572 197.331 199.792C207.829 201.662 218.61 198.63 228.38 194.361C231.38 193.051 234.49 191.48 236.205 188.692C238.713 184.617 237.442 179.25 235.189 175.029C230.553 166.346 205.219 184.594 190.863 160.098C174.681 132.484 149.371 140.652 144.492 144.972" stroke="black" stroke-width="1.5" stroke-miterlimit="10" stroke-linecap="round" stroke-linejoin="round"/>
<path d="M296.429 242.556C299.835 242.824 303.263 243.278 306.479 244.483C309.696 245.688 312.713 247.699 314.697 250.608C316.681 253.516 317.514 257.386 316.422 260.771C315.238 264.438 312.002 267.057 308.513 268.347C305.024 269.637 299.258 269.645 295.559 269.793" fill="#FF6400"/>
<path d="M309.007 256.764C305.046 256.771 301.085 256.778 297.123 256.785" stroke="black" stroke-width="1.5" stroke-miterlimit="10" stroke-linecap="round" stroke-linejoin="round"/>
<path d="M188.462 242.556C185.055 242.824 181.628 243.278 178.411 244.483C175.195 245.688 172.177 247.699 170.193 250.608C168.209 253.516 167.376 257.386 168.469 260.771C169.653 264.438 172.888 267.057 176.378 268.347C179.867 269.637 185.633 269.645 189.331 269.793" fill="#FF6400"/>
<path d="M175.883 256.764C179.845 256.771 183.805 256.778 187.767 256.785" stroke="black" stroke-width="1.5" stroke-miterlimit="10" stroke-linecap="round" stroke-linejoin="round"/>
<path d="M266.133 311.002L217.506 312.048L217.767 345.251H266.592L266.133 311.002Z" fill="#FF6400"/>
<path d="M266.325 325.295C266.1 325.261 265.875 325.232 265.651 325.198C261.296 324.558 256.946 323.894 252.645 323.123C250.496 322.737 248.368 322.312 246.239 321.892C244.15 321.477 242.06 321.058 239.985 320.608C237.89 320.159 235.811 319.676 233.77 319.139C231.841 318.631 229.971 318.045 228.063 317.508C225.475 316.786 222.819 316.097 220.402 315.16L266.183 314.54L266.325 325.295Z" fill="black"/>
<path d="M295.512 225.718C292.976 218.386 289.073 211.555 284.278 205.659H200.102C194.872 211.714 190.644 219.312 188.15 228.728C185.047 257.247 184.11 293.451 210.647 311.055C222.278 318.397 236.818 320.108 250.314 318.684C287.569 315.658 300.018 279.313 297.11 246.259C296.782 239.158 296.162 232.462 295.512 225.718Z" fill="#FF6400"/>
<path d="M297.11 246.258C296.782 239.158 296.162 232.462 295.513 225.717C288.835 210.047 274.482 198.981 257.629 196.509L253.89 195.96C244.1 194.525 234.132 194.837 224.451 196.884C208.215 200.317 194.829 211.751 188.899 227.25L188.078 229.397C185.034 257.81 184.318 293.588 210.647 311.054C222.279 318.396 236.819 320.107 250.315 318.683C287.569 315.658 300.018 279.313 297.11 246.258Z" stroke="black" stroke-width="1.5" stroke-miterlimit="10" stroke-linecap="round" stroke-linejoin="round"/>
<path d="M242.035 250.639C243.907 254.674 239.499 257.477 237.524 260.347C236.309 262.114 236.297 264.578 238.18 265.94C240.038 267.285 243.207 267.033 244.447 264.956" stroke="black" stroke-width="1.5" stroke-miterlimit="10" stroke-linecap="round" stroke-linejoin="round"/>
<path d="M251.569 269.679C250.221 271.146 249.219 272.579 247.562 273.513C245.996 274.396 244.28 274.791 242.052 275.019L242.363 275.516C243.342 277.205 245.75 278.862 247.701 278.807C249.653 278.751 251.531 277.56 252.413 275.819C253.295 274.077 252.679 271.284 251.569 269.679Z" fill="black"/>
<path d="M261.951 251.096C261.951 252.378 260.912 253.416 259.63 253.416C258.349 253.416 257.31 252.377 257.31 251.096C257.31 249.814 258.349 248.776 259.63 248.776C260.911 248.776 261.951 249.814 261.951 251.096Z" fill="black"/>
<path d="M223.874 253.576C224.227 252.344 223.514 251.06 222.282 250.707C221.05 250.354 219.766 251.067 219.413 252.299C219.061 253.531 219.773 254.815 221.005 255.168C222.237 255.521 223.522 254.808 223.874 253.576Z" fill="black"/>
<path d="M214.132 277.312C220.924 277.312 226.431 274.01 226.431 269.938C226.431 265.866 220.924 262.564 214.132 262.564C207.34 262.564 201.833 265.866 201.833 269.938C201.833 274.01 207.34 277.312 214.132 277.312Z" fill="#F48547"/>
<path d="M270.807 277.606C277.6 277.606 283.106 274.304 283.106 270.232C283.106 266.16 277.6 262.858 270.807 262.858C264.015 262.858 258.509 266.16 258.509 270.232C258.509 274.304 264.015 277.606 270.807 277.606Z" fill="#F48547"/>
<path d="M271.633 242.848L255.318 239.708" stroke="black" stroke-width="10" stroke-miterlimit="10" stroke-linecap="round" stroke-linejoin="round"/>
<path d="M210.237 242.848L226.551 239.708" stroke="black" stroke-width="10" stroke-miterlimit="10" stroke-linecap="round" stroke-linejoin="round"/>
<path d="M190.446 192.137C184.178 198.952 179.343 207.584 178.045 216.409C177.393 220.85 177.095 230.179 176.907 242.556C184.982 241.886 187.829 241.56 192.01 239.207C193.337 238.461 194.657 237.545 195.844 236.595C198.795 234.233 200.668 231.412 201.889 227.832C203.542 222.985 204.212 217.773 203.241 212.695C204.28 212.966 205.346 213.134 206.458 213.135C208.969 213.136 211.534 212.862 214.006 212.431C215.739 212.128 217.439 211.762 219.103 211.313C224.861 214.494 232.09 217.07 240.126 218.549C254.049 221.111 266.884 219.738 274.48 215.569C282.479 234.059 296.378 241.164 299.901 240.337C297.092 225.223 301.015 207.92 285.353 192.136H190.446V192.137Z" fill="black"/>
<path d="M128.673 116.462C128.433 111.979 129.388 106.073 132.216 98.9689C133.62 95.4419 134.973 91.3052 134.071 87.4854C133.491 85.0311 131.29 81.5666 128.46 83.6416C127.216 84.5531 126.508 86.0041 125.846 87.397L118.839 102.151C117.477 105.018 116.481 108.048 115.927 111.173C115.293 114.744 102.811 148.433 100.13 157.82C98.5342 163.407 97.0315 174.41 97.1242 180.219L120.795 188.189C131.382 185.862 140.419 172.99 142.458 171.129C146.436 167.502 150.082 163.507 154.257 160.108C158 157.061 162.133 154.524 165.919 151.53C167.59 150.209 169.241 148.738 169.899 146.645C170.261 145.495 170.243 144.232 169.682 143.165C168.368 140.663 165.112 140.659 162.59 141.456C157.337 143.118 153.206 147.159 148.294 149.654C146.885 150.37 145.343 150.969 143.768 150.841C141.539 150.66 139.705 149.087 138.043 147.591C137.26 146.886 136.477 146.181 135.693 145.477C135.016 144.868 134.827 143.847 135.319 143.081C135.322 143.076 135.325 143.071 135.329 143.066C135.85 142.27 136.711 141.774 137.553 141.331C140.333 139.869 143.242 138.671 146.146 137.476C147.217 137.035 148.311 136.588 149.466 136.5C150.666 136.408 151.86 136.71 153.02 137.032C158.561 138.572 164.137 140.681 169.87 140.227C171.789 140.075 174.394 139.4 175.029 137.3C175.332 136.296 175.084 135.163 174.535 134.289C173.772 133.076 172.553 132.595 171.256 132.131C170.473 131.85 169.697 131.553 168.915 131.271C166.984 130.575 165.042 129.908 163.111 129.211C162.244 128.898 161.367 128.61 160.495 128.313C158.718 127.706 156.981 126.988 155.174 126.471C154.891 126.39 153.356 125.872 150.922 125.52C151.341 125.25 151.77 124.998 152.223 124.791C153.284 124.304 154.438 124.064 155.582 123.827C159.505 123.015 163.428 122.203 167.351 121.392C171.688 120.494 176.274 119.47 179.464 116.397C180.342 115.552 181.104 114.536 181.407 113.355C181.627 112.495 181.549 111.476 180.9 110.871C180.291 110.303 179.374 110.256 178.541 110.247C170.564 110.167 159.047 111.191 149.895 112.422C151.042 111.697 152.272 111.097 153.495 110.503C156.328 109.129 159.161 107.754 161.994 106.38C165.676 104.594 171.045 102.407 170.874 97.4446C170.81 95.584 169.595 93.2747 167.393 93.9485C159.824 96.2651 153.011 98.7072 145.845 102.068C143.853 103.002 141.04 104.221 139.214 105.447" fill="#FF6400"/>
<path d="M132.267 122.425C134.684 123.431 137.069 124.726 138.724 126.756C140.723 129.206 141.434 132.429 142.086 135.522" stroke="black" stroke-width="1.5" stroke-miterlimit="10" stroke-linecap="round" stroke-linejoin="round"/>
<path d="M141.262 131.199C144.365 129.726 146.713 128.441 149.528 126.475C150.122 126.06 150.712 125.633 151.334 125.263" stroke="black" stroke-width="1.5" stroke-miterlimit="10" stroke-linecap="round" stroke-linejoin="round"/>
<path d="M150.394 112.116C149.774 112.483 149.173 112.881 148.607 113.327C146.975 114.614 145.676 116.267 144.393 117.902C142.62 120.164 140.019 123.499 138.246 125.761" stroke="black" stroke-width="1.5" stroke-miterlimit="10" stroke-linecap="round" stroke-linejoin="round"/>
<path d="M130.843 129.442C132.303 137.364 130.428 145.462 129.591 153.475C129.382 155.477 129.244 157.545 129.843 159.467" stroke="black" stroke-width="1.5" stroke-miterlimit="10" stroke-linecap="round" stroke-linejoin="round"/>
<path d="M128.663 116.334C128.767 118.498 129.148 120.335 129.732 121.818" stroke="black" stroke-width="1.5" stroke-miterlimit="10" stroke-linecap="round" stroke-linejoin="round"/>
<path d="M112.653 277.095C129.365 238.408 138.155 219.132 149.743 192.071C116.047 174.934 107.028 170.132 77.7764 156.005C77.1593 157.485 42.4822 253.892 42.4822 253.892C32.2441 278.454 37.9276 306.78 56.8663 325.474C91.1933 359.355 126.192 391.84 161.875 423.553L201.833 334.946C161.695 310.514 150.034 304.553 112.653 277.095Z" fill="#D9D900"/>
<path d="M355.43 116.462C355.67 111.979 354.715 106.073 351.887 98.9689C350.483 95.442 349.13 91.3052 350.032 87.4854C350.612 85.0311 352.813 81.5666 355.643 83.6416C356.887 84.5531 357.595 86.0041 358.257 87.397L365.264 102.151C366.626 105.018 367.622 108.048 368.176 111.173C368.81 114.744 381.293 148.433 383.973 157.82C385.569 163.407 387.072 174.41 386.979 180.219L363.308 188.189C352.721 185.862 343.684 172.99 341.645 171.129C337.667 167.502 334.021 163.507 329.846 160.108C326.103 157.061 321.97 154.524 318.184 151.53C316.514 150.209 314.862 148.738 314.204 146.645C313.842 145.495 313.86 144.232 314.421 143.165C315.735 140.663 318.991 140.659 321.513 141.456C326.766 143.118 330.898 147.159 335.81 149.654C337.218 150.37 338.76 150.969 340.335 150.841C342.564 150.66 344.398 149.087 346.06 147.591C346.843 146.886 347.626 146.181 348.41 145.477C349.087 144.868 349.276 143.847 348.784 143.081C348.78 143.076 348.777 143.071 348.773 143.066C348.253 142.27 347.391 141.774 346.55 141.331C343.77 139.869 340.861 138.671 337.956 137.476C336.885 137.035 335.792 136.589 334.637 136.5C333.436 136.408 332.243 136.71 331.082 137.032C325.541 138.572 319.965 140.681 314.233 140.227C312.313 140.075 309.708 139.4 309.074 137.3C308.77 136.296 309.018 135.163 309.567 134.289C310.33 133.076 311.549 132.595 312.847 132.131C313.629 131.85 314.405 131.553 315.187 131.271C317.118 130.575 319.061 129.908 320.992 129.211C321.859 128.898 322.735 128.61 323.607 128.313C325.384 127.706 327.121 126.988 328.928 126.471C329.211 126.39 330.746 125.872 333.181 125.52C332.762 125.25 332.333 124.998 331.879 124.791C330.818 124.304 329.664 124.064 328.52 123.827C324.598 123.015 320.674 122.203 316.751 121.392C312.414 120.494 307.829 119.47 304.638 116.398C303.761 115.552 302.998 114.536 302.695 113.355C302.475 112.495 302.553 111.476 303.202 110.871C303.811 110.303 304.728 110.256 305.561 110.247C313.537 110.167 325.055 111.191 334.207 112.422C333.06 111.697 331.83 111.097 330.607 110.503C327.774 109.129 324.941 107.754 322.108 106.38C318.426 104.594 313.057 102.407 313.228 97.4447C313.292 95.584 314.508 93.2747 316.71 93.9485C324.278 96.2651 331.092 98.7072 338.258 102.068C340.25 103.002 343.062 104.221 344.889 105.447" fill="#FF6400"/>
<path d="M351.837 122.425C349.419 123.431 347.034 124.726 345.379 126.756C343.381 129.206 342.669 132.429 342.017 135.522" stroke="black" stroke-width="1.5" stroke-miterlimit="10" stroke-linecap="round" stroke-linejoin="round"/>
<path d="M342.841 131.199C339.738 129.726 337.391 128.441 334.575 126.475C333.981 126.06 333.391 125.633 332.769 125.263" stroke="black" stroke-width="1.5" stroke-miterlimit="10" stroke-linecap="round" stroke-linejoin="round"/>
<path d="M333.709 112.116C334.329 112.483 334.93 112.881 335.496 113.327C337.128 114.614 338.428 116.267 339.71 117.902C341.483 120.164 344.084 123.499 345.857 125.761" stroke="black" stroke-width="1.5" stroke-miterlimit="10" stroke-linecap="round" stroke-linejoin="round"/>
<path d="M353.26 129.442C351.8 137.364 353.675 145.462 354.512 153.475C354.721 155.477 354.86 157.545 354.26 159.467" stroke="black" stroke-width="1.5" stroke-miterlimit="10" stroke-linecap="round" stroke-linejoin="round"/>
<path d="M355.44 116.334C355.336 118.498 354.955 120.335 354.371 121.818" stroke="black" stroke-width="1.5" stroke-miterlimit="10" stroke-linecap="round" stroke-linejoin="round"/>
<path d="M371.45 277.095C354.738 238.408 345.948 219.132 334.361 192.071C368.057 174.934 377.075 170.132 406.327 156.005C406.944 157.485 441.621 253.892 441.621 253.892C451.86 278.454 446.176 306.78 427.237 325.474C392.91 359.355 357.912 391.84 322.228 423.553L282.271 334.946C322.408 310.514 334.069 304.553 371.45 277.095Z" fill="#D9D900"/>
<path d="M355.904 520.963C355.893 520.963 355.893 520.963 355.893 520.963C312.151 520.963 128.579 520.963 128.579 520.963C128.579 520.963 128.391 520.963 128.204 520.963V520.759C128.051 508.309 129.597 495.278 132.337 482.125C145.965 416.706 189.005 348.426 197.833 334.896C198.863 333.318 199.425 332.483 199.425 332.483C212.667 337.655 227.361 340.281 242.055 340.332C256.725 340.403 271.419 337.909 284.707 332.86C284.707 332.86 285.257 333.573 286.23 334.845C294.976 348.242 338.074 416.563 351.748 482.023C353.914 494.871 355.296 507.8 355.893 520.76C355.893 520.831 355.904 520.892 355.904 520.963Z" fill="#D9D900"/>
<mask id="mask0_1007_536" style="mask-type:luminance" maskUnits="userSpaceOnUse" x="37" y="156" width="410" height="365">
<path d="M427.239 325.471C395.441 356.859 363.067 387.046 330.102 416.53C339.047 437.177 347.097 459.767 351.75 482.025C353.913 494.87 355.295 507.798 355.89 520.761C355.89 520.829 355.905 520.893 355.905 520.961C355.89 520.961 355.89 520.961 355.89 520.961C312.15 520.961 128.578 520.961 128.578 520.961C128.578 520.961 128.393 520.961 128.202 520.961V520.761C128.051 508.311 129.598 495.276 132.337 482.123C136.98 459.83 145.041 437.206 154 416.53C121.04 387.046 88.6658 356.859 56.8677 325.471C37.9295 306.782 32.2417 278.455 42.4798 253.893C42.4798 253.893 77.1583 157.483 77.7784 156.004C107.028 170.133 116.045 174.932 149.743 192.069C138.157 219.131 129.364 238.406 112.652 277.098C149.127 303.882 161.113 310.209 198.951 333.195C199.263 332.721 199.424 332.482 199.424 332.482C212.665 337.652 227.36 340.279 242.056 340.333C256.722 340.406 271.418 337.911 284.707 332.858C284.707 332.858 284.815 333 285.025 333.273C322.964 310.224 334.941 303.911 371.45 277.098C354.738 238.406 345.95 219.131 334.36 192.069C368.057 174.932 377.074 170.133 406.329 156.004C406.944 157.483 441.622 253.893 441.622 253.893C451.861 278.455 446.178 306.782 427.239 325.471Z" fill="white"/>
</mask>
<g mask="url(#mask0_1007_536)">
<path d="M133.529 278.139C113.625 297.483 94.5264 317.398 83.4413 343.44C80.1501 351.172 74.8075 365.22 82.9867 371.871C96.2274 382.638 126.725 363.323 137.006 356.004C158.405 340.772 176.542 321.045 184.496 295.592C185.95 290.939 192.172 267.763 182.264 266.332C176.458 265.494 167.529 279.002 164.967 282.062C150.713 299.089 138.87 316.579 130.628 337.11C119.698 364.336 111.126 394.615 119.99 423.835C128.068 450.461 155.885 455.913 180.227 446.039C212.886 432.79 235.967 398.363 252.567 368.928C261.776 352.601 279.504 316.388 264.538 298.217C249.616 280.098 221.828 324.04 217.584 331.256C201.468 358.655 193.235 395.251 192.589 426.795C192.227 444.487 194.71 473.797 209.414 486.191C228.977 502.681 262.813 475.52 276.257 461.509C297.433 439.442 320.026 409.448 325.526 378.774C327.509 367.718 330.665 346.938 313.576 351.459C299.051 355.301 283.34 376.451 276.378 389.664C270.049 401.674 265.158 414.615 262.853 428.004C259.594 446.928 262.552 470.01 277.628 483.67C305.136 508.592 348.753 459.782 352.542 429.104C352.938 425.894 349.079 423.991 346.715 426.198C341.176 431.367 336.483 440.102 333.988 445.307C326.975 459.933 328.262 477.865 332.89 492.968C334.786 499.158 339.622 508.898 346.011 516.801" stroke="#F9F691" stroke-width="3" stroke-miterlimit="10"/>
<path d="M310.778 257.585C307.923 276.8 299.107 296.685 310.481 313.374C319.159 326.109 333.639 335.472 349.721 328.217C366.262 320.754 377.229 304.633 383.086 287.961C387.806 274.528 393.9 247.437 383.847 234.93C372.589 220.929 347.158 276.051 344.399 284.493C335.035 313.148 333.696 354.866 366.627 368.664C402.125 383.537 432.932 325.096 440.174 299.746C442.858 290.352 451.318 245.51 429.859 251.49C415.722 255.429 409.106 292.345 407.302 302.638C403.571 323.925 404.46 347.272 410.221 368.076C411.074 371.159 413.768 379.804 417.698 388.917" stroke="#F9F691" stroke-width="3" stroke-miterlimit="10"/>
<path d="M338.197 172.405C343.828 194.26 347.229 215.081 372.771 217.992C387.025 219.616 403.194 214.353 410.914 201.896C420.183 186.94 424.407 161.25 416.962 144.886C411.968 133.908 405.498 131.504 395.646 140.218C372.407 160.776 382.469 199.974 403.255 218.32C417.35 230.76 439.321 224.056 445.897 206.061" stroke="#F9F691" stroke-width="3" stroke-miterlimit="10"/>
<path d="M93.0554 143.761C70.9437 161.038 33.9168 183.705 25.9519 213.716C19.399 238.407 41.3866 246.715 63.1082 244.949C89.9884 242.763 116.485 232.132 133.851 211.127C135.576 209.039 162.035 171.186 148.692 168.125C143.575 166.951 124.514 190.031 122.222 192.339C112.278 202.35 103.053 212.392 95.1586 224.145C86.478 237.068 80.3313 253.731 93.7609 266.266C111.28 282.619 136.18 260.233 148.114 247.28C154.77 240.056 171.687 222.469 167.429 211.886C152.739 209.223 135.913 234.125 132.273 246.215C130.094 253.453 129.427 265.56 133.161 274.305" stroke="#F9F691" stroke-width="3" stroke-miterlimit="10"/>
</g>
<path d="M329.945 416.669C314.977 382.086 293.184 346.267 284.93 333.194" stroke="black" stroke-width="1.5" stroke-miterlimit="10" stroke-linecap="round" stroke-linejoin="round"/>
<path d="M153.936 416.669C168.904 382.086 190.698 346.267 198.951 333.194" stroke="black" stroke-width="1.5" stroke-miterlimit="10" stroke-linecap="round" stroke-linejoin="round"/>
<path d="M56.794 0H54.8411V20.9687H56.794V0Z" fill="black"/>
<path d="M66.3017 9.50815H45.3329V11.461H66.3017V9.50815Z" fill="black"/>
<path d="M49.0936 2.38036L47.7127 3.76126L62.5397 18.5882L63.9206 17.2074L49.0936 2.38036Z" fill="black"/>
<path d="M62.5395 2.38094L47.7125 17.2079L49.0934 18.5888L63.9204 3.76184L62.5395 2.38094Z" fill="black"/>
<path d="M17.6421 51.8729C18.4447 48.4928 16.3551 45.1021 12.975 44.2995C9.59486 43.4969 6.20411 45.5865 5.40155 48.9666C4.59898 52.3467 6.68852 55.7375 10.0687 56.5401C13.4488 57.3426 16.8396 55.2531 17.6421 51.8729Z" stroke="black" stroke-width="1.5" stroke-miterlimit="10" stroke-linecap="round" stroke-linejoin="round"/>
<path d="M424.746 13.0673C419.767 14.6814 418.459 15.9898 416.845 20.9692C415.231 15.9898 413.922 14.6814 408.943 13.0673C413.922 11.4533 415.231 10.1448 416.845 5.16542C418.459 10.1443 419.767 11.4528 424.746 13.0673Z" stroke="black" stroke-width="1.5" stroke-miterlimit="10" stroke-linecap="round" stroke-linejoin="round"/>
<path d="M419.495 90.361L417.006 97.8865L424.747 99.5953L417.665 103.157L421.93 109.838L414.404 107.35L412.695 115.09L409.134 108.008L402.452 112.273L404.941 104.747L397.201 103.038L404.282 99.4766L400.018 92.7953L407.543 95.2842L409.252 87.5444L412.814 94.6251L419.495 90.361Z" fill="black"/>
<path d="M463.396 59.8968V80.8655" stroke="black" stroke-width="1.5" stroke-miterlimit="10" stroke-linecap="round" stroke-linejoin="round"/>
<path d="M452.911 70.3814H473.88" stroke="black" stroke-width="1.5" stroke-miterlimit="10" stroke-linecap="round" stroke-linejoin="round"/>
<path d="M455.982 62.9677L470.809 77.7951" stroke="black" stroke-width="1.5" stroke-miterlimit="10" stroke-linecap="round" stroke-linejoin="round"/>
<path d="M455.982 77.7951L470.809 62.9677" stroke="black" stroke-width="1.5" stroke-miterlimit="10" stroke-linecap="round" stroke-linejoin="round"/>
<path d="M456.701 162.04C460.176 162.04 462.992 159.224 462.992 155.749C462.992 152.275 460.176 149.459 456.701 149.459C453.227 149.459 450.41 152.275 450.41 155.749C450.41 159.224 453.227 162.04 456.701 162.04Z" stroke="black" stroke-width="1.5" stroke-miterlimit="10" stroke-linecap="round" stroke-linejoin="round"/>
<path d="M33.3983 153.116C37.7196 151.324 43.1262 152.622 46.1629 156.18C46.9831 157.141 47.6535 158.517 47.0461 159.625C46.5804 160.475 45.5453 160.812 44.5952 161.004C41.0317 161.723 37.2689 161.427 33.8616 160.159C37.4989 162.574 40.0108 166.614 40.5674 170.944C40.7846 172.634 40.501 174.712 38.9553 175.429C37.8973 175.919 36.645 175.556 35.5934 175.051C32.6738 173.65 30.2942 171.156 29.0297 168.175C29.2875 171.157 29.5213 174.29 28.3003 177.024C27.0792 179.757 23.8726 181.852 21.0794 180.775C19.4898 180.162 18.3742 178.669 17.781 177.071C17.0487 175.1 16.9539 170.189 18.6159 167.364C16.0395 170.771 12.2509 174.728 8.73518 174.012C7.27344 173.715 5.77117 172.986 5.16431 171.623C3.3071 167.455 10.7213 163.541 14.3776 162.045C10.7213 162.876 5.58272 163.761 2.91457 160.921C1.7814 159.715 0.900647 158.132 1.00903 156.481C1.18723 153.771 4.13464 151.929 6.85015 151.966C9.56614 152.003 12.0561 153.39 14.4137 154.739C11.2276 152.739 7.90862 150.602 6.089 147.31C5.23266 145.76 4.87137 143.56 6.22522 142.419C7.30175 141.512 8.90899 141.748 10.2658 142.124C14.2438 143.226 17.6775 147.062 20.9432 149.587C18.4503 145.599 15.8867 142.164 15.2217 138.516C15.0181 137.398 15.0562 136.146 15.7637 135.258C16.4247 134.427 17.5623 134.084 18.6207 134.164C19.6792 134.244 20.681 134.68 21.6038 135.204C25.306 137.31 26.5524 141.361 27.4254 148.528C28.0537 146.321 29.6893 144.25 31.0685 142.465C32.7871 140.24 35.4747 137.985 38.5237 138.519C41.4984 139.04 43.6686 141.827 43.0207 144.843C42.5964 146.82 41.246 148.5 39.6339 149.721C38.0237 150.941 35.2516 152.308 33.3983 153.116Z" stroke="black" stroke-width="1.5" stroke-miterlimit="10" stroke-linecap="round" stroke-linejoin="round"/>
<path d="M27.5508 159.771C26.1096 162.044 23.4717 162.954 21.6599 161.804C19.8476 160.655 19.5469 157.881 20.9881 155.608C22.4294 153.336 25.0668 152.426 26.879 153.575C28.6913 154.724 28.9926 157.498 27.5508 159.771Z" fill="black"/>
<path d="M84.49 21.2216C64.4767 29.1352 49.104 47.4861 44.2203 68.3826C41.621 79.5043 42.5803 98.0505 58.6805 94.6842C69.064 92.5126 82.4287 83.8486 83.6981 72.3026C84.8488 61.838 71.179 61.6422 64.7848 65.5123C60.9444 67.8368 58.1474 71.4945 56.253 75.5126C48.7495 91.4302 51.5895 121.022 67.0804 132.128" stroke="black" stroke-width="1.5" stroke-miterlimit="10" stroke-linecap="round" stroke-linejoin="round"/>
<path d="M62.0429 112.657C62.2948 119.532 64.0505 126.349 67.1014 132.35C61.3882 130.45 56.0607 127.397 51.5324 123.429" stroke="black" stroke-width="1.5" stroke-miterlimit="10" stroke-linecap="round" stroke-linejoin="round"/>
<path d="M374.671 9.85817L367.262 21.6263" stroke="black" stroke-width="1.5" stroke-miterlimit="10" stroke-linecap="round" stroke-linejoin="round"/>
<path d="M385.653 21.5917L372.891 27.1174" stroke="black" stroke-width="1.5" stroke-miterlimit="10" stroke-linecap="round" stroke-linejoin="round"/>
<path d="M355.586 6.4299L359.323 19.8248" stroke="black" stroke-width="1.5" stroke-miterlimit="10" stroke-linecap="round" stroke-linejoin="round"/>
<path d="M22.5544 92.9452C22.5544 94.6662 21.159 96.0615 19.438 96.0615C17.717 96.0615 16.3217 94.6662 16.3217 92.9452C16.3217 91.2242 17.717 89.8288 19.438 89.8288C21.159 89.8288 22.5544 91.2242 22.5544 92.9452Z" fill="black"/>
<path d="M401.094 66.2154C402.816 66.2154 404.211 64.8202 404.211 63.0991C404.211 61.378 402.816 59.9827 401.094 59.9827C399.373 59.9827 397.978 61.378 397.978 63.0991C397.978 64.8202 399.373 66.2154 401.094 66.2154Z" fill="black"/>
<path d="M455.63 211.553C455.63 213.274 454.235 214.669 452.514 214.669C450.793 214.669 449.397 213.274 449.397 211.553C449.397 209.832 450.793 208.437 452.514 208.437C454.235 208.437 455.63 209.831 455.63 211.553Z" fill="black"/>
<path d="M24.0503 221.285C25.7714 221.285 27.1666 219.889 27.1666 218.168C27.1666 216.447 25.7714 215.052 24.0503 215.052C22.3292 215.052 20.9339 216.447 20.9339 218.168C20.9339 219.889 22.3292 221.285 24.0503 221.285Z" fill="black"/>
</svg>
