<svg width="310" height="405" viewBox="0 0 310 405" fill="none" xmlns="http://www.w3.org/2000/svg">
<path d="M107.009 58.1991C113.553 44.5006 110.843 29.5678 100.957 24.8456C91.0714 20.1235 77.7529 27.4003 71.2096 41.0988C64.6662 54.7973 67.3758 69.7301 77.2616 74.4523C87.1474 79.1744 100.466 71.8976 107.009 58.1991Z" fill="#FAF2E6"/>
<path d="M125.413 94.2449C128.665 87.2659 132.457 80.4159 134.282 72.8779C135.346 68.4839 135.676 63.8259 134.751 59.3769C134 55.7659 132.227 50.6379 128.185 49.5899C121.871 47.9529 120.076 56.3569 119.806 60.7599C119.399 67.3899 120.191 74.2669 121.488 80.7469C122.054 83.5739 122.753 86.3739 123.568 89.1389" fill="#FAF2E6"/>
<path d="M129.675 113.196C127.303 93.761 118.989 75.095 106.156 60.311" stroke="black" stroke-width="0.9165" stroke-miterlimit="10" stroke-linecap="round" stroke-linejoin="round"/>
<path d="M107.009 58.1991C113.553 44.5006 110.843 29.5678 100.957 24.8456C91.0714 20.1235 77.7529 27.4003 71.2096 41.0988C64.6662 54.7973 67.3758 69.7301 77.2616 74.4523C87.1474 79.1744 100.466 71.8976 107.009 58.1991Z" stroke="black" stroke-width="0.9165" stroke-miterlimit="10" stroke-linecap="round" stroke-linejoin="round"/>
<path d="M125.413 94.2449C128.665 87.2659 132.457 80.4159 134.282 72.8779C135.346 68.4839 135.676 63.8259 134.751 59.3769C134 55.7659 132.227 50.6379 128.185 49.5899C121.871 47.9529 120.076 56.3569 119.806 60.7599C119.399 67.3899 120.191 74.2669 121.488 80.7469C122.054 83.5739 122.753 86.3739 123.568 89.1389" stroke="black" stroke-width="0.9165" stroke-miterlimit="10" stroke-linecap="round" stroke-linejoin="round"/>
<path d="M100.144 30.5181C95.817 37.2301 94.227 47.0801 97.322 56.1011" stroke="black" stroke-width="1.1416" stroke-miterlimit="10" stroke-linecap="round" stroke-linejoin="round"/>
<path d="M93.7731 33.0452C93.3571 37.2692 92.5941 41.4962 90.9761 45.4202C89.3581 49.3442 86.8381 52.9692 83.3811 55.4322C82.2201 56.2592 80.6961 56.9642 79.4191 56.3312C77.9991 55.6272 77.7481 53.7192 77.8681 52.1382C78.2701 46.8322 80.8221 41.7202 84.8221 38.2112C85.8401 37.3182 87.4461 36.5362 88.4351 37.4612C89.1971 38.1742 89.0071 39.4192 88.6641 40.4052C87.7401 43.0602 86.1241 45.4712 84.0181 47.3342" stroke="black" stroke-width="1.1416" stroke-miterlimit="10" stroke-linecap="round" stroke-linejoin="round"/>
<path d="M101.779 57.397C94.4321 54.155 81.8091 57.682 77.1071 63.134" stroke="black" stroke-width="1.1416" stroke-miterlimit="10" stroke-linecap="round" stroke-linejoin="round"/>
<path d="M92.5351 78.9439C93.4781 77.9959 94.7601 77.2899 96.3851 76.9149C98.3131 76.4709 100.33 76.7439 102.188 77.3609C112.032 80.6289 117.963 91.1429 122.425 99.7769C124.889 104.546 127.264 109.755 132.406 112.437C121.581 110.914 110.251 106.235 101.132 99.6369C96.6141 96.3679 92.3321 92.3179 90.9111 86.7329C90.1311 83.6649 90.6621 80.8289 92.5351 78.9439Z" fill="#FAF2E6"/>
<path d="M92.5351 78.9439C93.4781 77.9959 94.7601 77.2899 96.3851 76.9149C98.3131 76.4709 100.33 76.7439 102.188 77.3609C112.032 80.6289 117.963 91.1429 122.425 99.7769C124.889 104.546 127.264 109.755 132.406 112.437C121.581 110.914 110.251 106.235 101.132 99.6369C96.6141 96.3679 92.3321 92.3179 90.9111 86.7329C90.1311 83.6649 90.6621 80.8289 92.5351 78.9439Z" stroke="black" stroke-width="0.9165" stroke-miterlimit="10" stroke-linecap="round" stroke-linejoin="round"/>
<path d="M148.784 115.228C146.025 93.5639 149.417 71.1509 158.462 51.2729" stroke="black" stroke-width="0.9165" stroke-miterlimit="10" stroke-linecap="round" stroke-linejoin="round"/>
<path d="M176.958 9.15691C176.467 8.14791 175.654 7.29691 174.596 6.96191C172.244 6.21691 169.943 8.17491 168.401 10.1019C164.887 14.4939 162.299 19.6239 160.853 25.0599C160.732 19.0609 160.386 12.4759 156.302 8.0789C154.637 6.2869 152.166 4.9639 149.784 5.5229C146.623 6.2649 145.261 9.8799 144.565 13.0509C141.692 26.1389 150.287 43.0249 158.46 51.2729C181.808 46.7719 199.991 28.5289 194.917 20.3739C193.295 17.7669 189.412 17.8819 186.529 18.9369C180.326 21.2069 175.648 26.2909 171.227 31.1979C174.444 26.1169 176.555 20.3399 177.371 14.3819C177.566 12.9549 177.686 11.4819 177.308 10.0919C177.222 9.7729 177.105 9.45791 176.958 9.15691Z" fill="#FAF2E6"/>
<path d="M176.781 73.2538C174.099 77.7738 169.903 81.3788 165.028 83.3458C160.012 85.3688 154.31 85.6448 149.124 84.1098C151.463 79.3028 156.205 76.0058 161.293 74.4078C166.308 72.8318 171.666 72.7398 176.915 73.0248C176.871 73.1018 176.826 73.1778 176.781 73.2538Z" fill="#FAF2E6"/>
<path d="M139.147 45.6198C139.227 45.3028 139.316 44.9868 139.412 44.6748C146.683 50.8198 151.258 60.0498 151.738 69.5578C147.48 67.5688 142.125 62.7518 140.221 58.4508C138.452 54.4528 138.075 49.8568 139.147 45.6198Z" fill="#FAF2E6"/>
<path d="M176.958 9.15691C176.467 8.14791 175.654 7.29691 174.596 6.96191C172.244 6.21691 169.943 8.17491 168.401 10.1019C164.887 14.4939 162.299 19.6239 160.853 25.0599C160.732 19.0609 160.386 12.4759 156.302 8.0789C154.637 6.2869 152.166 4.9639 149.784 5.5229C146.623 6.2649 145.261 9.8799 144.565 13.0509C141.692 26.1389 150.287 43.0249 158.46 51.2729C181.808 46.7719 199.991 28.5289 194.917 20.3739C193.295 17.7669 189.412 17.8819 186.529 18.9369C180.326 21.2069 175.648 26.2909 171.227 31.1979C174.444 26.1169 176.555 20.3399 177.371 14.3819C177.566 12.9549 177.686 11.4819 177.308 10.0919C177.222 9.7729 177.105 9.45791 176.958 9.15691Z" stroke="black" stroke-width="0.9165" stroke-miterlimit="10" stroke-linecap="round" stroke-linejoin="round"/>
<path d="M176.781 73.2538C174.099 77.7738 169.903 81.3788 165.028 83.3458C160.012 85.3688 154.31 85.6448 149.124 84.1098C151.463 79.3028 156.205 76.0058 161.293 74.4078C166.308 72.8318 171.666 72.7398 176.915 73.0248C176.871 73.1018 176.826 73.1778 176.781 73.2538Z" stroke="black" stroke-width="0.9165" stroke-miterlimit="10" stroke-linecap="round" stroke-linejoin="round"/>
<path d="M139.147 45.6198C139.227 45.3028 139.316 44.9868 139.412 44.6748C146.683 50.8198 151.258 60.0498 151.738 69.5578C147.48 67.5688 142.125 62.7518 140.221 58.4508C138.452 54.4528 138.075 49.8568 139.147 45.6198Z" stroke="black" stroke-width="0.9165" stroke-miterlimit="10" stroke-linecap="round" stroke-linejoin="round"/>
<path d="M175.167 113.196C178.574 96.1141 189.198 80.5931 203.89 71.2351" stroke="black" stroke-width="0.9165" stroke-miterlimit="10" stroke-linecap="round" stroke-linejoin="round"/>
<path d="M188.991 77.257C192.201 77.731 195.569 77.185 198.417 75.622C196.174 78.873 194.979 82.836 195.051 86.786C195.079 88.321 195.567 90.184 197.055 90.561C198.494 90.926 199.793 89.618 200.564 88.349C202.621 84.964 203.464 80.858 202.909 76.936C203.93 82.025 206.337 86.829 209.802 90.693C210.877 91.892 212.418 93.096 213.944 92.579C215.668 91.995 216.005 89.709 215.816 87.898C215.233 82.335 212.444 77.034 208.19 73.402C212.986 77.101 218.514 79.846 224.359 81.432C226.264 81.949 228.73 82.144 229.791 80.479C230.382 79.553 230.281 78.31 229.787 77.329C229.293 76.348 228.462 75.582 227.61 74.888C223.079 71.204 217.386 68.993 211.566 68.567C213.942 67.318 216.02 65.493 217.556 63.285C218.575 61.821 219.382 60.063 219.108 58.301C218.741 55.94 216.379 54.202 213.991 54.113C211.603 54.023 209.316 55.33 207.763 57.146C206.21 58.962 205.301 61.239 204.631 63.533C205.08 59.635 204.779 55.653 203.747 51.868C203.358 50.439 202.675 48.847 201.252 48.438C200.191 48.133 199.019 48.637 198.28 49.458C197.541 50.279 197.167 51.363 196.925 52.44C195.984 56.618 196.823 61.168 199.194 64.735C197.037 60.639 193.713 57.165 189.716 54.828C188.633 54.195 187.31 53.635 186.163 54.142C185.183 54.575 184.651 55.706 184.648 56.777C184.645 57.849 185.078 58.873 185.575 59.823C187.526 63.554 190.607 66.685 194.306 68.697C191.729 67.277 188.97 65.815 186.034 65.994C183.097 66.173 180.11 68.746 180.647 71.639C180.983 73.446 182.532 74.782 184.147 75.658C185.651 76.474 187.299 77.007 188.991 77.257Z" fill="#FAF2E6"/>
<path d="M188.991 77.257C192.201 77.731 195.569 77.185 198.417 75.622C196.174 78.873 194.979 82.836 195.051 86.786C195.079 88.321 195.567 90.184 197.055 90.561C198.494 90.926 199.793 89.618 200.564 88.349C202.621 84.964 203.464 80.858 202.909 76.936C203.93 82.025 206.337 86.829 209.802 90.693C210.877 91.892 212.418 93.096 213.944 92.579C215.668 91.995 216.005 89.709 215.816 87.898C215.233 82.335 212.444 77.034 208.19 73.402C212.986 77.101 218.514 79.846 224.359 81.432C226.264 81.949 228.73 82.144 229.791 80.479C230.382 79.553 230.281 78.31 229.787 77.329C229.293 76.348 228.462 75.582 227.61 74.888C223.079 71.204 217.386 68.993 211.566 68.567C213.942 67.318 216.02 65.493 217.556 63.285C218.575 61.821 219.382 60.063 219.108 58.301C218.741 55.94 216.379 54.202 213.991 54.113C211.603 54.023 209.316 55.33 207.763 57.146C206.21 58.962 205.301 61.239 204.631 63.533C205.08 59.635 204.779 55.653 203.747 51.868C203.358 50.439 202.675 48.847 201.252 48.438C200.191 48.133 199.019 48.637 198.28 49.458C197.541 50.279 197.167 51.363 196.925 52.44C195.984 56.618 196.823 61.168 199.194 64.735C197.037 60.639 193.713 57.165 189.716 54.828C188.633 54.195 187.31 53.635 186.163 54.142C185.183 54.575 184.651 55.706 184.648 56.777C184.645 57.849 185.078 58.873 185.575 59.823C187.526 63.554 190.607 66.685 194.306 68.697C191.729 67.277 188.97 65.815 186.034 65.994C183.097 66.173 180.11 68.746 180.647 71.639C180.983 73.446 182.532 74.782 184.147 75.658C185.651 76.474 187.299 77.007 188.991 77.257Z" stroke="black" stroke-width="0.9165" stroke-miterlimit="10" stroke-linecap="round" stroke-linejoin="round"/>
<path d="M197.763 93.4392C195.63 91.9552 192.349 92.5512 190.175 93.5982C187.11 95.0732 184.826 97.7972 183.001 100.595C181.988 102.148 177.851 109.923 177.46 110.005C179.333 109.609 181.156 109.352 182.966 108.82C188.516 107.188 194.243 104.557 197.662 99.6822C198.631 98.3012 199.535 96.2072 198.73 94.5532C198.5 94.0832 198.165 93.7192 197.763 93.4392Z" fill="#FAF2E6"/>
<path d="M161.742 89.4311C165.77 88.1841 173.215 93.7251 174.814 111.686C157.001 101.016 157.168 90.8471 161.742 89.4311Z" fill="#FAF2E6"/>
<path d="M197.763 93.4392C195.63 91.9552 192.349 92.5512 190.175 93.5982C187.11 95.0732 184.826 97.7972 183.001 100.595C181.988 102.148 177.851 109.923 177.46 110.005C179.333 109.609 181.156 109.352 182.966 108.82C188.516 107.188 194.243 104.557 197.662 99.6822C198.631 98.3012 199.535 96.2072 198.73 94.5532C198.5 94.0832 198.165 93.7192 197.763 93.4392Z" stroke="black" stroke-width="0.9165" stroke-miterlimit="10" stroke-linecap="round" stroke-linejoin="round"/>
<path d="M161.742 89.4311C165.77 88.1841 173.215 93.7251 174.814 111.686C157.001 101.016 157.168 90.8471 161.742 89.4311Z" stroke="black" stroke-width="0.9165" stroke-miterlimit="10" stroke-linecap="round" stroke-linejoin="round"/>
<path d="M200.192 67.3278C199.809 69.0368 200.407 70.9318 201.703 72.1108C202.498 72.8338 203.667 73.2928 204.657 72.8748C205.708 72.4298 206.172 71.1808 206.253 70.0418C206.302 69.3558 206.25 68.6498 205.985 68.0148C205.72 67.3798 205.219 66.8238 204.57 66.5968C203.921 66.3698 203.126 66.5268 202.685 67.0548C202.374 67.4288 202.265 67.9328 202.252 68.4198C202.241 68.8268 202.294 69.2478 202.492 69.6028C202.691 69.9578 203.057 70.2378 203.464 70.2518C203.871 70.2658 204.288 69.9578 204.323 69.5518" stroke="black" stroke-width="0.9165" stroke-miterlimit="10" stroke-linecap="round" stroke-linejoin="round"/>
<path d="M124.78 110.326C115.38 98.6548 104.654 88.0538 92.873 78.7908" stroke="black" stroke-width="0.9165" stroke-miterlimit="10" stroke-linecap="round" stroke-linejoin="round"/>
<path d="M105.639 89.5018C105.548 85.9488 105.458 82.3958 105.367 78.8428" stroke="black" stroke-width="0.9165" stroke-miterlimit="10" stroke-linecap="round" stroke-linejoin="round"/>
<path d="M113.377 97.5268C107.605 96.9448 101.832 96.3618 96.0591 95.7798" stroke="black" stroke-width="0.9165" stroke-miterlimit="10" stroke-linecap="round" stroke-linejoin="round"/>
<path d="M118.562 92.5149C118.754 95.9409 118.75 99.3769 118.55 102.802" stroke="black" stroke-width="0.9165" stroke-miterlimit="10" stroke-linecap="round" stroke-linejoin="round"/>
<path d="M124.235 90.3898C127.182 77.3128 127.533 63.6568 125.264 50.4458" stroke="black" stroke-width="0.9165" stroke-miterlimit="10" stroke-linecap="round" stroke-linejoin="round"/>
<path d="M125.802 80.6718C123.743 77.3958 122.189 74.9208 120.13 71.6448" stroke="black" stroke-width="0.9165" stroke-miterlimit="10" stroke-linecap="round" stroke-linejoin="round"/>
<path d="M126.725 68.5378C124.47 65.4858 122.216 62.4348 119.961 59.3828" stroke="black" stroke-width="0.9165" stroke-miterlimit="10" stroke-linecap="round" stroke-linejoin="round"/>
<path d="M126.598 77.0749C130.059 73.4089 132.999 69.2509 135.303 64.7659" stroke="black" stroke-width="0.9165" stroke-miterlimit="10" stroke-linecap="round" stroke-linejoin="round"/>
<path d="M126.948 61.9239C128.677 58.8469 130.232 55.6719 131.606 52.4209" stroke="black" stroke-width="0.9165" stroke-miterlimit="10" stroke-linecap="round" stroke-linejoin="round"/>
<path d="M226.704 30.4939C226.704 32.7039 224.912 34.4959 222.702 34.4959C220.492 34.4959 218.7 32.7039 218.7 30.4939C218.7 28.2839 220.492 26.4919 222.702 26.4919C224.912 26.4919 226.704 28.2839 226.704 30.4939Z" stroke="black" stroke-width="1.0561" stroke-miterlimit="10" stroke-linecap="round" stroke-linejoin="round"/>
<path d="M55.416 100.858C56.5007 100.858 57.38 99.9786 57.38 98.8939C57.38 97.8092 56.5007 96.9299 55.416 96.9299C54.3313 96.9299 53.452 97.8092 53.452 98.8939C53.452 99.9786 54.3313 100.858 55.416 100.858Z" fill="black"/>
<path d="M244.649 101.565C244.649 102.65 243.77 103.529 242.685 103.529C241.6 103.529 240.721 102.65 240.721 101.565C240.721 100.48 241.6 99.6011 242.685 99.6011C243.77 99.6011 244.649 100.48 244.649 101.565Z" fill="black"/>
<path d="M122.964 7.965C118.575 9.388 117.422 10.541 115.999 14.93C114.576 10.541 113.423 9.387 109.034 7.965C113.423 6.542 114.576 5.389 115.999 1C117.422 5.389 118.575 6.542 122.964 7.965Z" stroke="black" stroke-width="1.0561" stroke-miterlimit="10" stroke-linecap="round" stroke-linejoin="round"/>
<path d="M276.59 78.4012L273.6 72.9412" stroke="black" stroke-width="1.0561" stroke-miterlimit="10" stroke-linecap="round" stroke-linejoin="round"/>
<path d="M268.414 78.8282L270.818 73.0862" stroke="black" stroke-width="1.0561" stroke-miterlimit="10" stroke-linecap="round" stroke-linejoin="round"/>
<path d="M262.982 72.7022L268.97 71.0022" stroke="black" stroke-width="1.0561" stroke-miterlimit="10" stroke-linecap="round" stroke-linejoin="round"/>
<path d="M264.385 64.6362L269.448 68.2582" stroke="black" stroke-width="1.0561" stroke-miterlimit="10" stroke-linecap="round" stroke-linejoin="round"/>
<path d="M271.566 60.7031L271.891 66.9201" stroke="black" stroke-width="1.0561" stroke-miterlimit="10" stroke-linecap="round" stroke-linejoin="round"/>
<path d="M279.117 63.8652L274.46 67.9952" stroke="black" stroke-width="1.0561" stroke-miterlimit="10" stroke-linecap="round" stroke-linejoin="round"/>
<path d="M281.354 71.741L275.221 70.675" stroke="black" stroke-width="1.0561" stroke-miterlimit="10" stroke-linecap="round" stroke-linejoin="round"/>
<path d="M33.332 58.8551C35.5422 58.8551 37.334 57.0633 37.334 54.8531C37.334 52.6428 35.5422 50.8511 33.332 50.8511C31.1217 50.8511 29.33 52.6428 29.33 54.8531C29.33 57.0633 31.1217 58.8551 33.332 58.8551Z" stroke="black" stroke-width="1.0561" stroke-miterlimit="10" stroke-linecap="round" stroke-linejoin="round"/>
<path d="M294.852 109.706C288.484 111.77 286.811 113.443 284.747 119.811C282.683 113.443 281.009 111.77 274.642 109.706C281.01 107.642 282.683 105.968 284.747 99.6011C286.812 105.968 288.485 107.642 294.852 109.706Z" stroke="black" stroke-width="0.9165" stroke-miterlimit="10" stroke-linecap="round" stroke-linejoin="round"/>
<path d="M246.208 33.948H258.284" stroke="black" stroke-width="1.0561" stroke-miterlimit="10" stroke-linecap="round" stroke-linejoin="round"/>
<path d="M252.246 27.9099V39.9859" stroke="black" stroke-width="1.0561" stroke-miterlimit="10" stroke-linecap="round" stroke-linejoin="round"/>
<path d="M22.417 130.493H38.838" stroke="black" stroke-width="0.9165" stroke-miterlimit="10" stroke-linecap="round" stroke-linejoin="round"/>
<path d="M30.627 122.282V138.703" stroke="black" stroke-width="0.9165" stroke-miterlimit="10" stroke-linecap="round" stroke-linejoin="round"/>
<path d="M272.624 147.395C275.729 147.395 275.729 152.614 278.834 152.614C281.94 152.614 281.94 147.395 285.045 147.395C288.149 147.395 288.149 152.614 291.253 152.614C294.36 152.614 294.36 147.395 297.466 147.395C300.575 147.395 300.575 152.614 303.683 152.614C306.791 152.614 306.792 147.395 309.9 147.395" stroke="black" stroke-width="0.9831" stroke-miterlimit="10"/>
<path d="M0 82.0349C2.587 82.0349 2.587 86.3109 5.174 86.3109C7.762 86.3109 7.762 82.0349 10.349 82.0349C12.935 82.0349 12.935 86.3109 15.521 86.3109C18.109 86.3109 18.109 82.0349 20.698 82.0349C23.288 82.0349 23.288 86.3109 25.878 86.3109C28.468 86.3109 28.468 82.0349 31.058 82.0349" stroke="black" stroke-width="0.9831" stroke-miterlimit="10"/>
<path d="M262.177 190.784C257.052 183.614 251.191 176.651 248.74 168.255C246.773 161.537 247.093 154.206 244.138 147.846C241.096 141.288 234.915 136.52 231.708 130.038C229.606 125.789 228.889 121.021 227.106 116.64C225.711 113.229 223.366 109.889 220.149 108.178H78.58C76.302 110.02 74.588 112.697 73.476 115.416C71.694 119.797 70.976 124.565 68.874 128.814C65.667 135.297 59.487 140.064 56.444 146.622C53.489 152.982 53.809 160.313 51.842 167.031C49.391 175.426 43.53 182.389 38.405 189.56C33.29 196.721 28.64 204.909 29.192 213.615C29.87 224.347 39.568 233.845 50.602 234.58C57.839 235.06 64.95 232.215 72.206 232.403C80.935 232.629 88.831 237.152 97.036 240.035C102.897 242.101 112.253 243.6 119.546 241.225C128.693 238.246 138.174 236.344 147.82 236.378L149.562 236.384C160.262 236.422 170.979 237.925 180.989 241.601C188.298 244.285 197.682 243.326 203.544 241.26C211.749 238.377 219.645 233.854 228.374 233.628C235.63 233.44 242.741 236.285 249.978 235.805C261.013 235.07 270.71 225.572 271.388 214.84C271.942 206.133 267.292 197.945 262.177 190.784Z" fill="black"/>
<path d="M111.333 255.259C111.634 255.202 116.909 254.339 117.21 254.282C122.33 253.309 126.17 248.898 126.559 243.544L126.987 237.664L173.393 237.996L173.761 243.543C174.15 248.898 177.991 253.308 183.11 254.281C183.411 254.338 188.117 255.201 188.417 255.258C168.458 279.078 132.806 279.562 112.246 256.293L111.333 255.259Z" fill="#FF6400"/>
<path d="M136 244.806C139.387 247.191 143.128 249.114 147.048 250.452C151.368 251.927 155.892 252.758 160.432 253.159C162.66 253.356 164.896 253.449 167.133 253.456C169.379 253.463 171.631 253.408 173.868 253.192C175.517 253.033 177.163 252.791 178.792 252.464C175.947 250.488 174.031 247.241 173.762 243.543L173.394 237.996L128.008 237.671C130.451 240.287 133.068 242.742 136 244.806Z" fill="black"/>
<path d="M206.567 168.805L207.213 189.806C233.211 193.301 230.544 161.706 206.567 168.805Z" fill="#FF6400"/>
<path d="M96.2531 189.866L96.4841 168.911C71.7681 162.76 70.7161 194.579 96.2531 189.866Z" fill="#FF6400"/>
<path d="M216.927 179.113C213.398 179.183 210.707 179.204 207.178 179.274" stroke="black" stroke-width="0.9165" stroke-miterlimit="10" stroke-linecap="round" stroke-linejoin="round"/>
<path d="M86.2781 179.707C89.5671 179.574 92.8561 179.441 96.1441 179.308" stroke="black" stroke-width="0.9165" stroke-miterlimit="10" stroke-linecap="round" stroke-linejoin="round"/>
<path d="M206.86 161.562C205.899 152.366 204.41 143.124 202.033 134.179L99.453 135.508C97.301 144.543 96.05 153.853 95.33 163.102C93.981 180.437 94.524 198.912 101.135 215.226C111.83 241.617 143.865 250.925 169.679 243.891C184.641 239.814 196.464 229.166 202.107 214.722C208.628 198.029 208.696 179.149 206.86 161.562Z" fill="#FF6400"/>
<path d="M122.315 198.066C129.136 198.066 134.665 195.059 134.665 191.349C134.665 187.639 129.136 184.632 122.315 184.632C115.494 184.632 109.965 187.639 109.965 191.349C109.965 195.059 115.494 198.066 122.315 198.066Z" fill="#D34F07"/>
<path d="M182.007 198.066C188.828 198.066 194.357 195.059 194.357 191.349C194.357 187.639 188.828 184.632 182.007 184.632C175.186 184.632 169.657 187.639 169.657 191.349C169.657 195.059 175.186 198.066 182.007 198.066Z" fill="#D34F07"/>
<path d="M99.453 135.507C97.301 144.542 96.05 153.852 95.33 163.102C93.981 180.437 94.524 198.912 101.135 215.226C111.83 241.617 143.865 250.925 169.679 243.891C184.641 239.814 196.464 229.166 202.107 214.722C208.628 198.029 208.696 179.149 206.859 161.562C205.898 152.366 204.41 143.124 202.033 134.178" stroke="black" stroke-width="0.8802" stroke-miterlimit="10" stroke-linecap="round" stroke-linejoin="round"/>
<path d="M166.886 176.875C168.29 173.644 171.806 171.458 175.325 171.628C178.844 171.799 182.132 174.314 183.217 177.666" stroke="black" stroke-width="0.9165" stroke-miterlimit="10" stroke-linecap="round" stroke-linejoin="round"/>
<path d="M149.117 186.267C148.929 188.276 151.36 189.841 153.287 189.243C155.214 188.645 156.362 186.516 156.357 184.499C156.352 182.481 155.419 180.58 154.311 178.894" stroke="black" stroke-width="0.9165" stroke-miterlimit="10" stroke-linecap="round" stroke-linejoin="round"/>
<path d="M153.579 198.642C151.82 200.463 148.924 201.078 146.578 200.127C144.231 199.176 142.579 196.72 142.584 194.188" stroke="black" stroke-width="0.9165" stroke-miterlimit="10" stroke-linecap="round" stroke-linejoin="round"/>
<path d="M139.527 177.486C138.297 174.184 134.902 171.814 131.379 171.798C127.856 171.781 124.438 174.118 123.177 177.408" stroke="black" stroke-width="0.9165" stroke-miterlimit="10" stroke-linecap="round" stroke-linejoin="round"/>
<path d="M167.246 162.958C167.373 161.919 168.471 161.197 169.699 161.347L177.925 161.911C178.185 161.929 178.443 161.962 178.699 162.01L185.268 163.243C186.496 163.392 187.389 164.356 187.263 165.396C187.136 166.435 186.038 167.157 184.81 167.007C180.327 166.792 175.863 166.29 171.445 165.504L169.241 165.112C168.013 164.962 167.12 163.998 167.246 162.958Z" fill="black"/>
<path d="M119.385 166.023C119.193 164.993 120.024 163.975 121.241 163.749L129.256 161.815C129.509 161.754 129.766 161.708 130.024 161.677L136.659 160.879C137.876 160.653 139.017 161.304 139.209 162.333C139.401 163.363 138.57 164.381 137.353 164.607C133.013 165.749 128.604 166.611 124.154 167.188L121.934 167.476C120.718 167.704 119.576 167.053 119.385 166.023Z" fill="black"/>
<path d="M94.6781 124.525H161.454C148.374 147.12 116.555 156.773 94.6781 159.802V124.525Z" fill="black"/>
<path d="M207.078 124.525H140.302C153.382 147.12 185.201 156.773 207.078 159.802V124.525Z" fill="black"/>
<path d="M220.544 109.157C225.579 110.961 229.737 115.069 231.599 120.083C233.356 124.813 233.265 130.425 236.579 134.23C238.288 136.193 240.694 137.391 242.708 139.039C247.977 143.35 250.159 150.317 251.735 156.94C253.312 163.563 254.684 170.552 258.977 175.837C262.348 179.987 272.594 187.419 273.509 200.843" stroke="black" stroke-width="1.0561" stroke-miterlimit="10" stroke-linecap="round"/>
<path d="M78.0001 109.676C71.5211 113.727 70.0121 122.378 65.6871 128.677C61.9971 134.052 56.1741 137.756 52.8231 143.349C49.8631 148.29 49.6391 155.676 48.2011 163.316C46.6071 171.786 45.8671 179.148 29.5911 189.859" stroke="black" stroke-width="1.0561" stroke-miterlimit="10" stroke-linecap="round"/>
<path d="M191.123 159.008C157.761 153.221 151.848 137.945 151.082 134.979C144.996 146.243 128.315 156.625 107.476 160.4" stroke="black" stroke-width="1.0561" stroke-miterlimit="10" stroke-linecap="round"/>
<path d="M294.831 403.51L6.09399 404.566C9.03899 374.631 25.557 303.27 47.771 281.695C64.192 265.739 90.785 256.981 115.712 253.377C118.986 264.363 133.295 272.646 150.463 272.646C167.417 272.646 181.6 264.557 185.087 253.755C211.942 257.262 239.204 265.564 254.433 280.639C276.433 302.417 291.876 373.575 294.831 403.51Z" fill="#D9D900"/>
<mask id="mask0_1024_1300" style="mask-type:luminance" maskUnits="userSpaceOnUse" x="6" y="253" width="289" height="152">
<path d="M294.831 403.51L6.09399 404.566C9.03899 374.631 25.557 303.27 47.771 281.695C64.192 265.739 90.785 256.981 115.712 253.377C118.986 264.363 133.295 272.646 150.463 272.646C167.417 272.646 181.6 264.557 185.087 253.755C211.942 257.262 239.204 265.564 254.433 280.639C276.433 302.417 291.876 373.575 294.831 403.51Z" fill="white"/>
</mask>
<g mask="url(#mask0_1024_1300)">
<path d="M298.603 332.565C290.476 358.972 281.497 386.387 262.04 406.003C254.666 413.437 244.47 419.856 234.278 417.456C221.141 414.362 215.443 398.659 215.041 385.169C214.55 368.702 218.71 352.121 226.916 337.836C230.217 332.089 237.27 322.638 240.591 323.91C242.972 325.107 240.096 338.468 237.219 345.211C228.343 366.008 214.922 384.851 198.169 400.038C189.657 407.754 177.375 414.827 167.314 409.279C160.391 405.461 157.508 396.965 156.786 389.092C155.532 375.42 158.983 361.746 163.467 348.769C170.242 329.163 179.407 310.477 188.85 292.008C195.068 279.845 201.452 267.696 209.545 256.692C213.209 251.711 219.717 246.519 224.845 249.975C227.595 251.829 228.46 255.459 228.714 258.766C229.89 274.067 222.753 288.796 214.187 301.529C204.049 316.598 191.375 330.339 175.523 339.201C166.899 344.022 155.959 347.241 147.383 342.334C139.31 337.715 136.285 327.478 136.112 318.179C135.899 306.715 139.992 293.91 150.297 288.882C152.072 288.016 154.123 287.41 156.009 287.993C160.465 289.368 160.628 295.571 159.701 300.141C152.907 333.644 135.842 364.992 111.392 388.884C102.599 397.476 92.361 405.369 80.288 407.69C68.215 410.011 54.073 405.241 48.856 394.109C45.874 387.747 46.132 380.362 47.121 373.406C50.253 351.396 60.281 330.417 75.442 314.157C80.629 308.594 88.774 303.27 95.273 307.222C102.359 311.53 100.361 322.326 96.584 329.709C89.273 343.998 78.562 356.533 65.586 365.981C54.53 374.032 39.412 379.827 27.46 373.178C20.295 369.192 15.859 361.326 14.509 353.239C13.159 345.152 14.558 336.839 16.82 328.958C20.254 316.995 26.787 304.558 38.469 300.263C42.336 298.841 47.182 298.634 50.084 301.559C53.082 304.581 52.72 309.512 51.742 313.655C49.239 324.262 44.112 334.093 38.044 343.146C30.442 354.488 21.152 364.909 9.64401 372.258C-1.86399 379.606 -15.75 383.709 -29.298 382.011C-31.598 381.722 -34.462 379.074 -32.518 377.81" stroke="#F2EC2A" stroke-width="1.5" stroke-miterlimit="10"/>
<path d="M285.705 279.717C283.222 290.145 279.111 300.184 273.565 309.358C271.72 312.411 269.649 315.439 266.731 317.489C263.812 319.54 259.865 320.454 256.615 318.983C253.863 317.738 252.043 315.024 250.945 312.21C248.985 307.188 248.906 301.627 249.403 296.259C250.32 286.356 253.126 276.63 257.625 267.761C260.26 262.566 264.602 257.042 270.418 257.382" stroke="#F2EC2A" stroke-width="1.5" stroke-miterlimit="10"/>
<path d="M103.543 242.891C103.864 258.737 99.534 275.655 87.586 286.069C84.213 289.009 80.16 291.403 75.707 291.847C71.254 292.291 66.394 290.437 64.166 286.556C62.942 284.424 62.593 281.907 62.466 279.452C61.996 270.364 64.327 261.15 69.064 253.379C70.66 250.761 72.652 248.197 75.47 246.987C78.287 245.777 82.083 246.393 83.626 249.043C84.535 250.603 84.522 252.536 84.211 254.315C83.516 258.298 81.504 261.916 79.409 265.374C73.614 274.94 65.927 284.651 54.978 286.932C44.751 289.063 33.425 283.238 29.209 273.68" stroke="#F2EC2A" stroke-width="1.5" stroke-miterlimit="10"/>
</g>
<path d="M224.358 340.086C227.719 362.256 231.081 384.426 234.442 406.596" stroke="black" stroke-width="0.9165" stroke-miterlimit="10" stroke-linecap="round" stroke-linejoin="round"/>
<path d="M74.8631 344.682C71.5021 366.852 68.1401 389.022 64.7791 411.192" stroke="black" stroke-width="0.9165" stroke-miterlimit="10" stroke-linecap="round" stroke-linejoin="round"/>
</svg>
